<svg xmlns="http://www.w3.org/2000/svg" xmlns:xlink="http://www.w3.org/1999/xlink" viewBox="0 0 810 809.999993" preserveAspectRatio="xMidYMin" version="1.0"><path fill="#64b59e" d="M 757.371094 287.324219 C 692.597656 171.886719 474.039062 381.578125 405.003906 446.097656 C 335.960938 381.578125 117.398438 171.886719 52.625 287.324219 C 34.878906 318.964844 64.511719 409.652344 62.21875 439.425781 C 60.023438 467.804688 0.125 527.980469 22.589844 576.199219 C 48.363281 631.558594 112.253906 638.398438 178.894531 630.90625 C 265.933594 621.109375 342.964844 571.589844 405.003906 512.308594 C 467.042969 571.589844 544.058594 621.109375 631.105469 630.90625 C 697.75 638.398438 761.640625 631.558594 787.414062 576.199219 C 809.867188 527.980469 749.96875 467.804688 747.785156 439.425781 C 745.492188 409.652344 775.128906 318.964844 757.371094 287.324219 " fill-opacity="1" fill-rule="nonzero"/><path fill="#31685c" d="M 776.332031 545.882812 C 751.027344 599.265625 688.300781 605.855469 622.878906 598.625 C 560.0625 591.683594 502.566406 564.023438 452.316406 527.15625 C 457.203125 523.320312 460.722656 517.816406 461.996094 511.492188 C 497.816406 522.097656 526.878906 528.78125 572.9375 539.941406 C 580.128906 541.546875 590.996094 543.898438 604.429688 545.890625 C 611.128906 546.828125 618.5 547.703125 626.121094 547.890625 C 630.664062 548.660156 637.398438 547.1875 640.527344 546.511719 C 640.078125 546.027344 639.472656 545.492188 638.652344 544.9375 C 635.683594 542.648438 631.726562 540.40625 627.625 538.328125 C 619.316406 534.160156 610.070312 530.40625 600.601562 526.730469 C 581.5625 519.089844 561.761719 513.128906 541.777344 502.71875 C 539.253906 501.308594 536.648438 499.710938 533.78125 497.210938 C 532.414062 495.957031 530.671875 494.128906 529.285156 490.949219 C 527.671875 486.292969 528.917969 483.078125 530.308594 479.984375 C 538.007812 469.929688 543.847656 471.453125 549.1875 469.394531 C 559.898438 467.136719 569.585938 466.46875 578.488281 465.113281 C 582.84375 464.449219 587.210938 463.71875 590.332031 462.628906 C 588.1875 460.917969 584.289062 459.675781 579.976562 459.492188 C 554.527344 460.035156 534.945312 467.609375 535.230469 466.699219 C 535.207031 466.679688 530.699219 467.84375 522.085938 469.472656 C 517.695312 470.1875 512.539062 471.3125 505.128906 471.082031 C 503.339844 471.082031 500.964844 470.535156 498.820312 470.144531 L 497.984375 469.972656 C 486.375 457.632812 494.765625 466.476562 492.171875 463.691406 L 492.144531 463.558594 L 492.117188 463.300781 L 492.0625 462.757812 L 491.894531 460.582031 L 491.921875 456.117188 C 493.273438 450.371094 496.421875 445.820312 499.835938 442.691406 C 527.132812 419.8125 567.726562 417.878906 604.175781 400.628906 C 622.820312 392.832031 642.59375 384.390625 657.800781 373.570312 C 660.074219 372.042969 662.390625 369.769531 663.632812 368.324219 C 663.078125 368.035156 662.289062 367.679688 661.15625 367.339844 C 655.066406 365.214844 645.480469 366.171875 637.253906 367.714844 C 603.128906 374.933594 575.648438 388.199219 562.324219 393.917969 C 521.34375 414.324219 495.550781 429.894531 462.511719 445.492188 L 462.511719 444.382812 C 462.511719 429.691406 450.597656 417.777344 435.914062 417.777344 L 374.09375 417.777344 C 359.402344 417.777344 347.484375 429.691406 347.484375 444.382812 L 347.484375 449.28125 C 310.34375 432.382812 283.796875 415.984375 239.496094 393.917969 C 226.15625 388.199219 198.691406 374.933594 164.5625 367.714844 C 156.332031 366.171875 146.761719 365.214844 140.664062 367.339844 C 139.539062 367.679688 138.746094 368.035156 138.183594 368.324219 C 139.433594 369.769531 141.753906 372.042969 144.023438 373.570312 C 159.222656 384.390625 179.011719 392.832031 197.648438 400.628906 C 234.09375 417.878906 274.691406 419.8125 301.992188 442.691406 C 305.398438 445.820312 308.542969 450.371094 309.90625 456.117188 L 309.925781 460.582031 L 309.761719 462.757812 L 309.703125 463.300781 L 309.675781 463.558594 L 309.660156 463.691406 C 307.050781 466.476562 315.445312 457.632812 303.824219 469.972656 L 302.996094 470.144531 C 300.863281 470.535156 298.488281 471.082031 296.691406 471.082031 C 289.28125 471.3125 284.128906 470.1875 279.730469 469.472656 C 271.117188 467.84375 266.613281 466.679688 266.597656 466.699219 C 266.871094 467.609375 247.289062 460.035156 221.847656 459.492188 C 217.542969 459.675781 213.628906 460.917969 211.488281 462.628906 C 214.617188 463.71875 218.984375 464.449219 223.328125 465.113281 C 232.226562 466.46875 241.914062 467.136719 252.640625 469.394531 C 257.980469 471.453125 263.820312 469.929688 271.5 479.984375 C 272.890625 483.078125 274.15625 486.292969 272.542969 490.949219 C 271.152344 494.128906 269.414062 495.957031 268.019531 497.210938 C 265.179688 499.710938 262.574219 501.308594 260.050781 502.71875 C 240.066406 513.128906 220.269531 519.089844 201.214844 526.730469 C 191.761719 530.40625 182.507812 534.160156 174.195312 538.328125 C 170.101562 540.40625 166.140625 542.648438 163.164062 544.9375 C 162.34375 545.492188 161.746094 546.027344 161.292969 546.511719 C 164.417969 547.1875 171.152344 548.660156 175.699219 547.890625 C 183.316406 547.703125 190.699219 546.828125 197.386719 545.890625 C 210.828125 543.898438 221.6875 541.546875 228.890625 539.941406 C 278.25 527.988281 308.097656 521.160156 347.65625 509.140625 C 348.261719 514.71875 350.597656 519.761719 354.09375 523.757812 C 302.773438 562.3125 243.6875 591.46875 178.9375 598.625 C 113.519531 605.855469 50.804688 599.265625 25.496094 545.882812 C 23.070312 540.761719 21.671875 535.507812 21.019531 530.164062 C 16.570312 545.796875 15.769531 561.554688 22.589844 576.199219 C 48.363281 631.558594 112.253906 638.398438 178.894531 630.90625 C 255.65625 622.265625 324.609375 582.730469 382.378906 532.859375 L 427.625 532.859375 C 485.390625 582.730469 554.347656 622.265625 631.105469 630.90625 C 697.75 638.398438 761.644531 631.558594 787.417969 576.199219 C 798.132812 553.15625 790.066406 527.40625 778.480469 503.683594 C 782.296875 518.039062 782.695312 532.445312 776.332031 545.882812 " fill-opacity="1" fill-rule="nonzero"/><path fill="#64b59e" d="M 427.902344 432.6875 L 382.101562 432.6875 C 371.214844 432.6875 362.386719 441.503906 362.386719 452.40625 L 362.386719 498.21875 C 362.386719 509.109375 371.214844 517.945312 382.101562 517.945312 L 427.902344 517.945312 C 438.78125 517.945312 447.609375 509.109375 447.609375 498.21875 L 447.609375 452.40625 C 447.609375 441.503906 438.78125 432.6875 427.902344 432.6875 " fill-opacity="1" fill-rule="nonzero"/></svg>