<svg xmlns="http://www.w3.org/2000/svg" xmlns:xlink="http://www.w3.org/1999/xlink" viewBox="0 -400 810 1209.999993" preserveAspectRatio="xMidYMin meet" version="1.0"><path fill="#93c54b" d="M 433.417969 94.648438 C 433.417969 94.625 433.394531 94.609375 433.371094 94.585938 C 432.226562 95.84375 431.101562 96.578125 430.03125 96.625 C 419.371094 97.050781 390.742188 97.050781 380.082031 96.625 C 379.019531 96.578125 377.917969 95.871094 376.789062 94.640625 C 376.757812 94.640625 376.71875 94.640625 376.6875 94.648438 C 376.796875 95.734375 308.320312 604.992188 312.855469 629.089844 C 317.992188 656.363281 397.875 809.792969 405.054688 809.792969 C 412.859375 809.792969 492.113281 656.363281 497.253906 629.089844 C 501.78125 604.992188 433.304688 95.734375 433.417969 94.648438 " fill-opacity="1" fill-rule="nonzero"/><path fill="#93c54b" d="M 355.160156 15.222656 C 356.011719 0.304688 454.09375 0.304688 454.949219 15.222656 C 455.800781 30.140625 440.691406 96.199219 430.03125 96.625 C 419.371094 97.050781 390.734375 97.050781 380.082031 96.625 C 369.421875 96.199219 354.304688 30.140625 355.160156 15.222656 " fill-opacity="1" fill-rule="nonzero"/><path fill="#e1e886" d="M 415.164062 766.933594 C 415.300781 766.792969 415.527344 766.792969 415.667969 766.933594 L 420.179688 771.441406 C 420.316406 771.574219 420.316406 771.796875 420.179688 771.9375 L 415.667969 776.453125 C 415.527344 776.597656 415.300781 776.597656 415.164062 776.453125 L 410.65625 771.9375 C 410.511719 771.796875 410.511719 771.574219 410.65625 771.441406 L 415.164062 766.933594 " fill-opacity="1" fill-rule="nonzero"/><path fill="#e1e886" d="M 394.441406 766.933594 C 394.585938 766.792969 394.8125 766.792969 394.945312 766.933594 L 399.457031 771.441406 C 399.601562 771.574219 399.601562 771.796875 399.457031 771.9375 L 394.945312 776.453125 C 394.8125 776.597656 394.585938 776.597656 394.441406 776.453125 L 389.929688 771.9375 C 389.789062 771.796875 389.789062 771.574219 389.929688 771.441406 L 394.441406 766.933594 " fill-opacity="1" fill-rule="nonzero"/><path fill="#e1e886" d="M 435.882812 733.53125 C 436.023438 733.390625 436.25 733.390625 436.394531 733.53125 L 440.898438 738.039062 C 441.039062 738.171875 441.039062 738.394531 440.898438 738.535156 L 436.394531 743.050781 C 436.25 743.191406 436.023438 743.191406 435.882812 743.050781 L 431.378906 738.535156 C 431.234375 738.394531 431.234375 738.171875 431.378906 738.039062 L 435.882812 733.53125 " fill-opacity="1" fill-rule="nonzero"/><path fill="#e1e886" d="M 415.164062 733.53125 C 415.300781 733.390625 415.527344 733.390625 415.667969 733.53125 L 420.179688 738.039062 C 420.316406 738.171875 420.316406 738.394531 420.179688 738.535156 L 415.667969 743.050781 C 415.527344 743.191406 415.300781 743.191406 415.164062 743.050781 L 410.65625 738.535156 C 410.511719 738.394531 410.511719 738.171875 410.65625 738.039062 L 415.164062 733.53125 " fill-opacity="1" fill-rule="nonzero"/><path fill="#e1e886" d="M 394.441406 733.53125 C 394.585938 733.390625 394.8125 733.390625 394.945312 733.53125 L 399.457031 738.039062 C 399.601562 738.171875 399.601562 738.394531 399.457031 738.535156 L 394.945312 743.050781 C 394.8125 743.191406 394.585938 743.191406 394.441406 743.050781 L 389.929688 738.535156 C 389.789062 738.394531 389.789062 738.171875 389.929688 738.039062 L 394.441406 733.53125 " fill-opacity="1" fill-rule="nonzero"/><path fill="#e1e886" d="M 373.71875 733.53125 C 373.859375 733.390625 374.089844 733.390625 374.230469 733.53125 L 378.734375 738.039062 C 378.875 738.171875 378.875 738.394531 378.734375 738.535156 L 374.230469 743.050781 C 374.089844 743.191406 373.859375 743.191406 373.71875 743.050781 L 369.214844 738.535156 C 369.074219 738.394531 369.074219 738.171875 369.214844 738.039062 L 373.71875 733.53125 " fill-opacity="1" fill-rule="nonzero"/><path fill="#e1e886" d="M 456.605469 700.128906 C 456.738281 699.984375 456.972656 699.984375 457.109375 700.128906 L 461.621094 704.636719 C 461.761719 704.769531 461.761719 704.992188 461.621094 705.132812 L 457.109375 709.648438 C 456.972656 709.789062 456.738281 709.789062 456.605469 709.648438 L 452.09375 705.132812 C 451.949219 704.992188 451.949219 704.769531 452.09375 704.636719 L 456.605469 700.128906 " fill-opacity="1" fill-rule="nonzero"/><path fill="#e1e886" d="M 435.882812 700.128906 C 436.023438 699.984375 436.25 699.984375 436.394531 700.128906 L 440.898438 704.636719 C 441.039062 704.769531 441.039062 704.992188 440.898438 705.132812 L 436.394531 709.648438 C 436.25 709.789062 436.023438 709.789062 435.882812 709.648438 L 431.378906 705.132812 C 431.234375 704.992188 431.234375 704.769531 431.378906 704.636719 L 435.882812 700.128906 " fill-opacity="1" fill-rule="nonzero"/><path fill="#e1e886" d="M 415.164062 700.128906 C 415.300781 699.984375 415.527344 699.984375 415.667969 700.128906 L 420.179688 704.636719 C 420.316406 704.769531 420.316406 704.992188 420.179688 705.132812 L 415.667969 709.648438 C 415.527344 709.789062 415.300781 709.789062 415.164062 709.648438 L 410.65625 705.132812 C 410.511719 704.992188 410.511719 704.769531 410.65625 704.636719 L 415.164062 700.128906 " fill-opacity="1" fill-rule="nonzero"/><path fill="#e1e886" d="M 394.441406 700.128906 C 394.585938 699.984375 394.8125 699.984375 394.945312 700.128906 L 399.457031 704.636719 C 399.601562 704.769531 399.601562 704.992188 399.457031 705.132812 L 394.945312 709.648438 C 394.8125 709.789062 394.585938 709.789062 394.441406 709.648438 L 389.929688 705.132812 C 389.789062 704.992188 389.789062 704.769531 389.929688 704.636719 L 394.441406 700.128906 " fill-opacity="1" fill-rule="nonzero"/><path fill="#e1e886" d="M 373.71875 700.128906 C 373.859375 699.984375 374.089844 699.984375 374.230469 700.128906 L 378.734375 704.636719 C 378.875 704.769531 378.875 704.992188 378.734375 705.132812 L 374.230469 709.648438 C 374.089844 709.789062 373.859375 709.789062 373.71875 709.648438 L 369.214844 705.132812 C 369.074219 704.992188 369.074219 704.769531 369.214844 704.636719 L 373.71875 700.128906 " fill-opacity="1" fill-rule="nonzero"/><path fill="#e1e886" d="M 353.003906 700.128906 C 353.136719 699.984375 353.367188 699.984375 353.507812 700.128906 L 358.019531 704.636719 C 358.160156 704.769531 358.160156 704.992188 358.019531 705.132812 L 353.507812 709.648438 C 353.367188 709.789062 353.136719 709.789062 353.003906 709.648438 L 348.492188 705.132812 C 348.351562 704.992188 348.351562 704.769531 348.492188 704.636719 L 353.003906 700.128906 " fill-opacity="1" fill-rule="nonzero"/><path fill="#e1e886" d="M 477.832031 666.722656 C 477.691406 666.582031 477.46875 666.582031 477.320312 666.722656 L 472.816406 671.234375 C 472.675781 671.367188 472.675781 671.585938 472.816406 671.730469 L 477.320312 676.246094 C 477.46875 676.386719 477.691406 676.386719 477.832031 676.246094 L 478.839844 675.230469 C 479.648438 673.492188 480.429688 671.777344 481.199219 670.09375 L 477.832031 666.722656 " fill-opacity="1" fill-rule="nonzero"/><path fill="#e1e886" d="M 456.605469 666.722656 C 456.738281 666.582031 456.972656 666.582031 457.109375 666.722656 L 461.621094 671.234375 C 461.761719 671.367188 461.761719 671.585938 461.621094 671.730469 L 457.109375 676.246094 C 456.972656 676.386719 456.738281 676.386719 456.605469 676.246094 L 452.09375 671.730469 C 451.949219 671.585938 451.949219 671.367188 452.09375 671.234375 L 456.605469 666.722656 " fill-opacity="1" fill-rule="nonzero"/><path fill="#e1e886" d="M 435.882812 666.722656 C 436.023438 666.582031 436.25 666.582031 436.394531 666.722656 L 440.898438 671.234375 C 441.039062 671.367188 441.039062 671.585938 440.898438 671.730469 L 436.394531 676.246094 C 436.25 676.386719 436.023438 676.386719 435.882812 676.246094 L 431.378906 671.730469 C 431.234375 671.585938 431.234375 671.367188 431.378906 671.234375 L 435.882812 666.722656 " fill-opacity="1" fill-rule="nonzero"/><path fill="#e1e886" d="M 415.164062 666.722656 C 415.300781 666.582031 415.527344 666.582031 415.667969 666.722656 L 420.179688 671.234375 C 420.316406 671.367188 420.316406 671.585938 420.179688 671.730469 L 415.667969 676.246094 C 415.527344 676.386719 415.300781 676.386719 415.164062 676.246094 L 410.65625 671.730469 C 410.511719 671.585938 410.511719 671.367188 410.65625 671.234375 L 415.164062 666.722656 " fill-opacity="1" fill-rule="nonzero"/><path fill="#e1e886" d="M 394.441406 666.722656 C 394.585938 666.582031 394.8125 666.582031 394.945312 666.722656 L 399.457031 671.234375 C 399.601562 671.367188 399.601562 671.585938 399.457031 671.730469 L 394.945312 676.246094 C 394.8125 676.386719 394.585938 676.386719 394.441406 676.246094 L 389.929688 671.730469 C 389.789062 671.585938 389.789062 671.367188 389.929688 671.234375 L 394.441406 666.722656 " fill-opacity="1" fill-rule="nonzero"/><path fill="#e1e886" d="M 373.71875 666.722656 C 373.859375 666.582031 374.089844 666.582031 374.230469 666.722656 L 378.734375 671.234375 C 378.875 671.367188 378.875 671.585938 378.734375 671.730469 L 374.230469 676.246094 C 374.089844 676.386719 373.859375 676.386719 373.71875 676.246094 L 369.214844 671.730469 C 369.074219 671.585938 369.074219 671.367188 369.214844 671.234375 L 373.71875 666.722656 " fill-opacity="1" fill-rule="nonzero"/><path fill="#e1e886" d="M 353.003906 666.722656 C 353.136719 666.582031 353.367188 666.582031 353.507812 666.722656 L 358.019531 671.234375 C 358.160156 671.367188 358.160156 671.585938 358.019531 671.730469 L 353.507812 676.246094 C 353.367188 676.386719 353.136719 676.386719 353.003906 676.246094 L 348.492188 671.730469 C 348.351562 671.585938 348.351562 671.367188 348.492188 671.234375 L 353.003906 666.722656 " fill-opacity="1" fill-rule="nonzero"/><path fill="#e1e886" d="M 332.792969 676.246094 L 337.296875 671.730469 C 337.4375 671.585938 337.4375 671.367188 337.296875 671.234375 L 332.792969 666.722656 C 332.652344 666.582031 332.421875 666.582031 332.28125 666.722656 L 328.972656 670.03125 C 329.785156 671.800781 330.613281 673.59375 331.460938 675.425781 L 332.28125 676.246094 C 332.421875 676.386719 332.652344 676.386719 332.792969 676.246094 " fill-opacity="1" fill-rule="nonzero"/><path fill="#e1e886" d="M 493.539062 637.824219 C 493.390625 637.964844 493.390625 638.183594 493.539062 638.328125 L 494.261719 639.050781 C 494.640625 638.003906 494.996094 637.003906 495.300781 636.050781 L 493.539062 637.824219 " fill-opacity="1" fill-rule="nonzero"/><path fill="#e1e886" d="M 477.320312 633.320312 C 477.46875 633.179688 477.691406 633.179688 477.832031 633.320312 L 482.34375 637.824219 C 482.476562 637.964844 482.476562 638.183594 482.34375 638.328125 L 477.832031 642.835938 C 477.691406 642.976562 477.46875 642.976562 477.320312 642.835938 L 472.816406 638.328125 C 472.675781 638.183594 472.675781 637.964844 472.816406 637.824219 L 477.320312 633.320312 " fill-opacity="1" fill-rule="nonzero"/><path fill="#e1e886" d="M 456.605469 633.320312 C 456.738281 633.179688 456.972656 633.179688 457.109375 633.320312 L 461.621094 637.824219 C 461.761719 637.964844 461.761719 638.183594 461.621094 638.328125 L 457.109375 642.835938 C 456.972656 642.976562 456.738281 642.976562 456.605469 642.835938 L 452.09375 638.328125 C 451.949219 638.183594 451.949219 637.964844 452.09375 637.824219 L 456.605469 633.320312 " fill-opacity="1" fill-rule="nonzero"/><path fill="#e1e886" d="M 435.882812 633.320312 C 436.023438 633.179688 436.25 633.179688 436.394531 633.320312 L 440.898438 637.824219 C 441.039062 637.964844 441.039062 638.183594 440.898438 638.328125 L 436.394531 642.835938 C 436.25 642.976562 436.023438 642.976562 435.882812 642.835938 L 431.378906 638.328125 C 431.234375 638.183594 431.234375 637.964844 431.378906 637.824219 L 435.882812 633.320312 " fill-opacity="1" fill-rule="nonzero"/><path fill="#e1e886" d="M 415.164062 633.320312 C 415.300781 633.179688 415.527344 633.179688 415.667969 633.320312 L 420.179688 637.824219 C 420.316406 637.964844 420.316406 638.183594 420.179688 638.328125 L 415.667969 642.835938 C 415.527344 642.976562 415.300781 642.976562 415.164062 642.835938 L 410.65625 638.328125 C 410.511719 638.183594 410.511719 637.964844 410.65625 637.824219 L 415.164062 633.320312 " fill-opacity="1" fill-rule="nonzero"/><path fill="#e1e886" d="M 394.441406 633.320312 C 394.585938 633.179688 394.8125 633.179688 394.945312 633.320312 L 399.457031 637.824219 C 399.601562 637.964844 399.601562 638.183594 399.457031 638.328125 L 394.945312 642.835938 C 394.8125 642.976562 394.585938 642.976562 394.441406 642.835938 L 389.929688 638.328125 C 389.789062 638.183594 389.789062 637.964844 389.929688 637.824219 L 394.441406 633.320312 " fill-opacity="1" fill-rule="nonzero"/><path fill="#e1e886" d="M 373.71875 633.320312 C 373.859375 633.179688 374.089844 633.179688 374.230469 633.320312 L 378.734375 637.824219 C 378.875 637.964844 378.875 638.183594 378.734375 638.328125 L 374.230469 642.835938 C 374.089844 642.976562 373.859375 642.976562 373.71875 642.835938 L 369.214844 638.328125 C 369.074219 638.183594 369.074219 637.964844 369.214844 637.824219 L 373.71875 633.320312 " fill-opacity="1" fill-rule="nonzero"/><path fill="#e1e886" d="M 353.003906 633.320312 C 353.136719 633.179688 353.367188 633.179688 353.507812 633.320312 L 358.019531 637.824219 C 358.160156 637.964844 358.160156 638.183594 358.019531 638.328125 L 353.507812 642.835938 C 353.367188 642.976562 353.136719 642.976562 353.003906 642.835938 L 348.492188 638.328125 C 348.351562 638.183594 348.351562 637.964844 348.492188 637.824219 L 353.003906 633.320312 " fill-opacity="1" fill-rule="nonzero"/><path fill="#e1e886" d="M 332.28125 633.320312 C 332.421875 633.179688 332.652344 633.179688 332.792969 633.320312 L 337.296875 637.824219 C 337.4375 637.964844 337.4375 638.183594 337.296875 638.328125 L 332.792969 642.835938 C 332.652344 642.976562 332.421875 642.976562 332.28125 642.835938 L 327.777344 638.328125 C 327.636719 638.183594 327.636719 637.964844 327.777344 637.824219 L 332.28125 633.320312 " fill-opacity="1" fill-rule="nonzero"/><path fill="#e1e886" d="M 316.582031 638.328125 C 316.714844 638.183594 316.714844 637.964844 316.582031 637.824219 L 314.816406 636.058594 C 315.132812 637.003906 315.480469 638.003906 315.855469 639.042969 L 316.582031 638.328125 " fill-opacity="1" fill-rule="nonzero"/><path fill="#e1e886" d="M 496.042969 601.917969 L 493.539062 604.417969 C 493.390625 604.5625 493.390625 604.78125 493.539062 604.921875 L 496.539062 607.921875 C 496.390625 606.03125 496.222656 604.027344 496.042969 601.917969 " fill-opacity="1" fill-rule="nonzero"/><path fill="#e1e886" d="M 477.320312 599.917969 C 477.46875 599.777344 477.691406 599.777344 477.832031 599.917969 L 482.34375 604.417969 C 482.476562 604.5625 482.476562 604.78125 482.34375 604.921875 L 477.832031 609.433594 C 477.691406 609.574219 477.46875 609.574219 477.320312 609.433594 L 472.816406 604.921875 C 472.675781 604.78125 472.675781 604.5625 472.816406 604.417969 L 477.320312 599.917969 " fill-opacity="1" fill-rule="nonzero"/><path fill="#e1e886" d="M 456.605469 599.917969 C 456.738281 599.777344 456.972656 599.777344 457.109375 599.917969 L 461.621094 604.417969 C 461.761719 604.5625 461.761719 604.78125 461.621094 604.921875 L 457.109375 609.433594 C 456.972656 609.574219 456.738281 609.574219 456.605469 609.433594 L 452.09375 604.921875 C 451.949219 604.78125 451.949219 604.5625 452.09375 604.417969 L 456.605469 599.917969 " fill-opacity="1" fill-rule="nonzero"/><path fill="#e1e886" d="M 435.882812 599.917969 C 436.023438 599.777344 436.25 599.777344 436.394531 599.917969 L 440.898438 604.417969 C 441.039062 604.5625 441.039062 604.78125 440.898438 604.921875 L 436.394531 609.433594 C 436.25 609.574219 436.023438 609.574219 435.882812 609.433594 L 431.378906 604.921875 C 431.234375 604.78125 431.234375 604.5625 431.378906 604.417969 L 435.882812 599.917969 " fill-opacity="1" fill-rule="nonzero"/><path fill="#e1e886" d="M 415.164062 599.917969 C 415.300781 599.777344 415.527344 599.777344 415.667969 599.917969 L 420.179688 604.417969 C 420.316406 604.5625 420.316406 604.78125 420.179688 604.921875 L 415.667969 609.433594 C 415.527344 609.574219 415.300781 609.574219 415.164062 609.433594 L 410.65625 604.921875 C 410.511719 604.78125 410.511719 604.5625 410.65625 604.417969 L 415.164062 599.917969 " fill-opacity="1" fill-rule="nonzero"/><path fill="#e1e886" d="M 394.441406 599.917969 C 394.585938 599.777344 394.8125 599.777344 394.945312 599.917969 L 399.457031 604.417969 C 399.601562 604.5625 399.601562 604.78125 399.457031 604.921875 L 394.945312 609.433594 C 394.8125 609.574219 394.585938 609.574219 394.441406 609.433594 L 389.929688 604.921875 C 389.789062 604.78125 389.789062 604.5625 389.929688 604.417969 L 394.441406 599.917969 " fill-opacity="1" fill-rule="nonzero"/><path fill="#e1e886" d="M 373.71875 599.917969 C 373.859375 599.777344 374.089844 599.777344 374.230469 599.917969 L 378.734375 604.417969 C 378.875 604.5625 378.875 604.78125 378.734375 604.921875 L 374.230469 609.433594 C 374.089844 609.574219 373.859375 609.574219 373.71875 609.433594 L 369.214844 604.921875 C 369.074219 604.78125 369.074219 604.5625 369.214844 604.417969 L 373.71875 599.917969 " fill-opacity="1" fill-rule="nonzero"/><path fill="#e1e886" d="M 353.003906 599.917969 C 353.136719 599.777344 353.367188 599.777344 353.507812 599.917969 L 358.019531 604.417969 C 358.160156 604.5625 358.160156 604.78125 358.019531 604.921875 L 353.507812 609.433594 C 353.367188 609.574219 353.136719 609.574219 353.003906 609.433594 L 348.492188 604.921875 C 348.351562 604.78125 348.351562 604.5625 348.492188 604.417969 L 353.003906 599.917969 " fill-opacity="1" fill-rule="nonzero"/><path fill="#e1e886" d="M 332.28125 599.917969 C 332.421875 599.777344 332.652344 599.777344 332.792969 599.917969 L 337.296875 604.417969 C 337.4375 604.5625 337.4375 604.78125 337.296875 604.921875 L 332.792969 609.433594 C 332.652344 609.574219 332.421875 609.574219 332.28125 609.433594 L 327.777344 604.921875 C 327.636719 604.78125 327.636719 604.5625 327.777344 604.417969 L 332.28125 599.917969 " fill-opacity="1" fill-rule="nonzero"/><path fill="#e1e886" d="M 316.582031 604.921875 C 316.714844 604.78125 316.714844 604.5625 316.582031 604.417969 L 314.070312 601.917969 C 313.886719 604.027344 313.722656 606.03125 313.574219 607.929688 L 316.582031 604.921875 " fill-opacity="1" fill-rule="nonzero"/><path fill="#e1e886" d="M 477.320312 566.515625 C 477.46875 566.375 477.691406 566.375 477.832031 566.515625 L 482.34375 571.015625 C 482.476562 571.160156 482.476562 571.378906 482.34375 571.519531 L 477.832031 576.027344 C 477.691406 576.171875 477.46875 576.171875 477.320312 576.027344 L 472.816406 571.519531 C 472.675781 571.378906 472.675781 571.160156 472.816406 571.015625 L 477.320312 566.515625 " fill-opacity="1" fill-rule="nonzero"/><path fill="#e1e886" d="M 456.605469 566.515625 C 456.738281 566.375 456.972656 566.375 457.109375 566.515625 L 461.621094 571.015625 C 461.761719 571.160156 461.761719 571.378906 461.621094 571.519531 L 457.109375 576.027344 C 456.972656 576.171875 456.738281 576.171875 456.605469 576.027344 L 452.09375 571.519531 C 451.949219 571.378906 451.949219 571.160156 452.09375 571.015625 L 456.605469 566.515625 " fill-opacity="1" fill-rule="nonzero"/><path fill="#e1e886" d="M 435.882812 566.515625 C 436.023438 566.375 436.25 566.375 436.394531 566.515625 L 440.898438 571.015625 C 441.039062 571.160156 441.039062 571.378906 440.898438 571.519531 L 436.394531 576.027344 C 436.25 576.171875 436.023438 576.171875 435.882812 576.027344 L 431.378906 571.519531 C 431.234375 571.378906 431.234375 571.160156 431.378906 571.015625 L 435.882812 566.515625 " fill-opacity="1" fill-rule="nonzero"/><path fill="#e1e886" d="M 415.164062 566.515625 C 415.300781 566.375 415.527344 566.375 415.667969 566.515625 L 420.179688 571.015625 C 420.316406 571.160156 420.316406 571.378906 420.179688 571.519531 L 415.667969 576.027344 C 415.527344 576.171875 415.300781 576.171875 415.164062 576.027344 L 410.65625 571.519531 C 410.511719 571.378906 410.511719 571.160156 410.65625 571.015625 L 415.164062 566.515625 " fill-opacity="1" fill-rule="nonzero"/><path fill="#e1e886" d="M 394.441406 566.515625 C 394.585938 566.375 394.8125 566.375 394.945312 566.515625 L 399.457031 571.015625 C 399.601562 571.160156 399.601562 571.378906 399.457031 571.519531 L 394.945312 576.027344 C 394.8125 576.171875 394.585938 576.171875 394.441406 576.027344 L 389.929688 571.519531 C 389.789062 571.378906 389.789062 571.160156 389.929688 571.015625 L 394.441406 566.515625 " fill-opacity="1" fill-rule="nonzero"/><path fill="#e1e886" d="M 373.71875 566.515625 C 373.859375 566.375 374.089844 566.375 374.230469 566.515625 L 378.734375 571.015625 C 378.875 571.160156 378.875 571.378906 378.734375 571.519531 L 374.230469 576.027344 C 374.089844 576.171875 373.859375 576.171875 373.71875 576.027344 L 369.214844 571.519531 C 369.074219 571.378906 369.074219 571.160156 369.214844 571.015625 L 373.71875 566.515625 " fill-opacity="1" fill-rule="nonzero"/><path fill="#e1e886" d="M 353.003906 566.515625 C 353.136719 566.375 353.367188 566.375 353.507812 566.515625 L 358.019531 571.015625 C 358.160156 571.160156 358.160156 571.378906 358.019531 571.519531 L 353.507812 576.027344 C 353.367188 576.171875 353.136719 576.171875 353.003906 576.027344 L 348.492188 571.519531 C 348.351562 571.378906 348.351562 571.160156 348.492188 571.015625 L 353.003906 566.515625 " fill-opacity="1" fill-rule="nonzero"/><path fill="#e1e886" d="M 332.28125 566.515625 C 332.421875 566.375 332.652344 566.375 332.792969 566.515625 L 337.296875 571.015625 C 337.4375 571.160156 337.4375 571.378906 337.296875 571.519531 L 332.792969 576.027344 C 332.652344 576.171875 332.421875 576.171875 332.28125 576.027344 L 327.777344 571.519531 C 327.636719 571.378906 327.636719 571.160156 327.777344 571.015625 L 332.28125 566.515625 " fill-opacity="1" fill-rule="nonzero"/><path fill="#e1e886" d="M 477.320312 533.113281 C 477.46875 532.972656 477.691406 532.972656 477.832031 533.113281 L 482.34375 537.613281 C 482.476562 537.753906 482.476562 537.976562 482.34375 538.117188 L 477.832031 542.625 C 477.691406 542.769531 477.46875 542.769531 477.320312 542.625 L 472.816406 538.117188 C 472.675781 537.976562 472.675781 537.753906 472.816406 537.613281 L 477.320312 533.113281 " fill-opacity="1" fill-rule="nonzero"/><path fill="#e1e886" d="M 456.605469 533.113281 C 456.738281 532.972656 456.972656 532.972656 457.109375 533.113281 L 461.621094 537.613281 C 461.761719 537.753906 461.761719 537.976562 461.621094 538.117188 L 457.109375 542.625 C 456.972656 542.769531 456.738281 542.769531 456.605469 542.625 L 452.09375 538.117188 C 451.949219 537.976562 451.949219 537.753906 452.09375 537.613281 L 456.605469 533.113281 " fill-opacity="1" fill-rule="nonzero"/><path fill="#e1e886" d="M 435.882812 533.113281 C 436.023438 532.972656 436.25 532.972656 436.394531 533.113281 L 440.898438 537.613281 C 441.039062 537.753906 441.039062 537.976562 440.898438 538.117188 L 436.394531 542.625 C 436.25 542.769531 436.023438 542.769531 435.882812 542.625 L 431.378906 538.117188 C 431.234375 537.976562 431.234375 537.753906 431.378906 537.613281 L 435.882812 533.113281 " fill-opacity="1" fill-rule="nonzero"/><path fill="#e1e886" d="M 415.164062 533.113281 C 415.300781 532.972656 415.527344 532.972656 415.667969 533.113281 L 420.179688 537.613281 C 420.316406 537.753906 420.316406 537.976562 420.179688 538.117188 L 415.667969 542.625 C 415.527344 542.769531 415.300781 542.769531 415.164062 542.625 L 410.65625 538.117188 C 410.511719 537.976562 410.511719 537.753906 410.65625 537.613281 L 415.164062 533.113281 " fill-opacity="1" fill-rule="nonzero"/><path fill="#e1e886" d="M 394.441406 533.113281 C 394.585938 532.972656 394.8125 532.972656 394.945312 533.113281 L 399.457031 537.613281 C 399.601562 537.753906 399.601562 537.976562 399.457031 538.117188 L 394.945312 542.625 C 394.8125 542.769531 394.585938 542.769531 394.441406 542.625 L 389.929688 538.117188 C 389.789062 537.976562 389.789062 537.753906 389.929688 537.613281 L 394.441406 533.113281 " fill-opacity="1" fill-rule="nonzero"/><path fill="#e1e886" d="M 373.71875 533.113281 C 373.859375 532.972656 374.089844 532.972656 374.230469 533.113281 L 378.734375 537.613281 C 378.875 537.753906 378.875 537.976562 378.734375 538.117188 L 374.230469 542.625 C 374.089844 542.769531 373.859375 542.769531 373.71875 542.625 L 369.214844 538.117188 C 369.074219 537.976562 369.074219 537.753906 369.214844 537.613281 L 373.71875 533.113281 " fill-opacity="1" fill-rule="nonzero"/><path fill="#e1e886" d="M 353.003906 533.113281 C 353.136719 532.972656 353.367188 532.972656 353.507812 533.113281 L 358.019531 537.613281 C 358.160156 537.753906 358.160156 537.976562 358.019531 538.117188 L 353.507812 542.625 C 353.367188 542.769531 353.136719 542.769531 353.003906 542.625 L 348.492188 538.117188 C 348.351562 537.976562 348.351562 537.753906 348.492188 537.613281 L 353.003906 533.113281 " fill-opacity="1" fill-rule="nonzero"/><path fill="#e1e886" d="M 332.28125 533.113281 C 332.421875 532.972656 332.652344 532.972656 332.792969 533.113281 L 337.296875 537.613281 C 337.4375 537.753906 337.4375 537.976562 337.296875 538.117188 L 332.792969 542.625 C 332.652344 542.769531 332.421875 542.769531 332.28125 542.625 L 327.777344 538.117188 C 327.636719 537.976562 327.636719 537.753906 327.777344 537.613281 L 332.28125 533.113281 " fill-opacity="1" fill-rule="nonzero"/><path fill="#e1e886" d="M 477.320312 499.703125 C 477.46875 499.570312 477.691406 499.570312 477.832031 499.703125 L 482.34375 504.210938 C 482.476562 504.351562 482.476562 504.574219 482.34375 504.714844 L 477.832031 509.222656 C 477.691406 509.363281 477.46875 509.363281 477.320312 509.222656 L 472.816406 504.714844 C 472.675781 504.574219 472.675781 504.351562 472.816406 504.210938 L 477.320312 499.703125 " fill-opacity="1" fill-rule="nonzero"/><path fill="#e1e886" d="M 456.605469 499.703125 C 456.738281 499.570312 456.972656 499.570312 457.109375 499.703125 L 461.621094 504.210938 C 461.761719 504.351562 461.761719 504.574219 461.621094 504.714844 L 457.109375 509.222656 C 456.972656 509.363281 456.738281 509.363281 456.605469 509.222656 L 452.09375 504.714844 C 451.949219 504.574219 451.949219 504.351562 452.09375 504.210938 L 456.605469 499.703125 " fill-opacity="1" fill-rule="nonzero"/><path fill="#e1e886" d="M 435.882812 499.703125 C 436.023438 499.570312 436.25 499.570312 436.394531 499.703125 L 440.898438 504.210938 C 441.039062 504.351562 441.039062 504.574219 440.898438 504.714844 L 436.394531 509.222656 C 436.25 509.363281 436.023438 509.363281 435.882812 509.222656 L 431.378906 504.714844 C 431.234375 504.574219 431.234375 504.351562 431.378906 504.210938 L 435.882812 499.703125 " fill-opacity="1" fill-rule="nonzero"/><path fill="#e1e886" d="M 415.164062 499.703125 C 415.300781 499.570312 415.527344 499.570312 415.667969 499.703125 L 420.179688 504.210938 C 420.316406 504.351562 420.316406 504.574219 420.179688 504.714844 L 415.667969 509.222656 C 415.527344 509.363281 415.300781 509.363281 415.164062 509.222656 L 410.65625 504.714844 C 410.511719 504.574219 410.511719 504.351562 410.65625 504.210938 L 415.164062 499.703125 " fill-opacity="1" fill-rule="nonzero"/><path fill="#e1e886" d="M 394.441406 499.703125 C 394.585938 499.570312 394.8125 499.570312 394.945312 499.703125 L 399.457031 504.210938 C 399.601562 504.351562 399.601562 504.574219 399.457031 504.714844 L 394.945312 509.222656 C 394.8125 509.363281 394.585938 509.363281 394.441406 509.222656 L 389.929688 504.714844 C 389.789062 504.574219 389.789062 504.351562 389.929688 504.210938 L 394.441406 499.703125 " fill-opacity="1" fill-rule="nonzero"/><path fill="#e1e886" d="M 373.71875 499.703125 C 373.859375 499.570312 374.089844 499.570312 374.230469 499.703125 L 378.734375 504.210938 C 378.875 504.351562 378.875 504.574219 378.734375 504.714844 L 374.230469 509.222656 C 374.089844 509.363281 373.859375 509.363281 373.71875 509.222656 L 369.214844 504.714844 C 369.074219 504.574219 369.074219 504.351562 369.214844 504.210938 L 373.71875 499.703125 " fill-opacity="1" fill-rule="nonzero"/><path fill="#e1e886" d="M 353.003906 499.703125 C 353.136719 499.570312 353.367188 499.570312 353.507812 499.703125 L 358.019531 504.210938 C 358.160156 504.351562 358.160156 504.574219 358.019531 504.714844 L 353.507812 509.222656 C 353.367188 509.363281 353.136719 509.363281 353.003906 509.222656 L 348.492188 504.714844 C 348.351562 504.574219 348.351562 504.351562 348.492188 504.210938 L 353.003906 499.703125 " fill-opacity="1" fill-rule="nonzero"/><path fill="#e1e886" d="M 332.28125 499.703125 C 332.421875 499.570312 332.652344 499.570312 332.792969 499.703125 L 337.296875 504.210938 C 337.4375 504.351562 337.4375 504.574219 337.296875 504.714844 L 332.792969 509.222656 C 332.652344 509.363281 332.421875 509.363281 332.28125 509.222656 L 327.777344 504.714844 C 327.636719 504.574219 327.636719 504.351562 327.777344 504.210938 L 332.28125 499.703125 " fill-opacity="1" fill-rule="nonzero"/><path fill="#e1e886" d="M 481.476562 469.941406 L 477.832031 466.300781 C 477.691406 466.15625 477.46875 466.15625 477.320312 466.300781 L 472.816406 470.808594 C 472.675781 470.949219 472.675781 471.164062 472.816406 471.3125 L 477.320312 475.820312 C 477.46875 475.960938 477.691406 475.960938 477.832031 475.820312 L 481.714844 471.933594 C 481.632812 471.273438 481.554688 470.601562 481.476562 469.941406 " fill-opacity="1" fill-rule="nonzero"/><path fill="#e1e886" d="M 456.605469 466.300781 C 456.738281 466.15625 456.972656 466.15625 457.109375 466.300781 L 461.621094 470.808594 C 461.761719 470.949219 461.761719 471.164062 461.621094 471.3125 L 457.109375 475.820312 C 456.972656 475.960938 456.738281 475.960938 456.605469 475.820312 L 452.09375 471.3125 C 451.949219 471.164062 451.949219 470.949219 452.09375 470.808594 L 456.605469 466.300781 " fill-opacity="1" fill-rule="nonzero"/><path fill="#e1e886" d="M 435.882812 466.300781 C 436.023438 466.15625 436.25 466.15625 436.394531 466.300781 L 440.898438 470.808594 C 441.039062 470.949219 441.039062 471.164062 440.898438 471.3125 L 436.394531 475.820312 C 436.25 475.960938 436.023438 475.960938 435.882812 475.820312 L 431.378906 471.3125 C 431.234375 471.164062 431.234375 470.949219 431.378906 470.808594 L 435.882812 466.300781 " fill-opacity="1" fill-rule="nonzero"/><path fill="#e1e886" d="M 415.164062 466.300781 C 415.300781 466.15625 415.527344 466.15625 415.667969 466.300781 L 420.179688 470.808594 C 420.316406 470.949219 420.316406 471.164062 420.179688 471.3125 L 415.667969 475.820312 C 415.527344 475.960938 415.300781 475.960938 415.164062 475.820312 L 410.65625 471.3125 C 410.511719 471.164062 410.511719 470.949219 410.65625 470.808594 L 415.164062 466.300781 " fill-opacity="1" fill-rule="nonzero"/><path fill="#e1e886" d="M 394.441406 466.300781 C 394.585938 466.15625 394.8125 466.15625 394.945312 466.300781 L 399.457031 470.808594 C 399.601562 470.949219 399.601562 471.164062 399.457031 471.3125 L 394.945312 475.820312 C 394.8125 475.960938 394.585938 475.960938 394.441406 475.820312 L 389.929688 471.3125 C 389.789062 471.164062 389.789062 470.949219 389.929688 470.808594 L 394.441406 466.300781 " fill-opacity="1" fill-rule="nonzero"/><path fill="#e1e886" d="M 373.71875 466.300781 C 373.859375 466.15625 374.089844 466.15625 374.230469 466.300781 L 378.734375 470.808594 C 378.875 470.949219 378.875 471.164062 378.734375 471.3125 L 374.230469 475.820312 C 374.089844 475.960938 373.859375 475.960938 373.71875 475.820312 L 369.214844 471.3125 C 369.074219 471.164062 369.074219 470.949219 369.214844 470.808594 L 373.71875 466.300781 " fill-opacity="1" fill-rule="nonzero"/><path fill="#e1e886" d="M 353.003906 466.300781 C 353.136719 466.15625 353.367188 466.15625 353.507812 466.300781 L 358.019531 470.808594 C 358.160156 470.949219 358.160156 471.164062 358.019531 471.3125 L 353.507812 475.820312 C 353.367188 475.960938 353.136719 475.960938 353.003906 475.820312 L 348.492188 471.3125 C 348.351562 471.164062 348.351562 470.949219 348.492188 470.808594 L 353.003906 466.300781 " fill-opacity="1" fill-rule="nonzero"/><path fill="#e1e886" d="M 332.28125 475.820312 C 332.421875 475.960938 332.652344 475.960938 332.792969 475.820312 L 337.296875 471.3125 C 337.4375 471.164062 337.4375 470.949219 337.296875 470.808594 L 332.792969 466.300781 C 332.652344 466.15625 332.421875 466.15625 332.28125 466.300781 L 328.636719 469.949219 C 328.558594 470.601562 328.46875 471.273438 328.390625 471.925781 L 332.28125 475.820312 " fill-opacity="1" fill-rule="nonzero"/><path fill="#e1e886" d="M 476.996094 433.226562 L 472.816406 437.40625 C 472.675781 437.546875 472.675781 437.757812 472.816406 437.902344 L 477.320312 442.417969 C 477.46875 442.558594 477.691406 442.558594 477.832031 442.417969 L 478.097656 442.148438 C 477.738281 439.183594 477.367188 436.21875 476.996094 433.226562 " fill-opacity="1" fill-rule="nonzero"/><path fill="#e1e886" d="M 456.605469 432.894531 C 456.738281 432.753906 456.972656 432.753906 457.109375 432.894531 L 461.621094 437.40625 C 461.761719 437.546875 461.761719 437.757812 461.621094 437.902344 L 457.109375 442.417969 C 456.972656 442.558594 456.738281 442.558594 456.605469 442.417969 L 452.09375 437.902344 C 451.949219 437.757812 451.949219 437.546875 452.09375 437.40625 L 456.605469 432.894531 " fill-opacity="1" fill-rule="nonzero"/><path fill="#e1e886" d="M 435.882812 432.894531 C 436.023438 432.753906 436.25 432.753906 436.394531 432.894531 L 440.898438 437.40625 C 441.039062 437.546875 441.039062 437.757812 440.898438 437.902344 L 436.394531 442.417969 C 436.25 442.558594 436.023438 442.558594 435.882812 442.417969 L 431.378906 437.902344 C 431.234375 437.757812 431.234375 437.546875 431.378906 437.40625 L 435.882812 432.894531 " fill-opacity="1" fill-rule="nonzero"/><path fill="#e1e886" d="M 415.164062 432.894531 C 415.300781 432.753906 415.527344 432.753906 415.667969 432.894531 L 420.179688 437.40625 C 420.316406 437.546875 420.316406 437.757812 420.179688 437.902344 L 415.667969 442.417969 C 415.527344 442.558594 415.300781 442.558594 415.164062 442.417969 L 410.65625 437.902344 C 410.511719 437.757812 410.511719 437.546875 410.65625 437.40625 L 415.164062 432.894531 " fill-opacity="1" fill-rule="nonzero"/><path fill="#e1e886" d="M 394.441406 432.894531 C 394.585938 432.753906 394.8125 432.753906 394.945312 432.894531 L 399.457031 437.40625 C 399.601562 437.546875 399.601562 437.757812 399.457031 437.902344 L 394.945312 442.417969 C 394.8125 442.558594 394.585938 442.558594 394.441406 442.417969 L 389.929688 437.902344 C 389.789062 437.757812 389.789062 437.546875 389.929688 437.40625 L 394.441406 432.894531 " fill-opacity="1" fill-rule="nonzero"/><path fill="#e1e886" d="M 373.71875 432.894531 C 373.859375 432.753906 374.089844 432.753906 374.230469 432.894531 L 378.734375 437.40625 C 378.875 437.546875 378.875 437.757812 378.734375 437.902344 L 374.230469 442.417969 C 374.089844 442.558594 373.859375 442.558594 373.71875 442.417969 L 369.214844 437.902344 C 369.074219 437.757812 369.074219 437.546875 369.214844 437.40625 L 373.71875 432.894531 " fill-opacity="1" fill-rule="nonzero"/><path fill="#e1e886" d="M 353.003906 432.894531 C 353.136719 432.753906 353.367188 432.753906 353.507812 432.894531 L 358.019531 437.40625 C 358.160156 437.546875 358.160156 437.757812 358.019531 437.902344 L 353.507812 442.417969 C 353.367188 442.558594 353.136719 442.558594 353.003906 442.417969 L 348.492188 437.902344 C 348.351562 437.757812 348.351562 437.546875 348.492188 437.40625 L 353.003906 432.894531 " fill-opacity="1" fill-rule="nonzero"/><path fill="#e1e886" d="M 332.28125 442.417969 C 332.421875 442.558594 332.652344 442.558594 332.792969 442.417969 L 337.296875 437.902344 C 337.4375 437.757812 337.4375 437.546875 337.296875 437.40625 L 333.109375 433.21875 C 332.746094 436.210938 332.375 439.183594 332.011719 442.148438 L 332.28125 442.417969 " fill-opacity="1" fill-rule="nonzero"/><path fill="#e1e886" d="M 473.3125 403.5 L 472.816406 404.003906 C 472.675781 404.144531 472.675781 404.355469 472.816406 404.496094 L 473.53125 405.214844 C 473.460938 404.640625 473.382812 404.074219 473.3125 403.5 " fill-opacity="1" fill-rule="nonzero"/><path fill="#e1e886" d="M 456.605469 399.492188 C 456.738281 399.351562 456.972656 399.351562 457.109375 399.492188 L 461.621094 404.003906 C 461.761719 404.144531 461.761719 404.355469 461.621094 404.496094 L 457.109375 409.015625 C 456.972656 409.15625 456.738281 409.15625 456.605469 409.015625 L 452.09375 404.496094 C 451.949219 404.355469 451.949219 404.144531 452.09375 404.003906 L 456.605469 399.492188 " fill-opacity="1" fill-rule="nonzero"/><path fill="#e1e886" d="M 435.882812 399.492188 C 436.023438 399.351562 436.25 399.351562 436.394531 399.492188 L 440.898438 404.003906 C 441.039062 404.144531 441.039062 404.355469 440.898438 404.496094 L 436.394531 409.015625 C 436.25 409.15625 436.023438 409.15625 435.882812 409.015625 L 431.378906 404.496094 C 431.234375 404.355469 431.234375 404.144531 431.378906 404.003906 L 435.882812 399.492188 " fill-opacity="1" fill-rule="nonzero"/><path fill="#e1e886" d="M 415.164062 399.492188 C 415.300781 399.351562 415.527344 399.351562 415.667969 399.492188 L 420.179688 404.003906 C 420.316406 404.144531 420.316406 404.355469 420.179688 404.496094 L 415.667969 409.015625 C 415.527344 409.15625 415.300781 409.15625 415.164062 409.015625 L 410.65625 404.496094 C 410.511719 404.355469 410.511719 404.144531 410.65625 404.003906 L 415.164062 399.492188 " fill-opacity="1" fill-rule="nonzero"/><path fill="#e1e886" d="M 394.441406 399.492188 C 394.585938 399.351562 394.8125 399.351562 394.945312 399.492188 L 399.457031 404.003906 C 399.601562 404.144531 399.601562 404.355469 399.457031 404.496094 L 394.945312 409.015625 C 394.8125 409.15625 394.585938 409.15625 394.441406 409.015625 L 389.929688 404.496094 C 389.789062 404.355469 389.789062 404.144531 389.929688 404.003906 L 394.441406 399.492188 " fill-opacity="1" fill-rule="nonzero"/><path fill="#e1e886" d="M 373.71875 399.492188 C 373.859375 399.351562 374.089844 399.351562 374.230469 399.492188 L 378.734375 404.003906 C 378.875 404.144531 378.875 404.355469 378.734375 404.496094 L 374.230469 409.015625 C 374.089844 409.15625 373.859375 409.15625 373.71875 409.015625 L 369.214844 404.496094 C 369.074219 404.355469 369.074219 404.144531 369.214844 404.003906 L 373.71875 399.492188 " fill-opacity="1" fill-rule="nonzero"/><path fill="#e1e886" d="M 353.003906 399.492188 C 353.136719 399.351562 353.367188 399.351562 353.507812 399.492188 L 358.019531 404.003906 C 358.160156 404.144531 358.160156 404.355469 358.019531 404.496094 L 353.507812 409.015625 C 353.367188 409.15625 353.136719 409.15625 353.003906 409.015625 L 348.492188 404.496094 C 348.351562 404.355469 348.351562 404.144531 348.492188 404.003906 L 353.003906 399.492188 " fill-opacity="1" fill-rule="nonzero"/><path fill="#e1e886" d="M 337.296875 404.496094 C 337.4375 404.355469 337.4375 404.144531 337.296875 404.003906 L 336.792969 403.5 C 336.722656 404.074219 336.652344 404.648438 336.582031 405.222656 L 337.296875 404.496094 " fill-opacity="1" fill-rule="nonzero"/><path fill="#e1e886" d="M 456.605469 366.089844 C 456.738281 365.949219 456.972656 365.949219 457.109375 366.089844 L 461.621094 370.597656 C 461.761719 370.734375 461.761719 370.953125 461.621094 371.09375 L 457.109375 375.613281 C 456.972656 375.753906 456.738281 375.753906 456.605469 375.613281 L 452.09375 371.09375 C 451.949219 370.953125 451.949219 370.734375 452.09375 370.597656 L 456.605469 366.089844 " fill-opacity="1" fill-rule="nonzero"/><path fill="#e1e886" d="M 435.882812 366.089844 C 436.023438 365.949219 436.25 365.949219 436.394531 366.089844 L 440.898438 370.597656 C 441.039062 370.734375 441.039062 370.953125 440.898438 371.09375 L 436.394531 375.613281 C 436.25 375.753906 436.023438 375.753906 435.882812 375.613281 L 431.378906 371.09375 C 431.234375 370.953125 431.234375 370.734375 431.378906 370.597656 L 435.882812 366.089844 " fill-opacity="1" fill-rule="nonzero"/><path fill="#e1e886" d="M 415.164062 366.089844 C 415.300781 365.949219 415.527344 365.949219 415.667969 366.089844 L 420.179688 370.597656 C 420.316406 370.734375 420.316406 370.953125 420.179688 371.09375 L 415.667969 375.613281 C 415.527344 375.753906 415.300781 375.753906 415.164062 375.613281 L 410.65625 371.09375 C 410.511719 370.953125 410.511719 370.734375 410.65625 370.597656 L 415.164062 366.089844 " fill-opacity="1" fill-rule="nonzero"/><path fill="#e1e886" d="M 394.441406 366.089844 C 394.585938 365.949219 394.8125 365.949219 394.945312 366.089844 L 399.457031 370.597656 C 399.601562 370.734375 399.601562 370.953125 399.457031 371.09375 L 394.945312 375.613281 C 394.8125 375.753906 394.585938 375.753906 394.441406 375.613281 L 389.929688 371.09375 C 389.789062 370.953125 389.789062 370.734375 389.929688 370.597656 L 394.441406 366.089844 " fill-opacity="1" fill-rule="nonzero"/><path fill="#e1e886" d="M 373.71875 366.089844 C 373.859375 365.949219 374.089844 365.949219 374.230469 366.089844 L 378.734375 370.597656 C 378.875 370.734375 378.875 370.953125 378.734375 371.09375 L 374.230469 375.613281 C 374.089844 375.753906 373.859375 375.753906 373.71875 375.613281 L 369.214844 371.09375 C 369.074219 370.953125 369.074219 370.734375 369.214844 370.597656 L 373.71875 366.089844 " fill-opacity="1" fill-rule="nonzero"/><path fill="#e1e886" d="M 353.003906 366.089844 C 353.136719 365.949219 353.367188 365.949219 353.507812 366.089844 L 358.019531 370.597656 C 358.160156 370.734375 358.160156 370.953125 358.019531 371.09375 L 353.507812 375.613281 C 353.367188 375.753906 353.136719 375.753906 353.003906 375.613281 L 348.492188 371.09375 C 348.351562 370.953125 348.351562 370.734375 348.492188 370.597656 L 353.003906 366.089844 " fill-opacity="1" fill-rule="nonzero"/><path fill="#e1e886" d="M 456.605469 332.6875 C 456.738281 332.546875 456.972656 332.546875 457.109375 332.6875 L 461.621094 337.195312 C 461.761719 337.339844 461.761719 337.550781 461.621094 337.691406 L 457.109375 342.207031 C 456.972656 342.351562 456.738281 342.351562 456.605469 342.207031 L 452.09375 337.691406 C 451.949219 337.550781 451.949219 337.339844 452.09375 337.195312 L 456.605469 332.6875 " fill-opacity="1" fill-rule="nonzero"/><path fill="#e1e886" d="M 435.882812 332.6875 C 436.023438 332.546875 436.25 332.546875 436.394531 332.6875 L 440.898438 337.195312 C 441.039062 337.339844 441.039062 337.550781 440.898438 337.691406 L 436.394531 342.207031 C 436.25 342.351562 436.023438 342.351562 435.882812 342.207031 L 431.378906 337.691406 C 431.234375 337.550781 431.234375 337.339844 431.378906 337.195312 L 435.882812 332.6875 " fill-opacity="1" fill-rule="nonzero"/><path fill="#e1e886" d="M 415.164062 332.6875 C 415.300781 332.546875 415.527344 332.546875 415.667969 332.6875 L 420.179688 337.195312 C 420.316406 337.339844 420.316406 337.550781 420.179688 337.691406 L 415.667969 342.207031 C 415.527344 342.351562 415.300781 342.351562 415.164062 342.207031 L 410.65625 337.691406 C 410.511719 337.550781 410.511719 337.339844 410.65625 337.195312 L 415.164062 332.6875 " fill-opacity="1" fill-rule="nonzero"/><path fill="#e1e886" d="M 394.441406 332.6875 C 394.585938 332.546875 394.8125 332.546875 394.945312 332.6875 L 399.457031 337.195312 C 399.601562 337.339844 399.601562 337.550781 399.457031 337.691406 L 394.945312 342.207031 C 394.8125 342.351562 394.585938 342.351562 394.441406 342.207031 L 389.929688 337.691406 C 389.789062 337.550781 389.789062 337.339844 389.929688 337.195312 L 394.441406 332.6875 " fill-opacity="1" fill-rule="nonzero"/><path fill="#e1e886" d="M 373.71875 332.6875 C 373.859375 332.546875 374.089844 332.546875 374.230469 332.6875 L 378.734375 337.195312 C 378.875 337.339844 378.875 337.550781 378.734375 337.691406 L 374.230469 342.207031 C 374.089844 342.351562 373.859375 342.351562 373.71875 342.207031 L 369.214844 337.691406 C 369.074219 337.550781 369.074219 337.339844 369.214844 337.195312 L 373.71875 332.6875 " fill-opacity="1" fill-rule="nonzero"/><path fill="#e1e886" d="M 353.003906 332.6875 C 353.136719 332.546875 353.367188 332.546875 353.507812 332.6875 L 358.019531 337.195312 C 358.160156 337.339844 358.160156 337.550781 358.019531 337.691406 L 353.507812 342.207031 C 353.367188 342.351562 353.136719 342.351562 353.003906 342.207031 L 348.492188 337.691406 C 348.351562 337.550781 348.351562 337.339844 348.492188 337.195312 L 353.003906 332.6875 " fill-opacity="1" fill-rule="nonzero"/><path fill="#e1e886" d="M 460.550781 302.714844 L 457.109375 299.285156 C 456.972656 299.144531 456.738281 299.144531 456.605469 299.285156 L 452.09375 303.792969 C 451.949219 303.925781 451.949219 304.148438 452.09375 304.289062 L 456.605469 308.804688 C 456.738281 308.949219 456.972656 308.949219 457.109375 308.804688 L 460.847656 305.058594 C 460.746094 304.28125 460.644531 303.503906 460.550781 302.714844 " fill-opacity="1" fill-rule="nonzero"/><path fill="#e1e886" d="M 435.882812 299.285156 C 436.023438 299.144531 436.25 299.144531 436.394531 299.285156 L 440.898438 303.792969 C 441.039062 303.925781 441.039062 304.148438 440.898438 304.289062 L 436.394531 308.804688 C 436.25 308.949219 436.023438 308.949219 435.882812 308.804688 L 431.378906 304.289062 C 431.234375 304.148438 431.234375 303.925781 431.378906 303.792969 L 435.882812 299.285156 " fill-opacity="1" fill-rule="nonzero"/><path fill="#e1e886" d="M 415.164062 299.285156 C 415.300781 299.144531 415.527344 299.144531 415.667969 299.285156 L 420.179688 303.792969 C 420.316406 303.925781 420.316406 304.148438 420.179688 304.289062 L 415.667969 308.804688 C 415.527344 308.949219 415.300781 308.949219 415.164062 308.804688 L 410.65625 304.289062 C 410.511719 304.148438 410.511719 303.925781 410.65625 303.792969 L 415.164062 299.285156 " fill-opacity="1" fill-rule="nonzero"/><path fill="#e1e886" d="M 394.441406 299.285156 C 394.585938 299.144531 394.8125 299.144531 394.945312 299.285156 L 399.457031 303.792969 C 399.601562 303.925781 399.601562 304.148438 399.457031 304.289062 L 394.945312 308.804688 C 394.8125 308.949219 394.585938 308.949219 394.441406 308.804688 L 389.929688 304.289062 C 389.789062 304.148438 389.789062 303.925781 389.929688 303.792969 L 394.441406 299.285156 " fill-opacity="1" fill-rule="nonzero"/><path fill="#e1e886" d="M 373.71875 299.285156 C 373.859375 299.144531 374.089844 299.144531 374.230469 299.285156 L 378.734375 303.792969 C 378.875 303.925781 378.875 304.148438 378.734375 304.289062 L 374.230469 308.804688 C 374.089844 308.949219 373.859375 308.949219 373.71875 308.804688 L 369.214844 304.289062 C 369.074219 304.148438 369.074219 303.925781 369.214844 303.792969 L 373.71875 299.285156 " fill-opacity="1" fill-rule="nonzero"/><path fill="#e1e886" d="M 353.003906 308.804688 C 353.136719 308.949219 353.367188 308.949219 353.507812 308.804688 L 358.019531 304.289062 C 358.160156 304.148438 358.160156 303.925781 358.019531 303.792969 L 353.507812 299.285156 C 353.367188 299.144531 353.136719 299.144531 353.003906 299.285156 L 349.5625 302.722656 C 349.460938 303.503906 349.359375 304.28125 349.265625 305.058594 L 353.003906 308.804688 " fill-opacity="1" fill-rule="nonzero"/><path fill="#e1e886" d="M 455.894531 266.589844 L 452.09375 270.382812 C 451.949219 270.523438 451.949219 270.746094 452.09375 270.886719 L 456.605469 275.402344 C 456.722656 275.519531 456.894531 275.511719 457.039062 275.433594 C 456.652344 272.46875 456.273438 269.523438 455.894531 266.589844 " fill-opacity="1" fill-rule="nonzero"/><path fill="#e1e886" d="M 435.882812 265.882812 C 436.023438 265.738281 436.25 265.738281 436.394531 265.882812 L 440.898438 270.382812 C 441.039062 270.523438 441.039062 270.746094 440.898438 270.886719 L 436.394531 275.402344 C 436.25 275.542969 436.023438 275.542969 435.882812 275.402344 L 431.378906 270.886719 C 431.234375 270.746094 431.234375 270.523438 431.378906 270.382812 L 435.882812 265.882812 " fill-opacity="1" fill-rule="nonzero"/><path fill="#e1e886" d="M 415.164062 265.882812 C 415.300781 265.738281 415.527344 265.738281 415.667969 265.882812 L 420.179688 270.382812 C 420.316406 270.523438 420.316406 270.746094 420.179688 270.886719 L 415.667969 275.402344 C 415.527344 275.542969 415.300781 275.542969 415.164062 275.402344 L 410.65625 270.886719 C 410.511719 270.746094 410.511719 270.523438 410.65625 270.382812 L 415.164062 265.882812 " fill-opacity="1" fill-rule="nonzero"/><path fill="#e1e886" d="M 394.441406 265.882812 C 394.585938 265.738281 394.8125 265.738281 394.945312 265.882812 L 399.457031 270.382812 C 399.601562 270.523438 399.601562 270.746094 399.457031 270.886719 L 394.945312 275.402344 C 394.8125 275.542969 394.585938 275.542969 394.441406 275.402344 L 389.929688 270.886719 C 389.789062 270.746094 389.789062 270.523438 389.929688 270.382812 L 394.441406 265.882812 " fill-opacity="1" fill-rule="nonzero"/><path fill="#e1e886" d="M 373.71875 265.882812 C 373.859375 265.738281 374.089844 265.738281 374.230469 265.882812 L 378.734375 270.382812 C 378.875 270.523438 378.875 270.746094 378.734375 270.886719 L 374.230469 275.402344 C 374.089844 275.542969 373.859375 275.542969 373.71875 275.402344 L 369.214844 270.886719 C 369.074219 270.746094 369.074219 270.523438 369.214844 270.382812 L 373.71875 265.882812 " fill-opacity="1" fill-rule="nonzero"/><path fill="#e1e886" d="M 353.507812 275.402344 L 358.019531 270.886719 C 358.160156 270.746094 358.160156 270.523438 358.019531 270.382812 L 354.21875 266.589844 C 353.839844 269.523438 353.460938 272.46875 353.074219 275.433594 C 353.21875 275.511719 353.390625 275.519531 353.507812 275.402344 " fill-opacity="1" fill-rule="nonzero"/><path fill="#e1e886" d="M 452.0625 237.058594 C 451.972656 237.191406 451.972656 237.359375 452.09375 237.484375 L 452.125 237.507812 C 452.101562 237.359375 452.078125 237.207031 452.0625 237.058594 " fill-opacity="1" fill-rule="nonzero"/><path fill="#e1e886" d="M 435.882812 232.480469 C 436.023438 232.335938 436.25 232.335938 436.394531 232.480469 L 440.898438 236.980469 C 441.039062 237.121094 441.039062 237.339844 440.898438 237.484375 L 436.394531 242 C 436.25 242.132812 436.023438 242.132812 435.882812 242 L 431.378906 237.484375 C 431.234375 237.339844 431.234375 237.121094 431.378906 236.980469 L 435.882812 232.480469 " fill-opacity="1" fill-rule="nonzero"/><path fill="#e1e886" d="M 415.164062 232.480469 C 415.300781 232.335938 415.527344 232.335938 415.667969 232.480469 L 420.179688 236.980469 C 420.316406 237.121094 420.316406 237.339844 420.179688 237.484375 L 415.667969 242 C 415.527344 242.132812 415.300781 242.132812 415.164062 242 L 410.65625 237.484375 C 410.511719 237.339844 410.511719 237.121094 410.65625 236.980469 L 415.164062 232.480469 " fill-opacity="1" fill-rule="nonzero"/><path fill="#e1e886" d="M 394.441406 232.480469 C 394.585938 232.335938 394.8125 232.335938 394.945312 232.480469 L 399.457031 236.980469 C 399.601562 237.121094 399.601562 237.339844 399.457031 237.484375 L 394.945312 242 C 394.8125 242.132812 394.585938 242.132812 394.441406 242 L 389.929688 237.484375 C 389.789062 237.339844 389.789062 237.121094 389.929688 236.980469 L 394.441406 232.480469 " fill-opacity="1" fill-rule="nonzero"/><path fill="#e1e886" d="M 373.71875 232.480469 C 373.859375 232.335938 374.089844 232.335938 374.230469 232.480469 L 378.734375 236.980469 C 378.875 237.121094 378.875 237.339844 378.734375 237.484375 L 374.230469 242 C 374.089844 242.132812 373.859375 242.132812 373.71875 242 L 369.214844 237.484375 C 369.074219 237.339844 369.074219 237.121094 369.214844 236.980469 L 373.71875 232.480469 " fill-opacity="1" fill-rule="nonzero"/><path fill="#e1e886" d="M 358.019531 237.484375 C 358.136719 237.359375 358.136719 237.191406 358.050781 237.050781 C 358.027344 237.207031 358.011719 237.359375 357.988281 237.515625 L 358.019531 237.484375 " fill-opacity="1" fill-rule="nonzero"/><path fill="#e1e886" d="M 435.882812 199.074219 C 436.023438 198.933594 436.25 198.933594 436.394531 199.074219 L 440.898438 203.578125 C 441.039062 203.71875 441.039062 203.9375 440.898438 204.082031 L 436.394531 208.597656 C 436.25 208.730469 436.023438 208.730469 435.882812 208.597656 L 431.378906 204.082031 C 431.234375 203.9375 431.234375 203.71875 431.378906 203.578125 L 435.882812 199.074219 " fill-opacity="1" fill-rule="nonzero"/><path fill="#e1e886" d="M 415.164062 199.074219 C 415.300781 198.933594 415.527344 198.933594 415.667969 199.074219 L 420.179688 203.578125 C 420.316406 203.71875 420.316406 203.9375 420.179688 204.082031 L 415.667969 208.597656 C 415.527344 208.730469 415.300781 208.730469 415.164062 208.597656 L 410.65625 204.082031 C 410.511719 203.9375 410.511719 203.71875 410.65625 203.578125 L 415.164062 199.074219 " fill-opacity="1" fill-rule="nonzero"/><path fill="#e1e886" d="M 394.441406 199.074219 C 394.585938 198.933594 394.8125 198.933594 394.945312 199.074219 L 399.457031 203.578125 C 399.601562 203.71875 399.601562 203.9375 399.457031 204.082031 L 394.945312 208.597656 C 394.8125 208.730469 394.585938 208.730469 394.441406 208.597656 L 389.929688 204.082031 C 389.789062 203.9375 389.789062 203.71875 389.929688 203.578125 L 394.441406 199.074219 " fill-opacity="1" fill-rule="nonzero"/><path fill="#e1e886" d="M 373.71875 199.074219 C 373.859375 198.933594 374.089844 198.933594 374.230469 199.074219 L 378.734375 203.578125 C 378.875 203.71875 378.875 203.9375 378.734375 204.082031 L 374.230469 208.597656 C 374.089844 208.730469 373.859375 208.730469 373.71875 208.597656 L 369.214844 204.082031 C 369.074219 203.9375 369.074219 203.71875 369.214844 203.578125 L 373.71875 199.074219 " fill-opacity="1" fill-rule="nonzero"/><path fill="#e1e886" d="M 435.882812 165.671875 C 436.023438 165.53125 436.25 165.53125 436.394531 165.671875 L 440.898438 170.175781 C 441.039062 170.316406 441.039062 170.535156 440.898438 170.675781 L 436.394531 175.195312 C 436.25 175.328125 436.023438 175.328125 435.882812 175.195312 L 431.378906 170.675781 C 431.234375 170.535156 431.234375 170.316406 431.378906 170.175781 L 435.882812 165.671875 " fill-opacity="1" fill-rule="nonzero"/><path fill="#e1e886" d="M 415.164062 165.671875 C 415.300781 165.53125 415.527344 165.53125 415.667969 165.671875 L 420.179688 170.175781 C 420.316406 170.316406 420.316406 170.535156 420.179688 170.675781 L 415.667969 175.195312 C 415.527344 175.328125 415.300781 175.328125 415.164062 175.195312 L 410.65625 170.675781 C 410.511719 170.535156 410.511719 170.316406 410.65625 170.175781 L 415.164062 165.671875 " fill-opacity="1" fill-rule="nonzero"/><path fill="#e1e886" d="M 394.441406 165.671875 C 394.585938 165.53125 394.8125 165.53125 394.945312 165.671875 L 399.457031 170.175781 C 399.601562 170.316406 399.601562 170.535156 399.457031 170.675781 L 394.945312 175.195312 C 394.8125 175.328125 394.585938 175.328125 394.441406 175.195312 L 389.929688 170.675781 C 389.789062 170.535156 389.789062 170.316406 389.929688 170.175781 L 394.441406 165.671875 " fill-opacity="1" fill-rule="nonzero"/><path fill="#e1e886" d="M 373.71875 165.671875 C 373.859375 165.53125 374.089844 165.53125 374.230469 165.671875 L 378.734375 170.175781 C 378.875 170.316406 378.875 170.535156 378.734375 170.675781 L 374.230469 175.195312 C 374.089844 175.328125 373.859375 175.328125 373.71875 175.195312 L 369.214844 170.675781 C 369.074219 170.535156 369.074219 170.316406 369.214844 170.175781 L 373.71875 165.671875 " fill-opacity="1" fill-rule="nonzero"/><path fill="#e1e886" d="M 438.628906 134.503906 L 436.394531 132.269531 C 436.25 132.128906 436.023438 132.128906 435.882812 132.269531 L 431.378906 136.769531 C 431.234375 136.914062 431.234375 137.132812 431.378906 137.273438 L 435.882812 141.792969 C 436.023438 141.925781 436.25 141.925781 436.394531 141.792969 L 439.21875 138.957031 C 439.015625 137.441406 438.824219 135.960938 438.628906 134.503906 " fill-opacity="1" fill-rule="nonzero"/><path fill="#e1e886" d="M 415.164062 132.269531 C 415.300781 132.128906 415.527344 132.128906 415.667969 132.269531 L 420.179688 136.769531 C 420.316406 136.914062 420.316406 137.132812 420.179688 137.273438 L 415.667969 141.792969 C 415.527344 141.925781 415.300781 141.925781 415.164062 141.792969 L 410.65625 137.273438 C 410.511719 137.132812 410.511719 136.914062 410.65625 136.769531 L 415.164062 132.269531 " fill-opacity="1" fill-rule="nonzero"/><path fill="#e1e886" d="M 394.441406 132.269531 C 394.585938 132.128906 394.8125 132.128906 394.945312 132.269531 L 399.457031 136.769531 C 399.601562 136.914062 399.601562 137.132812 399.457031 137.273438 L 394.945312 141.792969 C 394.8125 141.925781 394.585938 141.925781 394.441406 141.792969 L 389.929688 137.273438 C 389.789062 137.132812 389.789062 136.914062 389.929688 136.769531 L 394.441406 132.269531 " fill-opacity="1" fill-rule="nonzero"/><path fill="#e1e886" d="M 373.71875 141.792969 C 373.859375 141.925781 374.089844 141.925781 374.230469 141.792969 L 378.734375 137.273438 C 378.875 137.132812 378.875 136.914062 378.734375 136.769531 L 374.230469 132.269531 C 374.089844 132.128906 373.859375 132.128906 373.71875 132.269531 L 371.476562 134.503906 C 371.285156 135.960938 371.089844 137.441406 370.894531 138.957031 L 373.71875 141.792969 " fill-opacity="1" fill-rule="nonzero"/><path fill="#e1e886" d="M 434.171875 100.574219 L 431.378906 103.367188 C 431.234375 103.511719 431.234375 103.730469 431.378906 103.871094 L 435.085938 107.585938 C 434.730469 104.832031 434.417969 102.480469 434.171875 100.574219 " fill-opacity="1" fill-rule="nonzero"/><path fill="#e1e886" d="M 415.164062 98.859375 C 415.300781 98.726562 415.527344 98.726562 415.667969 98.859375 L 420.179688 103.367188 C 420.316406 103.511719 420.316406 103.730469 420.179688 103.871094 L 415.667969 108.378906 C 415.527344 108.523438 415.300781 108.523438 415.164062 108.378906 L 410.65625 103.871094 C 410.511719 103.730469 410.511719 103.511719 410.65625 103.367188 L 415.164062 98.859375 " fill-opacity="1" fill-rule="nonzero"/><path fill="#e1e886" d="M 394.441406 98.859375 C 394.585938 98.726562 394.8125 98.726562 394.945312 98.859375 L 399.457031 103.367188 C 399.601562 103.511719 399.601562 103.730469 399.457031 103.871094 L 394.945312 108.378906 C 394.8125 108.523438 394.585938 108.523438 394.441406 108.378906 L 389.929688 103.871094 C 389.789062 103.730469 389.789062 103.511719 389.929688 103.367188 L 394.441406 98.859375 " fill-opacity="1" fill-rule="nonzero"/><path fill="#e1e886" d="M 375.019531 107.59375 L 378.734375 103.871094 C 378.875 103.730469 378.875 103.511719 378.734375 103.367188 L 375.941406 100.574219 C 375.695312 102.480469 375.382812 104.832031 375.019531 107.59375 " fill-opacity="1" fill-rule="nonzero"/><path fill="#e1e886" d="M 436.394531 77.984375 C 436.25 77.84375 436.023438 77.84375 435.882812 77.984375 L 431.378906 82.492188 C 431.234375 82.632812 431.234375 82.847656 431.378906 82.988281 L 435.882812 87.503906 C 436.023438 87.644531 436.25 87.644531 436.394531 87.503906 L 438.898438 84.996094 C 439.335938 83.980469 439.777344 82.917969 440.210938 81.808594 L 436.394531 77.984375 " fill-opacity="1" fill-rule="nonzero"/><path fill="#e1e886" d="M 415.164062 77.984375 C 415.300781 77.84375 415.527344 77.84375 415.667969 77.984375 L 420.179688 82.492188 C 420.316406 82.632812 420.316406 82.847656 420.179688 82.988281 L 415.667969 87.503906 C 415.527344 87.644531 415.300781 87.644531 415.164062 87.503906 L 410.65625 82.988281 C 410.511719 82.847656 410.511719 82.632812 410.65625 82.492188 L 415.164062 77.984375 " fill-opacity="1" fill-rule="nonzero"/><path fill="#e1e886" d="M 394.441406 77.984375 C 394.585938 77.84375 394.8125 77.84375 394.945312 77.984375 L 399.457031 82.492188 C 399.601562 82.632812 399.601562 82.847656 399.457031 82.988281 L 394.945312 87.503906 C 394.8125 87.644531 394.585938 87.644531 394.441406 87.503906 L 389.929688 82.988281 C 389.789062 82.847656 389.789062 82.632812 389.929688 82.492188 L 394.441406 77.984375 " fill-opacity="1" fill-rule="nonzero"/><path fill="#e1e886" d="M 374.230469 77.984375 C 374.089844 77.84375 373.859375 77.84375 373.71875 77.984375 L 369.902344 81.808594 C 370.332031 82.917969 370.773438 83.980469 371.214844 84.996094 L 373.71875 87.503906 C 373.859375 87.644531 374.089844 87.644531 374.230469 87.503906 L 378.734375 82.988281 C 378.875 82.847656 378.875 82.632812 378.734375 82.492188 L 374.230469 77.984375 " fill-opacity="1" fill-rule="nonzero"/><path fill="#e1e886" d="M 435.882812 44.582031 C 436.023438 44.4375 436.25 44.4375 436.394531 44.582031 L 440.898438 49.082031 C 441.039062 49.222656 441.039062 49.445312 440.898438 49.585938 L 436.394531 54.101562 C 436.25 54.242188 436.023438 54.242188 435.882812 54.101562 L 431.378906 49.585938 C 431.234375 49.445312 431.234375 49.222656 431.378906 49.082031 L 435.882812 44.582031 " fill-opacity="1" fill-rule="nonzero"/><path fill="#e1e886" d="M 415.164062 44.582031 C 415.300781 44.4375 415.527344 44.4375 415.667969 44.582031 L 420.179688 49.082031 C 420.316406 49.222656 420.316406 49.445312 420.179688 49.585938 L 415.667969 54.101562 C 415.527344 54.242188 415.300781 54.242188 415.164062 54.101562 L 410.65625 49.585938 C 410.511719 49.445312 410.511719 49.222656 410.65625 49.082031 L 415.164062 44.582031 " fill-opacity="1" fill-rule="nonzero"/><path fill="#e1e886" d="M 394.441406 44.582031 C 394.585938 44.4375 394.8125 44.4375 394.945312 44.582031 L 399.457031 49.082031 C 399.601562 49.222656 399.601562 49.445312 399.457031 49.585938 L 394.945312 54.101562 C 394.8125 54.242188 394.585938 54.242188 394.441406 54.101562 L 389.929688 49.585938 C 389.789062 49.445312 389.789062 49.222656 389.929688 49.082031 L 394.441406 44.582031 " fill-opacity="1" fill-rule="nonzero"/><path fill="#e1e886" d="M 373.71875 44.582031 C 373.859375 44.4375 374.089844 44.4375 374.230469 44.582031 L 378.734375 49.082031 C 378.875 49.222656 378.875 49.445312 378.734375 49.585938 L 374.230469 54.101562 C 374.089844 54.242188 373.859375 54.242188 373.71875 54.101562 L 369.214844 49.585938 C 369.074219 49.445312 369.074219 49.222656 369.214844 49.082031 L 373.71875 44.582031 " fill-opacity="1" fill-rule="nonzero"/><path fill="#e1e886" d="M 452.09375 16.183594 L 454.902344 18.992188 C 454.980469 17.527344 455.007812 16.246094 454.949219 15.222656 C 454.910156 14.601562 454.699219 14.011719 454.335938 13.445312 L 452.09375 15.679688 C 451.949219 15.820312 451.949219 16.039062 452.09375 16.183594 " fill-opacity="1" fill-rule="nonzero"/><path fill="#e1e886" d="M 435.882812 11.175781 C 436.023438 11.035156 436.25 11.035156 436.394531 11.175781 L 440.898438 15.679688 C 441.039062 15.820312 441.039062 16.039062 440.898438 16.183594 L 436.394531 20.699219 C 436.25 20.839844 436.023438 20.839844 435.882812 20.699219 L 431.378906 16.183594 C 431.234375 16.039062 431.234375 15.820312 431.378906 15.679688 L 435.882812 11.175781 " fill-opacity="1" fill-rule="nonzero"/><path fill="#e1e886" d="M 415.164062 11.175781 C 415.300781 11.035156 415.527344 11.035156 415.667969 11.175781 L 420.179688 15.679688 C 420.316406 15.820312 420.316406 16.039062 420.179688 16.183594 L 415.667969 20.699219 C 415.527344 20.839844 415.300781 20.839844 415.164062 20.699219 L 410.65625 16.183594 C 410.511719 16.039062 410.511719 15.820312 410.65625 15.679688 L 415.164062 11.175781 " fill-opacity="1" fill-rule="nonzero"/><path fill="#e1e886" d="M 394.441406 11.175781 C 394.585938 11.035156 394.8125 11.035156 394.945312 11.175781 L 399.457031 15.679688 C 399.601562 15.820312 399.601562 16.039062 399.457031 16.183594 L 394.945312 20.699219 C 394.8125 20.839844 394.585938 20.839844 394.441406 20.699219 L 389.929688 16.183594 C 389.789062 16.039062 389.789062 15.820312 389.929688 15.679688 L 394.441406 11.175781 " fill-opacity="1" fill-rule="nonzero"/><path fill="#e1e886" d="M 373.71875 11.175781 C 373.859375 11.035156 374.089844 11.035156 374.230469 11.175781 L 378.734375 15.679688 C 378.875 15.820312 378.875 16.039062 378.734375 16.183594 L 374.230469 20.699219 C 374.089844 20.839844 373.859375 20.839844 373.71875 20.699219 L 369.214844 16.183594 C 369.074219 16.039062 369.074219 15.820312 369.214844 15.679688 L 373.71875 11.175781 " fill-opacity="1" fill-rule="nonzero"/><path fill="#e1e886" d="M 355.777344 13.445312 C 355.414062 14.011719 355.199219 14.601562 355.160156 15.222656 C 355.105469 16.246094 355.128906 17.527344 355.207031 18.992188 L 358.019531 16.183594 C 358.160156 16.039062 358.160156 15.820312 358.019531 15.679688 L 355.777344 13.445312 " fill-opacity="1" fill-rule="nonzero"/></svg>