<svg xmlns="http://www.w3.org/2000/svg" xmlns:xlink="http://www.w3.org/1999/xlink" viewBox="0 -400 810 1209.999993" preserveAspectRatio="xMidYMin" version="1.0"><path fill="#eb9d21" d="M 433.425781 94.648438 C 433.425781 94.625 433.394531 94.609375 433.371094 94.585938 C 432.226562 95.84375 431.109375 96.578125 430.03125 96.625 C 419.371094 97.050781 390.742188 97.050781 380.082031 96.625 C 379.019531 96.578125 377.917969 95.871094 376.789062 94.640625 C 376.757812 94.640625 376.71875 94.640625 376.6875 94.648438 C 376.796875 95.734375 308.320312 604.992188 312.855469 629.089844 C 317.992188 656.363281 397.875 809.792969 405.054688 809.792969 C 412.859375 809.792969 492.113281 656.363281 497.253906 629.089844 C 501.78125 604.992188 433.304688 95.734375 433.425781 94.648438 " fill-opacity="1" fill-rule="nonzero"/><path fill="#eb9d21" d="M 355.160156 15.222656 C 356.011719 0.304688 454.101562 0.304688 454.949219 15.222656 C 455.800781 30.140625 440.691406 96.199219 430.03125 96.625 C 419.371094 97.050781 390.742188 97.050781 380.082031 96.625 C 369.421875 96.199219 354.304688 30.140625 355.160156 15.222656 " fill-opacity="1" fill-rule="nonzero"/><path fill="#fad7a8" d="M 368.941406 153.808594 L 434.441406 102.621094 C 433.769531 97.523438 433.417969 94.726562 433.425781 94.648438 C 433.425781 94.625 433.394531 94.609375 433.371094 94.585938 C 432.226562 95.84375 431.109375 96.578125 430.03125 96.625 C 423.96875 96.867188 412.085938 96.972656 401.007812 96.9375 L 373.609375 118.351562 C 372.359375 127.808594 370.78125 139.800781 368.941406 153.808594 " fill-opacity="1" fill-rule="nonzero"/><path fill="#fad7a8" d="M 355.289062 258.328125 L 445.628906 187.738281 C 444.28125 177.476562 443.015625 167.8125 441.839844 158.890625 L 359.886719 222.925781 C 358.40625 234.304688 356.863281 246.148438 355.289062 258.328125 " fill-opacity="1" fill-rule="nonzero"/><path fill="#fad7a8" d="M 341.925781 362.636719 L 456.714844 272.941406 C 455.4375 263.113281 454.195312 253.464844 452.964844 244.054688 L 346.414062 327.320312 C 344.917969 339.03125 343.414062 350.832031 341.925781 362.636719 " fill-opacity="1" fill-rule="nonzero"/><path fill="#fad7a8" d="M 329.039062 466.566406 L 467.636719 358.269531 C 466.40625 348.605469 465.179688 338.941406 463.957031 329.335938 L 333.335938 431.402344 C 331.863281 443.355469 330.421875 455.109375 329.039062 466.566406 " fill-opacity="1" fill-rule="nonzero"/><path fill="#fad7a8" d="M 317.203125 569.679688 L 478.304688 443.792969 C 477.128906 434.257812 475.933594 424.570312 474.722656 414.78125 L 321.015625 534.890625 C 319.589844 547.449219 318.3125 559.113281 317.203125 569.679688 " fill-opacity="1" fill-rule="nonzero"/><path fill="#fad7a8" d="M 323.753906 658.414062 L 488.507812 529.683594 C 487.445312 520.382812 486.320312 510.632812 485.121094 500.519531 L 314.171875 634.09375 C 316.015625 639.988281 319.375 648.40625 323.753906 658.414062 " fill-opacity="1" fill-rule="nonzero"/><path fill="#fad7a8" d="M 356.617188 726.605469 L 497.152344 616.789062 C 496.71875 609.480469 495.863281 599.335938 494.65625 586.925781 L 345.113281 703.777344 C 348.855469 711.332031 352.722656 719.011719 356.617188 726.605469 " fill-opacity="1" fill-rule="nonzero"/><path fill="#fad7a8" d="M 392.488281 792.4375 L 437.800781 757.027344 C 446.699219 740.46875 456.289062 721.820312 465.132812 703.863281 L 379.90625 770.457031 C 384.53125 778.816406 388.804688 786.296875 392.488281 792.4375 " fill-opacity="1" fill-rule="nonzero"/><path fill="#fad7a8" d="M 450.460938 46.429688 C 452.992188 34.988281 454.683594 24.390625 454.941406 18.117188 L 441.015625 7.234375 C 429.417969 4.632812 412.316406 3.625 396.410156 4.191406 L 450.460938 46.429688 " fill-opacity="1" fill-rule="nonzero"/><path fill="#fad7a8" d="M 357.5 35.839844 C 359.785156 48.308594 363.492188 63.472656 367.609375 75.542969 L 394.9375 96.90625 C 407.457031 97.003906 422.835938 96.90625 430.03125 96.625 C 431.015625 96.585938 432.046875 95.980469 433.085938 94.902344 L 357.5 35.839844 " fill-opacity="1" fill-rule="nonzero"/></svg>