<svg xmlns="http://www.w3.org/2000/svg" xmlns:xlink="http://www.w3.org/1999/xlink" viewBox="0 -400 810 1209.999993" preserveAspectRatio="xMidYMin meet" version="1.0"><path fill="#ddd4dd" d="M 433.425781 94.648438 C 433.425781 94.625 433.394531 94.609375 433.371094 94.585938 C 432.226562 95.84375 431.109375 96.578125 430.03125 96.625 C 419.371094 97.050781 390.742188 97.050781 380.082031 96.625 C 379.019531 96.578125 377.917969 95.871094 376.789062 94.640625 C 376.757812 94.640625 376.71875 94.640625 376.6875 94.648438 C 376.796875 95.734375 308.320312 604.992188 312.855469 629.089844 C 317.992188 656.363281 397.875 809.792969 405.054688 809.792969 C 412.859375 809.792969 492.113281 656.363281 497.253906 629.089844 C 501.78125 604.992188 433.304688 95.734375 433.425781 94.648438 " fill-opacity="1" fill-rule="nonzero"/><path fill="#ddd4dd" d="M 355.160156 15.222656 C 356.011719 0.304688 454.101562 0.304688 454.949219 15.222656 C 455.800781 30.140625 440.691406 96.199219 430.03125 96.625 C 419.371094 97.050781 390.742188 97.050781 380.082031 96.625 C 369.421875 96.199219 354.304688 30.140625 355.160156 15.222656 " fill-opacity="1" fill-rule="nonzero"/><path fill="#df9eb7" d="M 373.578125 118.601562 L 398.246094 96.921875 C 394.914062 96.90625 391.742188 96.875 388.851562 96.835938 L 374.8125 109.175781 C 374.453125 111.953125 374.035156 115.109375 373.578125 118.601562 " fill-opacity="1" fill-rule="nonzero"/><path fill="#df9eb7" d="M 368.359375 158.238281 L 434.148438 100.425781 C 433.667969 96.71875 433.417969 94.710938 433.425781 94.648438 C 433.425781 94.625 433.394531 94.609375 433.371094 94.585938 C 432.226562 95.84375 431.109375 96.578125 430.03125 96.625 C 426.730469 96.75 421.699219 96.84375 416.015625 96.898438 L 371.253906 136.226562 C 370.375 142.910156 369.40625 150.273438 368.359375 158.238281 " fill-opacity="1" fill-rule="nonzero"/><path fill="#df9eb7" d="M 359.695312 224.390625 L 441.054688 152.902344 C 440.714844 150.34375 440.382812 147.851562 440.070312 145.425781 L 360.925781 214.972656 C 360.523438 218.070312 360.105469 221.210938 359.695312 224.390625 " fill-opacity="1" fill-rule="nonzero"/><path fill="#df9eb7" d="M 354.5625 263.953125 L 445.179688 184.328125 C 444.382812 178.277344 443.621094 172.457031 442.886719 166.878906 L 357.40625 241.984375 C 356.476562 249.175781 355.523438 256.503906 354.5625 263.953125 " fill-opacity="1" fill-rule="nonzero"/><path fill="#df9eb7" d="M 346.074219 329.949219 L 452.039062 236.847656 C 451.707031 234.335938 451.382812 231.839844 451.0625 229.363281 L 347.28125 320.554688 C 346.878906 323.6875 346.476562 326.808594 346.074219 329.949219 " fill-opacity="1" fill-rule="nonzero"/><path fill="#df9eb7" d="M 341.074219 369.394531 L 456.117188 268.3125 C 455.351562 262.410156 454.597656 256.582031 453.855469 250.835938 L 343.847656 347.496094 C 342.917969 354.789062 341.996094 362.101562 341.074219 369.394531 " fill-opacity="1" fill-rule="nonzero"/><path fill="#df9eb7" d="M 332.871094 435.148438 L 462.878906 320.914062 C 462.554688 318.40625 462.242188 315.910156 461.917969 313.417969 L 334.027344 425.789062 C 333.644531 428.921875 333.257812 432.046875 332.871094 435.148438 " fill-opacity="1" fill-rule="nonzero"/><path fill="#df9eb7" d="M 328.101562 474.386719 L 466.894531 352.4375 C 466.15625 346.589844 465.40625 340.753906 464.667969 334.929688 L 330.738281 452.617188 C 329.832031 459.980469 328.957031 467.25 328.101562 474.386719 " fill-opacity="1" fill-rule="nonzero"/><path fill="#df9eb7" d="M 320.480469 539.636719 L 473.523438 405.160156 C 473.210938 402.65625 472.894531 400.148438 472.585938 397.636719 L 321.527344 530.367188 C 321.171875 533.515625 320.816406 536.597656 320.480469 539.636719 " fill-opacity="1" fill-rule="nonzero"/><path fill="#df9eb7" d="M 316.304688 578.34375 L 477.4375 436.769531 C 476.722656 430.960938 475.996094 425.097656 475.273438 419.203125 L 318.574219 556.890625 C 317.738281 564.515625 316.984375 571.703125 316.304688 578.34375 " fill-opacity="1" fill-rule="nonzero"/><path fill="#df9eb7" d="M 315.375 637.703125 L 483.839844 489.683594 C 483.546875 487.191406 483.242188 484.664062 482.941406 482.132812 L 313.335938 631.15625 C 313.800781 632.992188 314.488281 635.179688 315.375 637.703125 " fill-opacity="1" fill-rule="nonzero"/><path fill="#df9eb7" d="M 325.980469 663.433594 L 487.5625 521.460938 C 486.902344 515.722656 486.214844 509.828125 485.507812 503.800781 L 319.878906 649.335938 C 321.660156 653.632812 323.714844 658.367188 325.980469 663.433594 " fill-opacity="1" fill-rule="nonzero"/><path fill="#df9eb7" d="M 345.59375 704.746094 L 493.445312 574.839844 C 493.191406 572.363281 492.925781 569.8125 492.640625 567.199219 L 342.730469 698.929688 C 343.675781 700.859375 344.632812 702.804688 345.59375 704.746094 " fill-opacity="1" fill-rule="nonzero"/><path fill="#df9eb7" d="M 357.863281 729.023438 L 496.476562 607.222656 C 496.058594 601.980469 495.523438 595.9375 494.871094 589.171875 L 351.011719 715.574219 C 353.273438 720.066406 355.5625 724.558594 357.863281 729.023438 " fill-opacity="1" fill-rule="nonzero"/><path fill="#df9eb7" d="M 379.066406 768.933594 L 474.019531 685.5 C 476.335938 680.628906 478.546875 675.890625 480.625 671.351562 L 375.980469 763.304688 C 377.027344 765.21875 378.050781 767.089844 379.066406 768.933594 " fill-opacity="1" fill-rule="nonzero"/><path fill="#df9eb7" d="M 392.394531 792.269531 L 442.472656 748.277344 C 448.496094 736.882812 454.714844 724.78125 460.707031 712.78125 L 384.90625 779.390625 C 387.59375 784.125 390.105469 788.445312 392.394531 792.269531 " fill-opacity="1" fill-rule="nonzero"/><path fill="#df9eb7" d="M 430.785156 5.503906 L 454.179688 26.066406 C 454.574219 23.113281 454.832031 20.511719 454.933594 18.378906 L 442.707031 7.636719 C 439.242188 6.769531 435.195312 6.054688 430.785156 5.503906 " fill-opacity="1" fill-rule="nonzero"/><path fill="#df9eb7" d="M 448.234375 55.886719 C 449.621094 50.371094 450.863281 44.832031 451.886719 39.632812 L 411.472656 4.121094 C 404.214844 3.929688 396.78125 4.0625 389.78125 4.519531 L 448.234375 55.886719 " fill-opacity="1" fill-rule="nonzero"/><path fill="#df9eb7" d="M 355.777344 24.847656 C 356.128906 27.734375 356.632812 30.992188 357.257812 34.492188 L 428.046875 96.6875 C 428.753906 96.671875 429.433594 96.648438 430.03125 96.625 C 431.339844 96.570312 432.722656 95.515625 434.132812 93.699219 L 355.777344 24.847656 " fill-opacity="1" fill-rule="nonzero"/><path fill="#df9eb7" d="M 361.320312 53.644531 C 363.609375 63.015625 366.351562 72.421875 369.214844 80.046875 L 388.308594 96.828125 C 394.789062 96.929688 402.9375 96.964844 410.582031 96.929688 L 361.320312 53.644531 " fill-opacity="1" fill-rule="nonzero"/></svg>