<svg xmlns="http://www.w3.org/2000/svg" xmlns:xlink="http://www.w3.org/1999/xlink" viewBox="0 0 810 809.999993" preserveAspectRatio="xMidYMin" version="1.0"><defs><clipPath id="2616eb3adf"><path d="M 5 150.863281 L 417 150.863281 L 417 659.363281 L 5 659.363281 Z M 5 150.863281 " clip-rule="nonzero"/></clipPath><clipPath id="a338739677"><path d="M 405 150.863281 L 809.039062 150.863281 L 809.039062 659.363281 L 405 659.363281 Z M 405 150.863281 " clip-rule="nonzero"/></clipPath></defs><g clip-path="url(#2616eb3adf)"><path fill="#ae0007" d="M 269.109375 228.542969 C 221.882812 196.203125 147.832031 139.933594 90.695312 152.730469 C 132.507812 151.800781 169.03125 178.695312 202.53125 201.269531 C 239.878906 226.4375 275.269531 254.808594 307.308594 286.804688 C 328.90625 308.363281 362.832031 341.972656 370.332031 373.097656 C 370.332031 373.097656 350.535156 446.109375 350.535156 446.109375 C 289.921875 514.101562 223.578125 582.117188 138.710938 607.148438 C 92.015625 620.914062 34.585938 614.71875 13.367188 556.058594 C 10.386719 547.851562 7.96875 539.164062 5.988281 530.144531 C 8.550781 551.789062 12.664062 572.628906 19.308594 591.296875 C 42.226562 655.621094 103.828125 670.199219 163.265625 652.378906 C 255.445312 624.753906 326.074219 550.234375 390.214844 476.957031 L 416.800781 361.648438 C 373.519531 310.925781 323.777344 265.992188 269.109375 228.542969 " fill-opacity="1" fill-rule="nonzero"/></g><path fill="#da1920" d="M 148.464844 613.199219 C 233.335938 588.175781 302.691406 549.824219 392.546875 426.851562 C 392.546875 426.851562 382.6875 384.375 382.6875 384.375 C 375.175781 353.25 337.507812 304.988281 315.910156 283.425781 C 283.871094 251.429688 248.476562 223.058594 211.128906 197.894531 C 177.632812 175.316406 132.507812 151.800781 90.695312 152.730469 C 69.515625 157.484375 50.65625 171.691406 36.359375 200.167969 C 6.40625 259.808594 1.332031 338.347656 1.730469 404.019531 C 1.96875 442.511719 1 487.882812 5.988281 530.144531 C 7.96875 539.164062 10.386719 547.851562 13.367188 556.058594 C 34.585938 614.71875 101.769531 626.964844 148.464844 613.199219 " fill-opacity="1" fill-rule="nonzero"/><path fill="#ae0007" d="M 154.277344 315.933594 C 159.179688 311.769531 174.691406 314.273438 178.722656 314.238281 C 189.910156 314.121094 201.078125 315.003906 212.171875 316.429688 C 221.484375 317.859375 230.652344 319.84375 239.6875 322.375 C 248.769531 324.726562 257.597656 327.972656 266.027344 332.476562 C 282.914062 341.453125 298.027344 355.007812 314.5625 364.21875 C 332.910156 374.433594 372.3125 384.648438 363.855469 413.695312 C 357.949219 433.964844 336.21875 449.496094 319.304688 459.671875 C 302.054688 470.058594 284.496094 478.597656 266.160156 484.144531 C 247.785156 489.496094 229.039062 492.875 210.011719 494.269531 C 201.535156 494.882812 192.894531 494.570312 184.402344 494.324219 C 176.671875 494.117188 159.597656 497.539062 153.578125 491.097656 C 146.230469 483.246094 192.082031 462.851562 196.953125 460.335938 C 226.289062 445.207031 257.226562 432.695312 289.664062 426.757812 C 301.972656 424.507812 314.894531 425.269531 327.324219 423.464844 C 336.085938 422.203125 348.210938 420.109375 355.066406 413.953125 C 364.84375 405.175781 351.671875 394.023438 343.707031 389.933594 C 335.925781 385.949219 317.21875 381.128906 308.597656 378.238281 C 291.277344 372.355469 271.660156 372.972656 253.644531 369.679688 C 244.589844 368.078125 235.894531 365.429688 227.390625 362.046875 C 218.820312 358.847656 210.359375 355.261719 201.980469 351.257812 C 185.984375 343.605469 165.664062 339.894531 154.828125 324.242188 C 153.738281 322.667969 152.722656 320.886719 152.789062 318.960938 C 152.835938 317.679688 153.378906 316.695312 154.277344 315.933594 " fill-opacity="1" fill-rule="nonzero"/><g clip-path="url(#a338739677)"><path fill="#ae0007" d="M 773.519531 200.167969 C 741.019531 137.042969 685.5625 143.898438 632.066406 169.066406 C 652.042969 162.464844 671.460938 159.644531 688.445312 163.761719 C 707.066406 168.277344 721.648438 180.667969 733.023438 201.648438 C 763.652344 258.128906 766.761719 333.691406 766.429688 385.617188 L 766.371094 404.285156 C 766.332031 454.777344 766.277344 511.996094 749.503906 555.582031 C 727.480469 612.933594 667.785156 618.96875 619.316406 605.527344 C 534.085938 581.867188 466.84375 518.902344 405.566406 454.664062 L 410.835938 476.964844 C 476.582031 550.242188 548.972656 624.765625 643.445312 652.386719 C 704.371094 670.199219 767.507812 655.628906 790.996094 591.308594 C 811.113281 536.183594 808.648438 462.242188 809.007812 404.027344 C 809.417969 338.359375 804.222656 259.808594 773.519531 200.167969 " fill-opacity="1" fill-rule="nonzero"/></g><path fill="#da1920" d="M 619.316406 605.527344 C 667.785156 618.96875 727.480469 612.933594 749.503906 555.582031 C 766.277344 511.996094 766.332031 454.777344 766.371094 404.285156 L 766.429688 385.617188 C 766.761719 333.691406 763.652344 258.128906 733.023438 201.648438 C 721.648438 180.667969 707.066406 168.277344 688.445312 163.761719 C 671.460938 159.644531 652.042969 162.464844 632.066406 169.066406 C 596.359375 185.863281 561.523438 210.804688 534.96875 228.550781 C 478.933594 265.992188 427.949219 310.925781 383.585938 361.65625 L 405.566406 454.664062 C 466.84375 518.902344 534.085938 581.867188 619.316406 605.527344 " fill-opacity="1" fill-rule="nonzero"/><path fill="#ae0007" d="M 634.191406 318.371094 C 629.175781 314.21875 613.265625 316.722656 609.132812 316.683594 C 597.667969 316.570312 586.222656 317.453125 574.855469 318.875 C 565.308594 320.308594 555.914062 322.289062 546.660156 324.824219 C 537.347656 327.175781 528.292969 330.417969 519.664062 334.925781 C 502.351562 343.898438 486.847656 357.453125 469.90625 366.664062 C 451.113281 376.878906 410.714844 387.097656 419.390625 416.144531 C 425.449219 436.414062 447.710938 451.941406 465.050781 462.121094 C 482.726562 472.496094 500.730469 481.042969 519.523438 486.59375 C 538.363281 491.945312 557.5625 495.320312 577.074219 496.714844 C 585.757812 497.332031 594.617188 497.007812 603.320312 496.773438 C 612.59375 496.523438 621.609375 497.664062 630.769531 495.5 C 632.457031 495.101562 634.21875 494.570312 635.339844 493.253906 C 640.886719 486.699219 616.8125 476.871094 612.859375 474.671875 C 576.203125 454.304688 536.957031 436.621094 495.429688 429.214844 C 482.820312 426.957031 469.566406 427.714844 456.839844 425.914062 C 447.851562 424.652344 435.429688 422.554688 428.394531 416.398438 C 418.375 407.625 431.875 396.46875 440.039062 392.378906 C 448.023438 388.398438 467.195312 383.578125 476.023438 380.683594 C 493.78125 374.804688 513.882812 375.421875 532.351562 372.128906 C 541.625 370.515625 550.546875 367.878906 559.257812 364.492188 C 568.039062 361.285156 576.714844 357.710938 585.296875 353.699219 C 601.699219 346.050781 622.527344 342.34375 633.632812 326.691406 C 634.75 325.117188 635.785156 323.332031 635.71875 321.398438 C 635.671875 320.128906 635.109375 319.140625 634.191406 318.371094 " fill-opacity="1" fill-rule="nonzero"/><path fill="#ae0007" d="M 394.007812 326.484375 C 386.6875 326.484375 379 326.851562 372.257812 329.972656 C 366.957031 332.429688 362.59375 336.433594 359.390625 341.289062 C 357.445312 344.238281 355.921875 347.457031 354.6875 350.765625 C 351.964844 358.109375 350.695312 364.300781 350.695312 370.242188 L 350.695312 420.050781 C 350.695312 422.441406 350.609375 424.871094 350.523438 427.449219 C 350.316406 433.492188 350.109375 439.753906 350.980469 445.945312 C 351.464844 449.332031 352.476562 452.433594 353.929688 455.242188 C 359.675781 471.046875 377.167969 482.324219 395.742188 482.324219 C 418.601562 482.324219 437.300781 464.71875 437.300781 443.207031 L 437.300781 367.074219 C 437.300781 345.558594 416.867188 326.484375 394.007812 326.484375 " fill-opacity="1" fill-rule="nonzero"/><path fill="#da1920" d="M 387.589844 464.777344 C 413.777344 464.519531 423.085938 449.742188 423.085938 431.359375 C 423.085938 431.359375 423.085938 366.425781 423.085938 366.332031 C 423.085938 351.574219 418.6875 337.269531 398.074219 334.6875 C 381.863281 332.667969 368.636719 334.101562 361.515625 353.300781 C 359.503906 358.734375 357.976562 364.433594 357.976562 370.242188 C 357.976562 379.441406 357.976562 388.644531 357.976562 397.855469 C 357.976562 405.253906 357.976562 412.652344 357.976562 420.050781 C 357.976562 428.207031 357.058594 436.886719 358.195312 444.921875 C 360.292969 459.71875 374.199219 464.910156 387.589844 464.777344 " fill-opacity="1" fill-rule="nonzero"/></svg>