<svg xmlns="http://www.w3.org/2000/svg" xmlns:xlink="http://www.w3.org/1999/xlink" width="100%" height="100%" viewBox="-100 0 1010 659.999993" preserveAspectRatio="xMidYMax meet" version="1.0"><defs><clipPath id="9113daf827"><path d="M 0.410156 165.542969 L 809.621094 165.542969 L 809.621094 644.777344 L 0.410156 644.777344 Z M 0.410156 165.542969 " clip-rule="nonzero"/></clipPath></defs><g clip-path="url(#9113daf827)"><path fill="#40cc4d" d="M 718.9375 415.53125 C 718.9375 415.53125 705.191406 367.703125 662.113281 313.847656 C 678.480469 294.757812 686.722656 268.539062 682.484375 241.289062 C 674.921875 192.65625 630.503906 159.199219 583.273438 166.554688 C 549.023438 171.886719 522.800781 197.246094 513.796875 229.308594 C 463.472656 221.351562 415.640625 226.011719 386.445312 230.726562 C 381.414062 221.761719 368.640625 216.59375 354.734375 218.757812 C 340.828125 220.925781 330.226562 229.738281 328.15625 239.804688 C 296.847656 244.496094 245.226562 255.757812 196.824219 282.214844 C 178.984375 252.421875 145.03125 234.804688 109.464844 240.34375 C 62.234375 247.699219 30.078125 293.085938 37.640625 341.71875 C 42.464844 372.730469 62.304688 397.511719 88.273438 409.535156 C 74.222656 448.941406 69.492188 487.351562 67.917969 510.199219 L 0.410156 588.808594 C 0.410156 588.808594 23.339844 685.972656 419.59375 624.257812 C 815.847656 562.546875 809.613281 472.222656 809.613281 472.222656 L 718.9375 415.53125 " fill-opacity="1" fill-rule="nonzero"/></g><path fill="#ffffff" d="M 539.246094 263.597656 C 534.140625 230.773438 555.847656 200.144531 587.722656 195.179688 C 619.597656 190.214844 649.578125 212.796875 654.683594 245.621094 C 659.785156 278.441406 638.085938 309.074219 606.207031 314.039062 C 574.328125 319.003906 544.351562 296.417969 539.246094 263.597656 " fill-opacity="1" fill-rule="nonzero"/><path fill="#ffffff" d="M 65.441406 337.386719 C 60.335938 304.566406 82.042969 273.933594 113.917969 268.96875 C 145.792969 264.003906 175.773438 286.585938 180.878906 319.410156 C 185.980469 352.230469 164.28125 382.863281 132.402344 387.828125 C 100.523438 392.792969 70.546875 370.210938 65.441406 337.386719 " fill-opacity="1" fill-rule="nonzero"/><path fill="#49494b" d="M 83.816406 334.527344 C 80.339844 312.15625 95.132812 291.273438 116.859375 287.886719 C 138.589844 284.503906 159.023438 299.898438 162.5 322.273438 C 165.980469 344.644531 151.191406 365.523438 129.460938 368.90625 C 107.730469 372.289062 87.296875 356.898438 83.816406 334.527344 " fill-opacity="1" fill-rule="nonzero"/><path fill="#49494b" d="M 557.621094 260.734375 C 554.144531 238.363281 568.9375 217.484375 590.664062 214.097656 C 612.394531 210.714844 632.828125 226.109375 636.304688 248.480469 C 639.785156 270.851562 624.992188 291.730469 603.265625 295.117188 C 581.535156 298.5 561.101562 283.105469 557.621094 260.734375 " fill-opacity="1" fill-rule="nonzero"/><path fill="#3ab54a" d="M 239.335938 548.457031 C 146.421875 548.457031 94.429688 531.363281 93.355469 530.996094 C 90.921875 530.15625 89.625 527.503906 90.457031 525.066406 C 91.289062 522.628906 93.941406 521.347656 96.378906 522.164062 C 98.617188 522.933594 324.394531 596.816406 682.140625 430.578125 C 684.484375 429.488281 687.25 430.511719 688.332031 432.847656 C 689.417969 435.1875 688.402344 437.960938 686.066406 439.042969 C 495.945312 527.390625 342.445312 548.457031 239.335938 548.457031 " fill-opacity="1" fill-rule="nonzero"/><path fill="#49494b" d="M 317.832031 450.578125 C 260.328125 450.578125 226.621094 433.273438 224.054688 431.90625 C 221.78125 430.695312 220.917969 427.875 222.125 425.597656 C 223.332031 423.328125 226.148438 422.46875 228.425781 423.664062 C 229.578125 424.277344 345.0625 483.101562 517.90625 377.996094 C 520.109375 376.65625 522.980469 377.363281 524.3125 379.558594 C 525.652344 381.765625 524.949219 384.632812 522.75 385.972656 C 439.066406 436.855469 369.019531 450.578125 317.832031 450.578125 " fill-opacity="1" fill-rule="nonzero"/></svg>