<?xml version="1.0" encoding="utf-8"?>
<!-- Generator: Adobe Illustrator 27.5.0, SVG Export Plug-In . SVG Version: 6.00 Build 0)  -->
<svg version="1.1" xmlns="http://www.w3.org/2000/svg"
	width='100%'
    height='100%'
	viewBox="7 5 254 140" 
    preserveAspectRatio="xMidYMax meet"
>
<g>
	<g>
		<path fill="#5E2C00" d="M256.216,89.658c-6.201-9.045-18.381-14.044-28.236-17.777c-9.793-3.702-20.067-6.286-30.459-7.762
			c-3.023-8.108-5.458-16.421-8.482-24.531c-3.122-8.357-5.599-17.711-11.659-24.473c-5.698-6.351-13.824-8.35-22.105-7.846
			c-3.141,0.19-6.244,0.767-9.37,1.126c-3.388,0.377-6.822,0.471-10.204,0.425c-2.896-0.038-5.903-0.715-8.785-1.025
			c-2.514-0.271-5.037-0.492-7.566-0.532c-4.674-0.074-9.672,0.252-13.889,2.444c-2.518,1.311-5.061,3.294-6.961,5.408
			c-6.063,6.762-8.536,16.115-11.658,24.473c-3.111,8.331-5.595,16.876-8.736,25.188c-5.414,0.322-10.743,1.85-15.916,3.496
			c-8.218,2.612-16.268,5.491-24.063,9.187c-9.646,4.575-26.401,12.476-28.893,24.428c-2.849,13.653,16.974,22.494,27.003,26.465
			c17.25,6.827,35.972,9.559,54.264,12.106c36.887,5.147,74.258,4.776,110.843-2.327c15.513-3.018,32.681-7.288,45.611-16.819
			C256.704,114.124,263.797,100.721,256.216,89.658z"/>
		<path fill="#C7522D" d="M77.294,70.18c1.353,8.764,16.769,11.593,23.849,13.51c6.829,1.85,13.614,2.392,20.627,2.954
			c6.421,0.512,13.124,1.545,19.567,1.126c6.371-0.417,12.712-0.502,19.078-1.055c6.768-0.59,13.526-1.833,20.059-3.69
			c5.455-1.551,10.538-3.412,14.986-7.047c0.502-0.405,2.659-2.396,3.715-4.187c1.413,3.779,2.59,8.182,0.919,10.704
			c-2.616,3.953-6.197,6.432-10.48,8.362c-7.608,3.433-16.085,4.467-24.369,5.541c-5.205,1.262-22.51,2.004-27.954,1.79
			c-8.842-0.345-17.385-0.207-27.289-1.872c-8.064-1.107-15.933-3.324-23.35-6.672c-0.846-0.382-1.654-0.794-2.446-1.227
			c-3.979-1.634-8.141-4.191-9.139-8.481c-0.364-1.565-0.002-3.233,0.541-4.864C76.006,73.412,76.651,71.728,77.294,70.18z"/>
		<path fill="#CC813D" d="M199.175,71.791c-1.056,1.791-3.213,3.781-3.715,4.187c-4.448,3.635-9.531,5.496-14.986,7.047
			c-1.163,0.331-2.342,0.62-3.518,0.908c0.865,3.392,1.536,6.83,2.008,10.299c3.658-0.797,7.241-1.838,10.649-3.374
			c4.283-1.931,7.864-4.409,10.48-8.362C201.765,79.973,200.588,75.57,199.175,71.791z"/>
		<path fill="#CC813D" d="M80.539,61.995c4.744-12.73,8.624-25.771,13.844-38.345c5.365-12.923,17.555-15.894,30.144-14.491
			c4.53,0.499,8.971,0.906,13.413,0.664c4.439,0.242,8.882-0.165,13.412-0.664c12.589-1.402,24.78,1.568,30.144,14.491
			c5.488,13.212,9.48,26.941,14.563,40.28c-0.008,0-0.016-0.002-0.023-0.002c0.389,0.949,0.764,1.903,1.112,2.862
			c0.006,0.004,0.008,0.009,0.01,0.011c0.276,0.702,0.643,1.556,1.034,2.507c0.983,2.482-4.456,6.764-5.317,7.336
			c-2.658,1.76-5.487,2.923-8.515,3.885c-5.246,1.655-10.634,2.838-16.058,3.739c-10.583,1.755-21.537,2.134-32.237,1.755
			c-10.875-0.383-22.16-0.978-32.751-3.566C97.352,81,91.44,79.364,85.848,76.811c-2.146-0.979-4.049-2.199-5.746-3.834
			c-1.489-1.439-2.023-2.996-2.118-4.729C78.688,66.104,79.459,63.992,80.539,61.995z"/>
		<path fill="#CC813D" d="M80.539,61.995c4.744-12.73,8.624-25.771,13.844-38.345c5.365-12.923,17.555-15.894,30.144-14.491
			c4.53,0.499,8.971,0.906,13.413,0.664c4.439,0.242,8.882-0.165,13.412-0.664c12.589-1.402,24.78,1.568,30.144,14.491
			c5.488,13.212,9.48,26.941,14.563,40.28c-0.008,0-0.016-0.002-0.023-0.002c0.389,0.949,0.764,1.903,1.112,2.862
			c0.006,0.004,0.008,0.009,0.01,0.011c0.276,0.702,0.643,1.556,1.034,2.507c0.983,2.482-4.456,6.764-5.317,7.336
			c-2.658,1.76-5.487,2.923-8.515,3.885c-5.246,1.655-10.634,2.838-16.058,3.739c-10.583,1.755-21.537,2.134-32.237,1.755
			c-10.875-0.383-22.16-0.978-32.751-3.566C97.352,81,91.44,79.364,85.848,76.811c-2.146-0.979-4.049-2.199-5.746-3.834
			c-1.489-1.439-2.023-2.996-2.118-4.729C78.688,66.104,79.459,63.992,80.539,61.995z"/>
		<path fill="#546F93" d="M80.539,61.995c4.744-12.73,8.624-25.771,13.844-38.345c5.365-12.923,17.555-15.894,30.144-14.491
			c4.53,0.499,8.971,0.906,13.413,0.664c4.439,0.242,8.882-0.165,13.412-0.664c12.589-1.402,24.78,1.568,30.144,14.491
			c5.488,13.212,9.48,26.941,14.563,40.28c-0.008,0-0.016-0.002-0.023-0.002c0.389,0.949,0.764,1.903,1.112,2.862
			c0.006,0.004,0.008,0.009,0.01,0.011c0.276,0.702,0.643,1.556,1.034,2.507c0.983,2.482-4.456,6.764-5.317,7.336
			c-2.658,1.76-5.487,2.923-8.515,3.885c-5.246,1.655-10.634,2.838-16.058,3.739c-10.583,1.755-21.537,2.134-32.237,1.755
			c-10.875-0.383-22.16-0.978-32.751-3.566C97.352,81,91.44,79.364,85.848,76.811c-2.146-0.979-4.049-2.199-5.746-3.834
			c-1.489-1.439-2.023-2.996-2.118-4.729C78.688,66.104,79.459,63.992,80.539,61.995z"/>
		<path fill="#546F93" d="M101.413,42.889c1.129-3.032,2.408-6.021,3.382-9.114c0.665-2.124,1.362-4.224,2.63-6.082
			c1.597-2.351,3.888-2.038,6.191-1.407c-4.095-2.357-9.613-3.596-9.275-9.304c0.222-3.745,4.651-5.788,7.675-6.838
			c1.302-0.452,2.614-0.834,3.939-1.174c-9.278,0.704-17.447,4.74-21.573,14.681c-5.22,12.574-9.1,25.614-13.844,38.345
			c-1.08,1.997-1.851,4.109-2.556,6.253c0.095,1.732,0.629,3.289,2.118,4.729c1.697,1.635,3.6,2.854,5.746,3.834
			c1.302,0.597,2.624,1.139,3.962,1.64C93.359,66.496,97.052,54.576,101.413,42.889z"/>
		<path opacity="0.4" fill="#5B8FAA" d="M198.191,69.309c-0.392-0.951-0.758-1.805-1.034-2.507
			c-0.002-0.002-0.004-0.007-0.01-0.011c-0.349-0.959-0.724-1.913-1.112-2.862c0.008,0,0.016,0.002,0.023,0.002
			c-5.083-13.34-9.075-27.068-14.563-40.28c-4.098-9.871-12.182-13.924-21.378-14.669c1.691,1.016,3.069,2.314,3.829,4.022
			c1.383,3.109-1.271,6.492-3.646,8.204c-2.688,1.939-5.736,4.21-8.896,5.229c4.187-0.458,8.449-1.766,11.227,1.568
			c3.257,3.91,13.02,50.515,13.785,54.673c2.675-0.617,5.325-1.326,7.943-2.148c3.027-0.962,5.856-2.125,8.515-3.885
			C193.735,76.072,199.175,71.791,198.191,69.309z"/>
		<path fill="#CC813D" d="M242.031,122.943c-15.058,8.906-33.67,12.397-50.692,15.27
			c-18.546,3.125-37.149,4.206-55.936,4.101c-17.695-0.099-35.54-2.196-53.019-4.803c-17.903-2.676-35.875-6.068-52.348-13.845
			c-7.074-3.338-14.783-8.566-18.749-15.464c-6.599-11.465,13.289-22.381,20.924-26.54c8.034-4.375,16.556-7.588,25.161-10.61
			c6.345-2.227,13.288-4.466,20.161-4.789c-0.113,0.297-0.222,0.592-0.337,0.883c-2.108,5.31-6.365,12.465-1.945,17.663
			c5.948,6.989,16.525,10.746,25.371,12.357c12.356,2.254,24.851,3.725,37.316,3.165c12.467,0.56,24.961-0.911,37.314-3.165
			c8.845-1.611,19.43-5.368,25.369-12.357c4.422-5.198,0.165-12.354-1.939-17.663c-0.154-0.381-0.294-0.767-0.443-1.156
			c13.104,2.294,25.801,6.153,37.909,11.995c7.08,3.416,14.588,8.292,19.12,14.848C263.151,104.242,251.53,117.325,242.031,122.943z
			"/>
		<path fill="#546F93" d="M242.031,122.943c-15.058,8.906-33.67,12.397-50.692,15.27
			c-18.546,3.125-37.149,4.206-55.936,4.101c-17.695-0.099-35.54-2.196-53.019-4.803c-17.903-2.676-35.875-6.068-52.348-13.845
			c-7.074-3.338-14.783-8.566-18.749-15.464c-6.599-11.465,13.289-22.381,20.924-26.54c8.034-4.375,16.556-7.588,25.161-10.61
			c6.345-2.227,13.288-4.466,20.161-4.789c-0.113,0.297-0.222,0.592-0.337,0.883c-2.108,5.31-6.365,12.465-1.945,17.663
			c5.948,6.989,16.525,10.746,25.371,12.357c12.356,2.254,24.851,3.725,37.316,3.165c12.467,0.56,24.961-0.911,37.314-3.165
			c8.845-1.611,19.43-5.368,25.369-12.357c4.422-5.198,0.165-12.354-1.939-17.663c-0.154-0.381-0.294-0.767-0.443-1.156
			c13.104,2.294,25.801,6.153,37.909,11.995c7.08,3.416,14.588,8.292,19.12,14.848C263.151,104.242,251.53,117.325,242.031,122.943z
			"/>
		<path fill="#546F93" d="M16.095,99.433c2.94-4.822,7.554-8.497,12.197-11.603c5.748-3.846,11.827-7.193,18.178-9.933
			c9.71-4.188,19.815-7.22,30.141-9.34c0.204-0.479,0.407-0.954,0.587-1.412c0.115-0.291,0.224-0.586,0.337-0.883
			c-6.873,0.323-13.816,2.563-20.161,4.789c-8.605,3.022-17.127,6.235-25.161,10.61c-7.635,4.159-27.523,15.075-20.924,26.54
			c2.467,4.296,6.395,7.944,10.71,10.895C16.095,114.291,11.521,106.926,16.095,99.433z"/>
		<path opacity="0.4" fill="#5B8FAA" d="M255.269,92.832c-4.532-6.556-12.04-11.432-19.12-14.848
			c-12.108-5.842-24.805-9.701-37.909-11.995c0.149,0.39,0.289,0.775,0.443,1.156c2.105,5.31,6.361,12.465,1.939,17.663
			c-5.939,6.989-16.524,10.746-25.369,12.357c-12.353,2.254-24.847,3.725-37.314,3.165c-12.466,0.56-24.96-0.911-37.316-3.165
			c-6.576-1.196-14.106-3.585-19.983-7.602c1.779,2.012,3.908,3.746,6.081,5.113c12.282,7.738,28.807,9.122,42.945,9.757
			c16.057,0.726,32.4-0.354,48.258-2.998c7.058-1.18,14.225-2.577,20.977-4.984c3.158-1.123,19.331,27.483-62.862,43.968
			c-6.106,1.22-12.351,1.003-18.501,1.158c5.959,0.427,11.921,0.705,17.866,0.735c18.786,0.105,37.39-0.976,55.936-4.101
			c17.023-2.872,35.635-6.363,50.692-15.27C251.53,117.325,263.151,104.242,255.269,92.832z"/>
		<path fill="#5E2C00" d="M169.06,21.905c-11.099,4.482-22.97,5.803-34.886,4.857c-5.429-0.431-10.905-1.3-16.256-2.316
			c-3.666-0.697-18.543-4.749-10.63-10.828c0.091-0.073,0.332-0.511,0.053-0.387c-2.695,1.242-4.562,5.366-2.186,7.871
			c4.543,4.783,12.901,5.134,18.996,6.142c14.461,2.391,31.607,2.684,44.766-4.767C169.088,22.381,169.469,21.739,169.06,21.905z"/>
	</g>
</g>
</svg>
