<svg 
    xmlns="http://www.w3.org/2000/svg" 
    xmlns:xlink="http://www.w3.org/1999/xlink" 
    width="100%" 
    height="100%" 
    viewBox="0 0 810 739.999993" 
    preserveAspectRatio="xMidYMax meet" 
    transform="rotate(-13)"
    version="1.0"
><path fill="#b1d719" d="M 1.507812 481.84375 C 2.980469 471.453125 12.59375 464.238281 22.984375 465.6875 C 33.375 467.160156 40.617188 476.777344 39.164062 487.171875 C 37.679688 497.554688 28.054688 504.789062 17.667969 503.328125 C 7.277344 501.859375 0.0234375 492.238281 1.507812 481.84375 " fill-opacity="1" fill-rule="nonzero"/><path fill="#50a1de" d="M 349.34375 522.027344 C 349.34375 522.027344 417.257812 266.777344 226.839844 239.800781 C 36.433594 212.808594 122.808594 478.285156 122.808594 478.285156 C 122.808594 478.285156 111.304688 343.492188 171.507812 315.601562 C 231.695312 287.703125 273.367188 502.96875 259.042969 528.644531 " fill-opacity="1" fill-rule="nonzero"/><path fill="#f68a15" d="M 140.910156 472.734375 C 140.171875 462.28125 131.074219 454.359375 120.605469 455.082031 C 110.136719 455.820312 102.234375 464.910156 102.953125 475.375 C 103.707031 485.835938 112.800781 493.746094 123.257812 493.003906 C 133.738281 492.273438 141.632812 483.195312 140.910156 472.734375 " fill-opacity="1" fill-rule="nonzero"/><path fill="#e72140" d="M 609.347656 398.019531 C 601.09375 400.402344 592.863281 403.910156 584.769531 408.695312 C 576.132812 413.773438 567.679688 420.371094 559.46875 428.652344 C 553.171875 435.046875 546.976562 442.460938 541.019531 450.980469 C 474.589844 453.101562 468.449219 548.488281 468.449219 548.488281 L 465.3125 548.117188 L 435.730469 544.703125 L 327.808594 532.242188 L 221.25 519.925781 C 220.183594 516.015625 219.089844 512.273438 218 508.597656 C 213.074219 492.117188 207.800781 477.902344 202.257812 465.730469 C 132.242188 311.894531 19.207031 480.261719 16.765625 483.914062 C 58.414062 301.972656 137.371094 278.5 205.195312 299.667969 C 210.769531 301.398438 216.234375 303.410156 221.597656 305.679688 C 267.566406 325.074219 314.65625 366.457031 332.789062 383.402344 C 337.792969 388.066406 340.59375 390.851562 340.59375 390.851562 C 398.1875 349.816406 440.566406 333.097656 479.683594 334.039062 C 475.453125 345.929688 472.027344 360.457031 469.316406 376.300781 C 482.324219 362.144531 496.570312 349.253906 511.886719 338.792969 C 525.074219 342.332031 537.25 347.1875 548.359375 352.828125 C 563.753906 360.535156 577.113281 369.738281 588.3125 378.808594 C 596.519531 385.449219 603.546875 392.066406 609.347656 398.019531 " fill-opacity="1" fill-rule="nonzero"/><path fill="#b1d719" d="M 789.65625 470.339844 C 721.089844 401.582031 608.550781 354.503906 541.019531 450.980469 C 522.691406 477.125 510.34375 507.207031 500.789062 537.523438 C 492.332031 564.367188 487.609375 555.1875 463.109375 550.242188 C 433.648438 544.273438 404.191406 538.332031 374.730469 532.386719 C 417.816406 423.515625 372.019531 287.523438 623.570312 320.679688 C 707.824219 331.769531 772.566406 386.144531 789.65625 470.339844 " fill-opacity="1" fill-rule="nonzero"/><path fill="#a8c11d" d="M 788.105469 463.304688 L 788.128906 463.382812 C 788.128906 463.382812 681.488281 341.050781 594.359375 366.246094 C 586.097656 368.625 577.867188 372.144531 569.78125 376.917969 C 561.144531 382.007812 552.679688 388.59375 544.46875 396.875 C 538.175781 403.269531 531.976562 410.683594 526.03125 419.203125 C 508.613281 444.058594 492.929688 478.429688 480.144531 524.949219 L 451.304688 519.09375 L 420.730469 512.925781 L 386.144531 505.9375 C 378.667969 522.070312 374.730469 532.386719 374.730469 532.386719 L 435.730469 544.703125 L 466.292969 550.882812 L 495.132812 556.714844 C 507.917969 510.207031 523.601562 475.824219 541.019531 450.980469 C 546.976562 442.460938 553.171875 435.046875 559.46875 428.652344 C 567.679688 420.371094 576.132812 413.773438 584.769531 408.695312 C 592.863281 403.910156 601.09375 400.402344 609.347656 398.019531 C 696.488281 372.828125 789.65625 470.339844 789.65625 470.339844 C 789.65625 470.339844 789.21875 467.765625 788.105469 463.304688 " fill-opacity="1" fill-rule="nonzero"/><path fill="#f68a15" d="M 621.097656 351.253906 C 614.902344 307.835938 586.027344 272.925781 510.433594 270.050781 C 424.453125 266.789062 366.015625 323.859375 343.820312 385.570312 C 322.863281 443.96875 312.191406 510.464844 313.058594 528.644531 C 313.191406 532.027344 325.101562 529.65625 325.101562 529.65625 L 396.183594 542.757812 L 471.945312 556.714844 L 471.855469 556.445312 C 471.554688 555.703125 471.292969 554.804688 471.058594 553.746094 C 466.335938 532.488281 473.464844 452.113281 491.128906 393.28125 C 495.503906 378.726562 500.519531 365.492188 506.152344 354.804688 C 514.875 338.289062 525.085938 327.828125 536.699219 327.9375 C 540.546875 327.972656 544.5625 329.175781 548.722656 331.703125 C 557.0625 336.761719 563.527344 344.242188 568.53125 353.414062 C 572.738281 361.132812 575.898438 370.019531 578.203125 379.617188 C 583.519531 401.820312 584.296875 427.84375 583.171875 451.800781 C 581.238281 492.8125 573.714844 527.859375 573.714844 527.859375 C 573.714844 527.859375 597.867188 485.867188 612.183594 435.765625 C 614.757812 426.753906 617.003906 417.472656 618.738281 408.144531 C 622.277344 388.863281 623.660156 369.3125 621.097656 351.253906 " fill-opacity="1" fill-rule="nonzero"/><path fill="#dd721a" d="M 398.714844 532.734375 C 397.816406 536.140625 396.972656 539.476562 396.183594 542.757812 L 471.945312 556.714844 L 471.855469 556.445312 C 471.554688 555.703125 471.292969 554.804688 471.058594 553.746094 C 466.335938 532.488281 473.464844 452.113281 491.128906 393.28125 C 495.503906 378.726562 500.519531 365.492188 506.152344 354.804688 C 514.875 338.289062 525.085938 327.828125 536.699219 327.9375 C 536.699219 327.9375 458.421875 307.296875 398.714844 532.734375 " fill-opacity="1" fill-rule="nonzero"/><path fill="#50a1de" d="M 555.445312 517.722656 C 557.671875 507.488281 567.8125 500.957031 578.066406 503.171875 C 588.320312 505.398438 594.84375 515.519531 592.628906 525.78125 C 590.378906 536.015625 580.25 542.546875 569.996094 540.320312 C 559.738281 538.09375 553.21875 527.960938 555.445312 517.722656 " fill-opacity="1" fill-rule="nonzero"/><path fill="#d51b34" d="M 168.089844 371.066406 C 68.882812 326.535156 15.980469 484.8125 15.980469 484.8125 C 18.429688 481.160156 131.46875 312.792969 201.472656 466.632812 C 206.8125 478.328125 211.882812 491.9375 216.640625 507.609375 L 298.113281 516.871094 C 298.113281 516.871094 267.304688 415.605469 168.089844 371.066406 " fill-opacity="1" fill-rule="nonzero"/><path fill="#f6bf0d" d="M 185.777344 480.925781 L 239.152344 503.507812 L 284.890625 451.507812 L 307.414062 511.25 L 384.671875 463.902344 L 409.105469 529.835938 L 491.882812 498.375 L 476.21875 552.726562 C 476.21875 552.726562 498.371094 523.285156 533.699219 555.378906 C 533.699219 555.378906 502.203125 551.21875 480.085938 586.683594 C 477.90625 590.175781 473.195312 596.894531 473.195312 596.894531 C 473.195312 596.894531 345.710938 501.136719 221.351562 558.636719 L 185.777344 480.925781 " fill-opacity="1" fill-rule="nonzero"/><path fill="#f6bf0d" d="M 516.316406 548.230469 C 518.675781 540.882812 526.558594 536.835938 533.921875 539.207031 C 541.265625 541.578125 545.3125 549.445312 542.953125 556.816406 C 540.589844 564.164062 532.710938 568.175781 525.34375 565.816406 C 518.011719 563.46875 513.941406 555.578125 516.316406 548.230469 " fill-opacity="1" fill-rule="nonzero"/><path fill="#f6bf0d" d="M 478.570312 494.09375 C 480.929688 486.746094 488.800781 482.710938 496.15625 485.082031 C 503.519531 487.417969 507.554688 495.316406 505.183594 502.65625 C 502.8125 510.003906 494.929688 514.050781 487.585938 511.679688 C 480.234375 509.328125 476.195312 501.429688 478.570312 494.09375 " fill-opacity="1" fill-rule="nonzero"/><path fill="#f6bf0d" d="M 369.785156 459.101562 C 372.15625 451.765625 380.039062 447.71875 387.390625 450.078125 C 394.746094 452.449219 398.792969 460.328125 396.421875 467.675781 C 394.070312 475.023438 386.175781 479.058594 378.824219 476.6875 C 371.480469 474.339844 367.433594 466.441406 369.785156 459.101562 " fill-opacity="1" fill-rule="nonzero"/><path fill="#f6bf0d" d="M 271.578125 447.25 C 273.949219 439.886719 281.832031 435.84375 289.199219 438.214844 C 296.539062 440.574219 300.578125 448.449219 298.214844 455.800781 C 295.84375 463.136719 287.960938 467.191406 280.617188 464.820312 C 273.253906 462.460938 269.21875 454.597656 271.578125 447.25 " fill-opacity="1" fill-rule="nonzero"/><path fill="#f6bf0d" d="M 174.046875 479.609375 C 176.410156 472.28125 184.3125 468.214844 191.667969 470.585938 C 199.011719 472.945312 203.058594 480.835938 200.675781 488.160156 C 198.3125 495.519531 190.429688 499.554688 183.066406 497.183594 C 175.722656 494.824219 171.664062 486.945312 174.046875 479.609375 " fill-opacity="1" fill-rule="nonzero"/><path fill="#e72140" d="M 770.824219 464.921875 C 772.296875 454.550781 781.933594 447.292969 792.320312 448.753906 C 802.710938 450.226562 809.964844 459.855469 808.503906 470.238281 C 807.007812 480.609375 797.382812 487.867188 787.003906 486.394531 C 776.601562 484.914062 769.363281 475.304688 770.824219 464.921875 " fill-opacity="1" fill-rule="nonzero"/></svg>