<svg xmlns="http://www.w3.org/2000/svg" xmlns:xlink="http://www.w3.org/1999/xlink" width="100%" height="100%" viewBox="-160 120 1110 809.999993" preserveAspectRatio="xMidYMax meet" version="1.0"><defs><clipPath id="4bc01c57af"><path d="M 118.554688 687 L 691.554688 687 L 691.554688 807 L 118.554688 807 Z M 118.554688 687 " clip-rule="nonzero"/></clipPath></defs><path fill="#d1b2d5" d="M 148.234375 739.382812 C 203.691406 508.457031 294.542969 313.957031 375.980469 90.867188 C 472.894531 195.019531 609.191406 515.035156 675.695312 692.386719 C 678.550781 699.996094 681.4375 708.121094 679.792969 716.085938 C 676.890625 730.257812 661.570312 737.675781 647.976562 742.640625 C 484.554688 802.292969 301.832031 807.710938 148.21875 739.398438 Z M 148.234375 739.382812 " fill-opacity="1" fill-rule="nonzero"/><path fill="#a0cb44" d="M 327.390625 218.621094 C 337.679688 198.792969 347.96875 178.945312 358.257812 159.113281 C 367.191406 169.480469 376.058594 179.914062 384.832031 190.425781 C 392.332031 179.847656 399.136719 168.773438 405.183594 157.292969 C 411.167969 159.371094 416.777344 162.46875 421.746094 166.386719 C 422.96875 162.613281 424.210938 158.855469 425.4375 155.082031 C 444.046875 175.640625 459.929688 198.664062 472.445312 224.957031 C 423.875 237.210938 372.964844 240.128906 323.3125 233.488281 C 322.941406 230.132812 323.230469 226.636719 327.390625 218.605469 Z M 327.390625 218.621094 " fill-opacity="1" fill-rule="nonzero"/><path fill="#3eb049" d="M 301.671875 286.144531 C 312.703125 259.234375 323.730469 232.34375 334.761719 205.433594 C 347.273438 220.058594 359.484375 234.921875 371.382812 250.046875 C 382.976562 237.308594 393.21875 223.347656 401.894531 208.480469 C 413.164062 215.816406 424.453125 223.152344 435.726562 230.503906 C 444.515625 218.703125 451.078125 205.257812 454.980469 191.070312 C 471.234375 221.816406 487.023438 252.800781 502.359375 284.015625 C 471.765625 298.574219 435.953125 295.785156 402.554688 290.175781 C 369.140625 284.546875 335.324219 276.375 301.671875 286.144531 Z M 301.671875 286.144531 " fill-opacity="1" fill-rule="nonzero"/><path fill="#53c1ad" d="M 260.566406 373.382812 C 279.273438 333.238281 297.976562 293.09375 316.683594 252.949219 C 331.714844 261.671875 346.742188 270.375 361.773438 279.097656 C 364.402344 280.628906 367.253906 282.195312 370.269531 281.886719 C 373.722656 281.53125 376.382812 278.824219 378.753906 276.292969 C 387.621094 266.75 396.507812 257.203125 405.378906 247.660156 C 417.792969 257.269531 430.226562 266.878906 442.644531 276.488281 C 450.011719 264.539062 460.074219 254.253906 471.863281 246.628906 C 474.589844 244.855469 477.960938 243.195312 480.941406 244.46875 C 483.585938 245.597656 484.828125 248.578125 485.8125 251.285156 C 496.375 280.40625 506.953125 309.503906 517.515625 338.625 C 434.355469 352.699219 349.710938 358.019531 260.550781 373.398438 Z M 260.566406 373.382812 " fill-opacity="1" fill-rule="nonzero"/><path fill="#326095" d="M 227.734375 468.152344 C 246.328125 414.304688 267.257812 361.257812 290.449219 309.214844 C 316.636719 317.050781 340.921875 331.125 360.757812 349.941406 C 377.65625 336.429688 392.539062 320.386719 404.75 302.539062 C 424.164062 311.167969 443.578125 319.808594 463.011719 328.433594 C 476.796875 317.519531 487.941406 303.296875 495.230469 287.304688 C 516.339844 318.40625 529.820312 354.648438 534.160156 392.003906 C 446.351562 440.566406 338.308594 428.054688 227.75 468.167969 Z M 227.734375 468.152344 " fill-opacity="1" fill-rule="nonzero"/><path fill="#5183c3" d="M 252.472656 389.570312 C 272.257812 404.179688 293.351562 417.011719 315.410156 427.910156 C 333.019531 412.125 350.628906 396.34375 368.238281 380.558594 C 390.492188 390.3125 411.84375 402.128906 431.921875 415.800781 C 441.257812 400.484375 450.59375 385.183594 459.914062 369.867188 C 478.621094 375.964844 497.035156 382.929688 515.082031 390.765625 C 520.710938 380.011719 526.320312 369.257812 531.949219 358.503906 C 555.863281 384.023438 575.410156 434.375 584.472656 468.152344 C 478.167969 553.617188 319.410156 523.339844 230.847656 480.164062 " fill-opacity="1" fill-rule="nonzero"/><path fill="#8b5fa8" d="M 203.5625 557.695312 C 211.671875 515.519531 222.347656 473.84375 235.492188 432.941406 C 255.9375 450.417969 276.0625 468.265625 295.851562 486.484375 C 312.652344 466.136719 330.988281 447.03125 350.628906 429.410156 C 376.398438 444.695312 400.023438 463.574219 420.632812 485.324219 C 440.707031 464.832031 459.09375 442.710938 475.589844 419.253906 C 489.410156 429.652344 502.714844 440.726562 515.4375 452.449219 C 527.015625 432.777344 538.59375 413.125 550.15625 393.457031 C 572.246094 429.957031 588.96875 469.699219 599.628906 511.023438 C 600.5 514.375 601.308594 518.035156 600 521.242188 C 598.921875 523.886719 596.582031 525.773438 594.261719 527.46875 C 563.347656 550.007812 523.773438 556.390625 485.714844 560.355469 C 431.566406 566 377.109375 568.0625 322.683594 570.128906 C 282.820312 571.644531 241.488281 572.917969 203.5625 557.695312 Z M 203.5625 557.695312 " fill-opacity="1" fill-rule="nonzero"/><path fill="#b488bd" d="M 170.453125 657.15625 C 189.449219 589.570312 192.371094 579.496094 210.625 522.066406 C 232.21875 533.5625 253.792969 545.058594 275.386719 556.550781 C 296.6875 537.980469 318.007812 519.390625 339.308594 500.816406 C 360.789062 514.664062 382.269531 528.53125 403.75 542.378906 C 407.699219 544.929688 412.246094 547.605469 416.828125 546.523438 C 420.308594 545.71875 422.921875 542.929688 425.308594 540.253906 C 437.824219 526.257812 450.09375 512.054688 462.109375 497.625 C 477.539062 510.585938 492.988281 523.566406 508.421875 536.527344 C 523.742188 519.632812 537.546875 501.347656 549.605469 481.984375 C 562.007812 485.484375 574.410156 488.964844 586.792969 492.464844 C 590.503906 493.511719 594.324219 494.609375 597.386719 496.949219 C 601.597656 500.15625 603.855469 505.234375 605.933594 510.085938 C 611.222656 522.421875 616.511719 534.769531 621.785156 547.105469 C 629.285156 564.597656 646.089844 610 638.527344 612.367188 C 498.632812 656.269531 328.328125 641.132812 170.453125 657.125 Z M 170.453125 657.15625 " fill-opacity="1" fill-rule="nonzero"/><path fill="#f3c6dd" d="M 145.960938 717.246094 C 166.761719 667.816406 172.519531 638.585938 185.453125 602.324219 C 208.027344 615.09375 230.589844 627.847656 253.164062 640.617188 C 278.53125 616.222656 303.898438 591.828125 329.277344 567.417969 C 353.355469 589.328125 377.445312 611.257812 401.523438 633.167969 C 417.792969 615.351562 434.082031 597.550781 450.351562 579.738281 C 467.753906 596.328125 484.167969 613.949219 499.488281 632.488281 C 513.679688 607.628906 530.933594 584.507812 550.753906 563.839844 C 560.863281 573.738281 570.972656 583.636719 581.101562 593.523438 C 592.113281 581.898438 603.113281 570.289062 614.125 558.664062 C 637.621094 594.828125 655.683594 634.523438 667.550781 675.988281 C 574.152344 717.054688 468.929688 718.972656 366.902344 720.214844 C 290.914062 721.148438 214.914062 722.082031 145.960938 717.230469 Z M 145.960938 717.246094 " fill-opacity="1" fill-rule="nonzero"/><path fill="#f5a2c6" d="M 153.101562 709.605469 C 169.066406 691.449219 185.046875 673.296875 201.011719 655.140625 C 202.917969 652.980469 205.042969 650.691406 207.882812 650.273438 C 211.445312 649.742188 214.65625 652.304688 217.347656 654.691406 C 236.84375 672.070312 256.339844 689.453125 275.835938 706.816406 C 300.300781 687.96875 324.78125 669.121094 349.242188 650.273438 C 352.082031 648.097656 355.0625 645.839844 358.578125 645.242188 C 363 644.484375 367.367188 646.453125 371.398438 648.386719 C 397.460938 660.898438 423.019531 674.472656 447.964844 689.082031 C 450.160156 690.355469 452.546875 691.691406 455.0625 691.355469 C 457.207031 691.0625 458.980469 689.613281 460.625 688.226562 C 483.3125 669.039062 505.988281 649.855469 528.675781 630.683594 C 552.445312 638.808594 576.199219 646.9375 599.96875 655.0625 C 602.371094 655.882812 604.917969 656.707031 607.386719 656.15625 C 609.707031 655.640625 611.59375 653.996094 613.367188 652.402344 C 624.609375 642.292969 635.847656 632.183594 647.089844 622.089844 C 664.441406 647.5 677.390625 675.910156 685.160156 705.671875 C 686.453125 710.621094 687.613281 715.859375 686.339844 720.824219 C 684.742188 727.082031 679.613281 731.757812 674.40625 735.546875 C 650.214844 753.167969 619.949219 759.746094 590.648438 765.921875 C 514.371094 781.960938 437.46875 798.085938 359.53125 798.390625 C 282.449219 798.699219 205.351562 783.269531 134.316406 753.359375 C 136.65625 740.367188 138.574219 726.128906 153.085938 709.636719 Z M 153.101562 709.605469 " fill-opacity="1" fill-rule="nonzero"/><g clip-path="url(#4bc01c57af)"><path fill="#ee367e" d="M 140.074219 734.738281 C 156.894531 724.566406 173.695312 714.394531 190.515625 704.203125 C 193.449219 702.429688 196.660156 700.59375 200.0625 700.945312 C 203.578125 701.316406 206.398438 703.929688 208.914062 706.414062 C 223.6875 720.875 238.441406 735.351562 253.214844 749.8125 C 257.582031 754.101562 262.292969 758.570312 268.273438 759.890625 C 275.597656 761.503906 282.980469 758.035156 289.671875 754.652344 C 319.925781 739.398438 350.179688 724.148438 380.429688 708.894531 C 400.167969 728.855469 421.535156 747.203125 444.242188 763.679688 C 479.910156 744.125 512.164062 718.3125 539.0625 687.789062 C 556.203125 705.929688 575.714844 721.808594 596.9375 734.933594 C 610.949219 722.210938 623.285156 707.621094 633.527344 691.691406 C 641.945312 702.347656 659.457031 696.398438 671.921875 701.769531 C 685.53125 707.636719 689.355469 724.777344 691.386719 739.449219 C 658.554688 757.828125 625.445312 776.320312 589.632812 787.894531 C 525.242188 808.710938 456.011719 806.035156 388.347656 806 C 296.445312 805.9375 199.464844 809.96875 118.675781 766.179688 C 125.464844 755.28125 129.445312 741.1875 140.089844 734.738281 Z M 140.074219 734.738281 " fill-opacity="1" fill-rule="nonzero"/></g><path fill="#f2e666" d="M 361.980469 80.371094 C 347.210938 113.453125 331.972656 147.214844 306.992188 173.464844 C 294.542969 186.539062 280 197.390625 266.210938 209.03125 C 238.652344 232.277344 213.738281 259.15625 195.964844 290.511719 C 198.191406 292.578125 200.417969 294.65625 202.640625 296.71875 C 231.378906 261.863281 266.386719 232.777344 297.867188 200.386719 C 329.359375 167.996094 358.046875 130.882812 369.691406 87.238281 C 357.417969 146.828125 327.375 202.660156 284.402344 245.742188 C 285.964844 249.367188 290.929688 250.433594 294.625 248.996094 C 298.316406 247.5625 300.976562 244.386719 303.492188 241.324219 C 329.246094 209.964844 355.371094 178.011719 371.011719 140.574219 C 377.703125 124.578125 382.398438 106.683594 377.722656 89.996094 C 388.734375 139.300781 385.574219 191.664062 368.722656 239.277344 C 374.707031 239.355469 380.6875 239.453125 386.6875 239.535156 C 383.300781 185.28125 405.765625 127.5625 382.867188 78.273438 C 419.921875 134.140625 425.550781 204.644531 426.371094 271.664062 C 429.628906 271.183594 432.902344 270.683594 436.160156 270.199219 C 433.613281 225.539062 430.984375 180.332031 417.503906 137.671875 C 410.390625 115.179688 400.363281 93.703125 389.023438 73.035156 C 416.199219 99.910156 438.175781 132.027344 453.398438 167.09375 C 460.574219 183.621094 466.382812 201.015625 477.089844 215.511719 C 490.503906 233.664062 510.421875 245.691406 529.820312 257.253906 C 530.851562 253.027344 533.640625 249.238281 537.367188 247 C 529.691406 246.722656 522.984375 241.886719 517.324219 236.695312 C 488.039062 209.820312 474.636719 170.414062 457.222656 134.6875 C 439.804688 98.960938 413.292969 62.75 374.269531 55.1875 C 372.753906 57.105469 371.449219 59.121094 361.949219 80.371094 Z M 361.980469 80.371094 " fill-opacity="1" fill-rule="nonzero"/><path fill="#f1c567" d="M 371.691406 68.019531 C 354.339844 125.273438 303.347656 164.726562 255.210938 200.257812 C 236.992188 213.722656 218.75 227.167969 200.53125 240.628906 C 203.769531 244 206.996094 247.371094 210.238281 250.722656 C 237.441406 219.832031 272.5 197.148438 304.074219 170.753906 C 335.648438 144.363281 365.078125 112.019531 374.335938 71.921875 C 372.867188 103.976562 359.871094 134.640625 342.164062 161.402344 C 324.472656 188.167969 302.15625 211.496094 279.964844 234.679688 C 282.867188 236.324219 285.769531 237.96875 288.671875 239.597656 C 330.828125 190.714844 374.980469 137.316406 380.800781 73.035156 C 390.21875 126.367188 385.316406 182.167969 366.738281 233.035156 C 369.753906 235.566406 374.65625 234.164062 377.1875 231.148438 C 379.71875 228.136719 380.480469 224.054688 381.140625 220.1875 C 389.847656 169.933594 398.554688 118.097656 387.398438 68.328125 C 411.199219 126.03125 418.035156 190.601562 406.84375 251.996094 C 413.828125 251.65625 416.777344 243.046875 417.746094 236.132812 C 425.277344 181.523438 419.875 125.175781 402.070312 73.003906 C 419.292969 82.339844 428.824219 101.25 435.871094 119.53125 C 445.160156 143.589844 452.011719 168.5625 456.320312 193.988281 C 460.445312 194.375 464.703125 192.859375 467.671875 189.957031 C 456.238281 174.609375 455.671875 154.117188 451.304688 135.496094 C 443.707031 103.152344 422.953125 74.117188 394.832031 56.429688 C 391.589844 54.398438 388.027344 52.445312 384.21875 52.65625 C 380.414062 52.867188 375.398438 55.71875 371.65625 68.054688 Z M 371.691406 68.019531 " fill-opacity="1" fill-rule="nonzero"/><path fill="#be8ec0" d="M 353.839844 80.984375 C 339.066406 99.234375 325.761719 118.679688 314.121094 139.058594 C 336.359375 138.136719 353 119.5 369.820312 104.925781 C 371.414062 103.539062 373.171875 102.121094 375.285156 101.863281 C 377.398438 101.605469 379.445312 102.570312 381.367188 103.507812 C 401.121094 113.179688 420.875 122.871094 440.644531 132.542969 C 433.839844 113.617188 421.730469 96.621094 406.054688 84.015625 C 420.582031 68.503906 435.128906 52.996094 449.660156 37.484375 C 432.515625 41.582031 415.601562 46.660156 399.023438 52.6875 C 390.042969 35.648438 382.140625 18.042969 375.398438 0 C 368.207031 16.785156 361.289062 33.679688 354.675781 50.707031 C 339.066406 49.140625 323.472656 47.578125 307.863281 45.996094 C 315.863281 59.394531 328.972656 69.648438 353.839844 80.96875 Z M 353.839844 80.984375 " fill-opacity="1" fill-rule="nonzero"/></svg>