<?xml version="1.0" encoding="utf-8"?>
<!-- Generator: Adobe Illustrator 26.5.0, SVG Export Plug-In . SVG Version: 6.00 Build 0)  -->
<svg version="1.1" id="Laag_1" xmlns="http://www.w3.org/2000/svg" xmlns:xlink="http://www.w3.org/1999/xlink" x="0px" y="0px"
	 viewBox="0 0 762.7 480.2" style="enable-background:new 0 0 762.7 480.2;" xml:space="preserve">
<g>
	<g>
		<path style="fill:#42230C;" d="M352.2,396.9c8.2,0,16.4,0,24.6,0c15.1,0,30.2,0,45.3,0.1c3.3-0.6,6.7-0.3,10.1-0.2
			c1.9,0,2.3,1.2,1.9,2.9c-0.5,1.6-1.4,3-1.8,4.6c-0.3,1.1-1.6,2.7-0.1,3.2c1.3,0.5,1.4-1.6,1.9-2.6c0.8-1.8,1.1-3.8,2-5.6
			c1.5-2.9,2.7-3.1,4.6-0.6c1.2,1.6,2.1,3.4,3.5,4.8c0.5,0.5,0.9,1.3,2.1,1c0.1-1.7-1-2.8-1.8-4c-0.8-1.1-1.7-2-1-3.5
			c0.3-0.5,0.8-0.5,1.4-0.5c0.6,0.1,1.2,0.1,1.8,0c0.8-0.1,1.5-0.1,2.3,0c0.8,0.2,1.6-0.1,2.4-0.2c0.9-0.1,1.7-0.2,2.6-0.2
			c16.3,0.1,32.6-0.9,48.9-0.5c1.3,0,2.6-0.2,3.9-0.1c1.7,0.4,1.3,1.5,0.8,2.6c-0.9,1.8-2.1,3.4-3.1,5.1c-0.3,0.5-0.8,1.1-0.2,1.6
			c0.6,0.4,1.2,0,1.6-0.4c1.4-1.4,2.2-3.3,3.5-4.8c0.8-0.9,1.4-2.1,2.9-1.9c1.5,0.2,1.7,1.6,2,2.7c0.6,2.2,1.6,4.4,2.4,6.5
			c0.3,0.7,0.5,1.8,1.4,1.5c1.1-0.4,0.5-1.4,0.3-2.3c-0.6-2.1-1.7-4-2.2-6c-0.3-1.4-1.2-2.9,0.1-4.1c1.3-1.2,2.8-0.3,4.1,0.2
			c2.9,1,5.8,1.8,8.6-0.4c8.6-0.4,17.1-1.1,25.7-1.2c32.5-0.1,61.8-10.5,89.5-26.5c11.7-6.7,23-14.1,34.6-21c2.7-1.6,5.7-3,8.6-4.1
			c1-0.4,3.1,0,3.6,0.7c0.5,0.8,0.2,2.8-0.6,3.6c-3,3.1-6,6.2-9.4,8.9c-8.5,6.6-17.4,12.9-26,19.4c-3.3,2.5-6.3,5.4-9.4,8.1
			c-0.7,0.6-1.5,1.3-1.9,2.1c-0.8,1.7-2.1,3.8-1.6,5.3c0.4,1.2,3.1,2.2,4.8,2.2c5.2,0,10.4-0.1,15.5-0.8c21.8-3.3,43.6-7,65.4-10.2
			c10.3-1.5,20.6-2.3,30.9-3.4c1.3-0.1,2.8,0.3,4.1,0.5c0,0.3,0,0.5,0.1,0.8c-1.2,0.4-2.3,1-3.5,1.3c-15.8,3.5-31.6,6.9-47.4,10.4
			c-30.7,6.8-61.3,13.5-91.9,20.4c-5,1.1-9.9,3-14.9,4.5c-0.7,0.2-1.5,0.6-2.1,1c-0.7,0.5-1.6,1.2-1.6,1.8c0,0.6,1,1.5,1.7,1.7
			c3.8,1.2,7.6,2.4,11.5,3.3c18.3,4,36.8,7.7,54.6,13.6c20.2,6.7,39.4,15.2,55.9,29c4.7,4,9,8.5,13.5,12.8c-0.2,0.2-0.3,0.4-0.5,0.6
			c-0.3-0.1-0.6-0.1-0.9-0.3c-34.7-17.8-71.5-30.2-109.3-39.5c-62.1-15.3-125.2-20.8-189-17.5c-17.9,0.9-35.7,3.2-53.6,3.9
			c-27.9,1.2-55.9,2.1-83.8,2.4c-45,0.4-90,0-135,0.4c-31.7,0.3-63.3,2.2-94.8,5.6c-23.9,2.6-47.7,6.1-71.3,11.1
			c-0.8,0.2-1.5,0.2-2.3,0.3c0-18.2,0-36.3,0-54.5c15.2,0.2,30.4,0.5,45.7,0.7c20.9,0.4,41.7,0.7,62.6,1.1
			c6.2,0.1,12.4,0.1,18.7,0.2c31.7,0.5,63.4,0.9,95.1,1.4c3,0,6.1,0.1,9.1,0.1c38,0.3,76.1,0.7,114.1,1c0.4,0,0.9,0.1,1.3,0.1
			C347,397.2,349.6,397.1,352.2,396.9z"/>
		<path style="fill:#FECA9A;" d="M440.8,379.2c-3.6-1.7-7.4-3.2-10.8-5.3c-11-6.5-20.6-14.8-29-24.3c-4.3-4.9-7.9-10.4-11.9-15.6
			c1.8-1.2,3.2,0.6,5,0.7c-4.1-4.4-7.9-9-10.8-14.1c-4.8-8.3-7.2-17.3-7.5-26.9c-0.3-10.6,1.4-21,3-31.4c2.4-15.5,1.7-30.6-4.3-45.3
			c-1.3-3.2-3.2-6.2-5.4-8.8c-3.3-3.8-7.6-5.3-12.6-4.6c-1,0.1-2,0.5-3-0.1c-0.1-7.8-0.3-15.5-0.2-23.3c0.1-10,0.3-20,0.6-30
			c0.1-2.2,0.6-4.3,0.9-6.5c1-0.7,1.8-0.1,2.7,0.3c6.1,2.7,12.4,3.4,19,2.7c1.7-0.2,3.5,0,5.2-0.4c0.9-0.2,1.8-0.3,2.3,0.6
			c0.5,0.9-0.2,1.6-0.7,2.3c-4,5.1-7,10.7-8.9,16.8c-6.4,20.5,0,43,16.8,56.9c8.4,6.9,17.9,10.8,28.8,11.9
			c13.3,1.5,25.1-2.2,36.1-9.5c0.9-0.6,1.8-1.5,3-1.2c1.2,0.5,1.6,1.6,2.1,2.6c1.9,3.7,3.8,7.4,5.5,11.1c0.8,1.8,1.9,3.5,3.2,5
			c2.4,2.8,6,3,8.7,0.6c1.4-1.2,2.3-2.8,3.2-4.4c2-3.7,3.5-7.7,5.6-11.4c0.5-0.9,0.8-1.9,1.8-2.4c1.4-0.2,2.3,0.7,3.3,1.4
			c9,5.8,18.9,8.8,29.5,8.5c20-0.6,35.7-9.4,45.5-27c11.2-19.9,9.4-39.6-3.7-58.2c-0.4-0.6-0.9-1.1-1.1-1.8c-0.4-1.2,0-1.9,1.3-1.8
			c1.8,0.1,3.6,0,5.4,0.2c5.6,0.8,11-0.1,16.3-1.8c1-0.3,2.2-0.6,2.9-1.8c-2-2.1-5.3-2-7.6-4.8c4.4-1.4,8.6-1.9,12.8-1.5
			c0.4,10.2,0.8,20.3,1.2,30.5c0.2,6.6,0.7,13.3,0.4,19.9c-0.6,14.2-1.6,28.3-2.5,42.5c-0.1,1.2,0,2.4,0,3.6c-0.7,1.1-1.9,1.1-3,1.3
			c-11.9,2.9-22.8,7.7-31.9,15.9c-1.2,1.1-2.3,2.3-3.4,3.6c-4.7,5.5-4.9,11.9-0.6,17.9c5.9,8.3,13.6,14.4,22.9,18.5
			c1,0.4,2.3,0.4,2.5,1.9c-4.1,12.8-9.8,24.9-16.8,36.3c-7.2,11.8-15.9,22.7-26.3,31.7c-6.5,5.6-13.9,10.2-20.9,15.1
			c-1.8,1.3-3.9,2.1-5.9,3.1c-2.5-1.6-2.5-1.6-2.9,1.2c-0.1,0.3-0.2,0.6-0.5,0.9c-6.7,3.6-13.9,5.6-21.2,7.3c-1.7,0.4-3.4,0.6-5.1,1
			c-4.9,1.3-9.6,0.3-14.3-0.6c-7.3-1.4-14.3-3.8-21.2-6.7c-1-0.7-0.4-1.7-0.3-2.5c0.1-0.6,0.5-1.4-0.3-1.8c-0.8-0.4-1.1,0.4-1.5,0.9
			C441.6,378.6,441.3,379.1,440.8,379.2z"/>
		<path style="fill:#424143;" d="M327.8,38c9-2.2,17.9-4.5,26.9-6.7c36.2-8.8,72.5-17.6,108.7-26.4c0.3-0.1,0.5-0.1,0.7-0.2
			C476-0.5,487.4,3.1,499,5.8c43.5,10.1,87,20,130.5,30.1c0.9,0.2,1.8,0.6,2.7,0.9c-0.2,1.7-1.7,1.6-2.7,1.9
			c-11.6,3.1-23.1,6.6-34.6,9.8c-3.7,1-7.4,2.2-11.3,3c-3.4,0.1-6.7-0.6-10-1.1c-22.5-3.1-45.1-6.1-67.6-9.2
			c-9.2-1.3-18.4-2.4-27.5-3.8c-1.4-0.2-2.7-0.4-4.1-0.3c-0.5,0-1.1,0.2-1.2,0.8c-0.2,0.8,0.4,1.1,1,1.3c0.8,0.3,1.7,0.5,2.5,0.6
			c27.5,3.8,55,7.5,82.5,11.3c3.4,0.5,6.9,0.4,10.1,1.9c1.2,2.2,1.1,2.6-1.5,3.3c-6.5,2-13.1,3.7-19.7,5.6
			c-12.8,3.6-25.6,7.4-38.4,10.9c-9.7,2.7-19.3,5.7-29,8.2c-1.5,0.4-2.9,0.3-4.4-0.2c-20.7-5.8-41.5-11.5-62.3-17.4
			c-13.9-3.9-27.8-7.7-41.8-11.6c-13.9-3.8-27.8-7.7-41.7-11.7C329.4,39.7,327.7,40,327.8,38z"/>
		<path style="fill:#B57B50;" d="M593.6,136.8c-2.6,0.4-5.3,0.7-7.9,1.1c-1.4,0.2-2.7,0.3-4.8,0.6c3,1.4,5.4,2.5,7.8,3.7
			c0.4,0.2,0.8,0.6,1.2,0.9c-0.4,0.4-0.7,1-1.2,1.2c-3.4,1-6.9,2.5-10.4,2.8c-5.1,0.5-10.3,0.1-15.8,0.1c0.4,0.6,0.8,1.4,1.2,2
			c6,7.7,9.5,16.3,10.8,26c1.3,9.8,0.1,19.3-4,28.3c-7.8,17.1-21,27.8-39.5,31.4c-14.5,2.9-27.9-0.2-40.3-8.3
			c-0.6-0.4-1.3-0.7-2-1.1c-2-0.8-3.4-2.3-4.9-3.7c-3.3-3.1-6.1-6.5-8.6-10.3c-1.6-2.4-2.6-2.5-4.2-0.1c-2.8,4.2-6.2,7.9-9.8,11.3
			c-0.6,0.6-1.1,1.3-2,1.6c-2.1,1.3-4.1,2.5-6.2,3.8c-19.5,12-44.4,10.3-62.2-4.4c-11.9-9.9-18.5-22.5-19.5-38
			c-0.9-14.1,3-26.5,11.9-37.5c0.2-0.2,0.3-0.4,0.4-0.7c0-0.1,0-0.2,0-0.7c-9.9,1.4-19.7,1.5-28.9-3.1c0-0.3,0-0.7,0-1
			c2.2-2.3,5.1-3,7.2-3.7c-2,0.3-4.7,0.1-7.3-1c-1.1-0.4-2.1-0.7-3.9-1.4c1.9-0.2,2.9-0.3,4-0.4c0-0.2,0.1-0.4,0.1-0.6
			c-5.3-2-10.6-4.1-15.9-6.1c0-0.1,0.1-0.3,0.1-0.4c3,0.2,5.9,0.4,8.9,0.6c0.1-0.2,0.2-0.4,0.2-0.6c-4.6-2.7-9.3-5.5-13.9-8.2
			c0.1-0.2,0.2-0.4,0.3-0.6c7,1.3,14,2.5,21,3.8c2.4-0.8,4.8,0.1,7.2,0.2c9.8,0.6,19.6,0.8,29.4-0.9c7-1.3,14.1-2.6,21.2-2.8
			c7.2-0.2,14.1,0.8,20.8,3.3c2.5,0.9,4.9,2.3,7,3.8c5,4.5,11.3,6.9,16.5,11c5.5,4.4,10.5,9.4,14,15.7c0.2,0.4,0.5,0.9,1.1,1.2
			c1.6-1.9,2.8-4.1,4.3-6.1c4.5-6.2,10-11.1,16.7-14.8c2.5-1.3,4.5-3.2,6.5-5c2.6-1.4,4.8-3.3,7.5-4.7c8.5-4.3,17.5-5.1,26.8-4.3
			c2.9,0.5,5.9,0.6,8.7,1.3c1.4,0,2.8,0.1,4.1,0.4c6.7,1.4,13.5,2,20.2,2.7c2.2,0.2,4.3-0.1,6.4-0.4c4.9,0.1,9.8-0.6,14.6-1.2
			c1.4-0.2,2.7-0.2,4.1,0.2c5.7-1.2,11.3-2.4,17-3.5c0.1,0.2,0.2,0.4,0.3,0.6c-4.5,2.8-9,5.6-13.6,8.4c0,0.2,0.1,0.3,0.1,0.5
			c3-0.2,6.1-0.4,9.1-0.6c0,0.1,0.1,0.3,0.1,0.4c-3.3,1.3-6.6,2.5-9.9,3.8c-0.6,0.2-1.3,0.5-1.9,0.7
			C592.6,134.6,592.1,135.4,593.6,136.8z"/>
		<path style="fill:#424143;" d="M535,121.3c-6.9,0-13.9-0.3-20.5,2c-2.2,0.8-4.3,1.7-6.5,2.5c-3.2,1.3-6.6,1.1-9.9,1.3
			c-13.1,0.6-26.2,0.7-39.3-0.3c-6.6-0.5-13.2-1.2-19.8-2.1c-4.5-0.7-8.9-2.2-13.4-3.1c-3.7-0.7-7.4-1.7-10.9-3.3
			c-1.7-0.6-3.2-1.6-4.7-2.6c-3.3-2.4-4.3-6.2-2.8-10c0-14,0-28,0-42.1c0.9-0.7,1.8-0.2,2.7,0c18.7,5.5,37.5,10.3,56.2,15.8
			c3.6,1.1,7.2,1.9,10.8,2.9c1.4,0.4,2.7,0.3,4.1-0.1c23-6.5,45.9-12.9,68.9-19.5c1.1-0.3,2.3-1.1,3.2,0.4c0.3,0.8,0.4,1.7,0.4,2.5
			c0,11.4,0.1,22.9,0,34.3c-0.1,2.6-0.1,5.2,0,7.7c0.2,4.2-1.5,7.1-5.1,9.1c-0.2,0.2-0.5,0.3-0.7,0.5c-0.2,0.2-0.5,0.3-0.7,0.4
			C543,119.1,539.3,121.1,535,121.3z"/>
		<path style="fill:#B57B50;" d="M579.2,292.5c-4.8-2.7-10-4.9-14.2-8.3c-4.5-3.5-8.6-7.8-12-12.3c-4.6-6-3.6-12.9,1.5-18.7
			c6.5-7.4,14.9-12.1,23.9-15.5c4.7-1.8,9.6-2.9,14.4-4.3c5.7-0.7,11.4-1.4,17.2-2.1c9.3-1.1,18.6-2,27.4-5.2
			c7.3-2.6,14.1-6.1,19.5-11.9c2.6-3.1,5.5-5.8,7.9-9.1c1.2-1.7,2.4-3.4,3-5.3c0.2-0.4,0.6-0.7,0.9-1c0.1-0.1,0.2-0.1,0.3-0.2
			c0.4-0.2,0.9-0.4,1.3-0.6c0.7,13-6,44.1-23.6,67.6c-0.2,0.2-0.3,0.4-0.5,0.5l0.1-0.1c-4.3,6.8-10.2,12.2-16.5,17.1
			c-0.8,0.4-1.7,0.7-2.5,1.2c-9.3,6.3-19.4,10.2-30.7,10.4c-4.9,0.1-9.9-1.1-14.8-1.8C580.9,292.9,580,292.6,579.2,292.5z"/>
		<path style="fill:#B57B50;" d="M353.5,203.4c10.7-3,17,2.5,21.4,12.7c5.3,12.3,7.1,25.2,5.5,38.5c-1.1,9-2.6,17.9-3.5,26.9
			c-1.7,17.5,1.3,33.8,13.2,47.5c2,2.3,4,4.5,6.3,7.1c-2.8-0.8-5-1.5-7.3-2.1c-6.3-3.1-12.9-6-19-9.5
			c-17.5-10.2-32.3-23.5-42.4-41.3c-7.2-12.7-10.6-26.3-8-40.8c3.3-18.1,14.4-30.1,30.9-37.7C351.6,204.3,352.5,203.9,353.5,203.4z"
			/>
		<path style="fill:#FECA9A;" d="M407.2,105.8c0,0.4,0.2,0.9,0.1,1.3c-0.8,4.8,1.7,7.7,5.7,9.7c0.5,0.3,1,0.6,1.6,0.9
			c0.8,1.4,0.3,2.5-0.5,3.6c-8.3,1.1-16.5,2.6-24.8,3.3c-8.5,0.6-17,0.5-25.5,0.5c-2.6,0-5.2-0.6-7.9-1c1-8.1,1.9-16.2,2.9-24.3
			c0.9-6.7,1.8-13.5,2.8-20.2c0.1-0.7,0.4-1.4,0.7-2.1c0.6,0.4,1.4,0.6,1.9,1.1c11.3,11.3,24.7,19.5,39.2,26.2
			C404.5,105.3,405.9,105.5,407.2,105.8z"/>
		<path style="fill:#E4AA40;" d="M569.5,53.2c-7.9-1.1-15.7-2.3-23.6-3.4c-14.6-2-29.3-4-43.9-6c-9.2-1.3-18.3-2.5-27.5-3.8
			c-1.5-0.2-3-0.5-2.8-2.3c0.3-1.7,1.8-1.8,3.3-1.6c17.7,2.5,35.4,4.9,53.1,7.3c17.2,2.3,34.4,4.6,51.6,7c1.3,0.2,2.6,0.4,3.8,0.6
			c1.1,0.5,1.5,1.3,1.2,2.5c0.6,4.9,1.1,9.7,1.8,14.6c0.1,0.9,1.2,1.7,1.9,2.4c0.7,0.7,1.6,1.2,2.4,1.8c0.4,0.2,0.2,0.8,0.7,0.9l0,0
			c0.2,0.4,0.7,0.7,0.9,1.2c0.1,0.1,0.1,0.2,0.1,0.4c0.2,0.4,0.1,0.9,0.5,1.2c0,0.9,0,1.7,0,2.6c-0.4,0.3-0.4,0.8-0.5,1.2
			c-0.3,0.6-0.7,1.3-1,1.9c-1,1.5-1.7,3-3.6,3.8c-6.4,3-7.6,8.5-3.4,14.3c0.8,1.1,1.7,2.2,2.5,3.3c2.5,3.8,0.9,11.5-3,13.9
			c-0.6,0.4-1.1,0.3-1.7-0.1c-0.6-0.8-0.5-1.7-0.3-2.6c0.4-0.8,0.8-1.6,0.1-2.4c-0.6-2.3-1.8-4.2-3.4-6c-2.5-2.7-4.4-5.8-5-9.5
			c-0.6-4.2,0.4-7.9,4.1-10.5c0.7-0.5,1.9-1,0.8-2.2c-0.5-0.5-0.9-1-1.3-1.6c-3.2-4-2.7-8.4,1.6-11.1c2.1-1.3,2.5-2.8,2-4.9
			c-0.8-3.4-0.3-7.1-2-10.4c-1.9-1.6-4.3-0.5-6.4-1.1c-0.6-0.2-1.3-0.3-1.9-0.4C570.3,53.8,569.7,53.8,569.5,53.2z"/>
		<path style="fill:#272425;" d="M572.7,53.7c2.3,0.4,4.7,0.8,7,1.2c-0.6,1.1-1.8,1.3-2.8,1.6c-7,2-14,4-21,6
			c-1.1,0.3-2.2,0.5-3.3,0.2c-9.3,2.6-18.5,5.2-27.8,7.9c-6.9,2-13.7,4-20.6,6c-7.8,2.3-15.6,4.9-23.6,6.6c-2.9,0.6-6.2-0.6-9.3-1.5
			c-17.4-4.7-34.8-9.6-52.2-14.4c-4-1.1-7.9-2.3-11.9-3.5c-9.1-2.6-18.2-5.2-27.4-7.8c-17.3-4.8-34.6-9.6-51.9-14.5
			c-0.7-0.2-1.3-1.2-1.9-1.8c0.6-0.5,1.1-1.1,1.7-1.6c2.6,0.9,5.1,2.1,7.8,2.8c9.6,2.7,19.2,5.4,28.8,8c10.5,2.9,21.1,5.7,31.6,8.7
			c16.3,4.5,32.5,9.1,48.7,13.6c10.8,3,21.5,6.1,32.3,9c1,0.3,2.3,0.3,3.3,0c18.1-5.1,36.3-10.3,54.4-15.4c10.4-3,20.9-5.8,31.3-8.8
			c1.4-0.4,3.7,0,3.4-2.7c0.5,0.1,0.9,0.1,1.4,0.2C571.4,53.8,572.1,53.6,572.7,53.7z"/>
		<path style="fill:#ECB450;" d="M582.7,116.6c2.6-0.3,3.1-2.7,4.1-4.4c2.6-4.2,1.3-7.8-1.7-11.4c-1.4-1.7-2.4-4-3-6.1
			c-0.9-3.4-0.5-6.4,3.9-9.1c2-1.3,3.9-2.8,5.8-4.3c0,0.5-0.1,1-0.1,1.5c0.1,0.2,0.3,0.2,0.5,0.1c0.2,0,0.4,0.1,0.5,0.1
			c0.3,0.3,0.7,0.4,1.1,0.3c6.5,1.1,10.2,5.8,9.6,12.4c-0.8,9-4.4,16.9-10.3,23.8c-1.2,1.4-2.3,2.8,0,4.2
			c-6.2,0.6-12.4,1.1-18.7,1.7c-0.5-0.9,0.1-1.5,0.6-2c2.3-1.8,4.4-3.9,6-6.3C581.5,116.7,581.9,116.2,582.7,116.6z"/>
		<path style="fill:#0E0D0D;" d="M668.3,199.7c-2.6,5.8-6.6,10.6-11.5,14.5c5.9-15.2,11.8-30.4,17.7-45.6
			c4.9-12.8,9.8-25.6,14.8-38.4c0.6-1.4,1.5-2.7,2.7-3.9c-4.2,13.1-8.4,26.2-12.7,39.3c-3.3,10.1-6.6,20.2-9.9,30.3
			c-0.3,0.9-0.4,1.8-0.6,2.7c0,0,0.1,0,0.1,0C668.7,198.9,668.8,199.4,668.3,199.7z"/>
		<path style="fill:#0E0D0D;" d="M629.7,283.2c0.4-0.5,0.8-1.1,1.3-1.6c5.1-5.2,10.2-10.4,15.3-15.6c-1,3.5-1.9,7-3,10.5
			c-2.2,6.9-4.4,13.8-6.7,20.7c-1.1,3.4-4,4.7-7.4,3.4c-3.2-1.2-4.5-4-3.2-7.3C627.1,289.9,628.4,286.5,629.7,283.2z"/>
		<path style="fill:#272425;" d="M440.8,379.2c1-0.9,0.7-3.7,3-2.6c2,0.9,0.3,2.5,0,3.9c0,0.3-0.1,0.5-0.2,0.8
			c0.4,2.1-0.7,3.9-1.6,5.6c-2,3.9-1.8,7.2,1.5,10.1c1,1.9,2,3.7,2.8,5.6c0.4,0.9,0.2,2,0.3,3c-0.9-0.4-2.1-0.5-2.7-1.2
			c-1.6-1.9-3-4-4.5-5.9c-0.3-0.4-1-1-1.3-0.9c-0.5,0.2-1.1,0.8-1.3,1.3c-1.1,2.8-2,5.6-3.2,8.3c-0.3,0.7-1.4,1.1-2.1,1.6
			c-0.3-0.9-1-1.9-0.8-2.6c0.6-2.1,1.5-4.2,2.5-6.2c0.8-1.8,0.3-2.5-1.7-2.5c-3.2,0-6.4-0.2-9.5-0.4c-0.1-1.7,0.6-2.6,2.4-3
			c3.5-0.6,6.9-1.5,10.3-2.4c0.7-0.2,1.6-0.8,1.9-1.4C438.2,386.5,439.5,382.9,440.8,379.2z"/>
		<path style="fill:#272425;" d="M506.1,380.1c0.2-1,0.4-2.1,0.7-3.1c0.8,0.6,1.6,1.1,2.4,1.7c1.4,4,2.8,8.1,4.3,12.1
			c0.2,0.6,1,1.2,1.6,1.3c4.6,1.2,9.2,2.3,13.7,3.4c-1.8,2.6-3.8,2.9-8,1.4c-1.4-0.5-3-0.5-4.6-0.8c0.2,1.6,0.3,3.2,0.7,4.7
			c0.5,1.8,1.7,3.4,2.1,5.2c0.2,1-0.5,2.2-0.8,3.3c-0.8-0.7-1.8-1.2-2.2-2c-1.1-2.6-1.9-5.3-2.9-8c-0.2-0.6-0.6-1.4-1.1-1.5
			c-0.5-0.1-1.3,0.4-1.7,0.9c-1.3,1.7-2.6,3.4-3.7,5.3c-0.9,1.5-2.1,1.9-3.4,1.1c-0.3-0.1,0.2-2.1,0.7-3c1-2.1,2.3-4.2,3.5-6.2
			c-0.1-0.6,0.5-0.9,0.8-1.2c1.5-1.2,1.7-2.7,0.9-4.4c-1.1-2.5-1.8-5.2-2.8-7.8C506.1,381.8,505.8,381,506.1,380.1z"/>
		<path style="fill:#272425;" d="M584.9,53.3c-0.4-0.8-0.8-1.6-1.2-2.5c5.9-1.7,11.8-3.5,17.7-5.2c8.1-2.3,16.2-4.6,24.3-6.9
			c2.2-0.6,4.3-1.4,6.5-2.1c0.5,0.4,1.2,0.8,1.3,1.3c0.1,0.4-0.4,1.3-0.8,1.5c-1.4,0.6-2.9,1.1-4.4,1.5
			C613.9,45.2,599.4,49.3,584.9,53.3z"/>
		<path style="fill:#FECA9A;" d="M354.8,138c2.8,0.2,5.6,0.3,8.4,0.5c0.1,0.1,0.1,0.3,0.2,0.4c-2.8,1.2-5.7,2.5-8.5,3.7
			C354.8,141.1,354.8,139.5,354.8,138z"/>
		<path style="fill:#272425;" d="M352.2,396.9c-2.6,0-5.1,0-7.7,0C347,396.9,349.6,396.9,352.2,396.9z"/>
		<path style="fill:#E4AA40;" d="M593.8,83.4c-0.4-0.1-0.7-0.2-1.1-0.3C593.1,83.1,593.4,83.3,593.8,83.4z"/>
		<path style="fill:#ECB450;" d="M592.7,74.1c-0.3-0.4-0.6-0.8-0.9-1.2C592.1,73.3,592.4,73.7,592.7,74.1z"/>
		<path style="fill:#ECB450;" d="M591.8,73c-0.2-0.3-0.5-0.6-0.7-0.9C591.3,72.4,591.6,72.7,591.8,73z"/>
		<path style="fill:#ECB450;" d="M593.2,75.7c-0.2-0.4-0.3-0.8-0.5-1.2C592.9,74.9,593.1,75.3,593.2,75.7z"/>
		<path style="fill:#ECB450;" d="M592.8,79.5c0.2-0.4,0.3-0.8,0.5-1.2C593.1,78.7,593,79.1,592.8,79.5z"/>
		<path style="fill:#0E0D0D;" d="M646.2,266.1c0.2-0.2,0.3-0.3,0.5-0.5C646.5,265.7,646.3,265.9,646.2,266.1z"/>
		<path style="fill:#E4AA40;" d="M592.2,82.9c-0.2,0-0.3-0.1-0.5-0.1C591.9,82.8,592,82.9,592.2,82.9z"/>
		<path style="fill:#272425;" d="M448.9,396.9c0.5,0,1,0,1.5,0C449.9,396.9,449.4,396.9,448.9,396.9z"/>
		<path style="fill:#272425;" d="M445.2,396.9c0.3,0,0.6,0,1,0C445.9,396.9,445.6,396.9,445.2,396.9z"/>
		<path style="fill:#F6AB1B;" d="M459.2,224.2c0.5-0.7,1-1.3,1.6-2c3.4-4,6.8-7.9,10.2-11.9c1.7-2,2.8-2.2,4.1-0.2
			c3.7,5.9,8.6,10.6,13.7,15.3c-2.7,5.5-5.2,11-8.1,16.3c-3,5.5-9.4,5.7-12.4,0.4C465.1,236.3,462.2,230.2,459.2,224.2z"/>
		<path style="fill:#464342;" d="M390.7,207.7c-3.3-5.3-6.4-10.6-7.8-16.8c-3-13-0.5-24.9,7.4-35.5c7.5-10.1,17.8-15.9,30.2-17.2
			c12.4-1.3,23.6,2.2,33.1,10.5c7.7,6.8,12.5,15.3,14.3,25.5c0.3,1.7,0.8,2.3,2.6,2.3c4.2-0.1,4.2,0,5-4.1
			c3.5-17.5,18.4-31.4,36.2-33.9c9.6-1.3,18.6,0.1,27,5c1.7,1,3.6,1.9,5.3,2.9c9.8,6.7,15.1,16.2,17.1,27.6
			c2.6,14.6-1.6,27.5-11.9,38.1c-9.3,9.6-21.1,13.8-34.6,12.8c-0.2,0-0.3-0.2-0.4-0.3c-4.6-1.2-9.6-1.8-13.9-3.7
			c-13.6-6.2-22.1-16.7-25.1-31.5c-0.2-1-0.6-2.8-1.1-2.9c-1.8-0.4-4-0.6-5.6,0.1c-0.8,0.4-0.8,2.7-1.1,4.2
			c-0.5,0.7,0.1,1.6-0.5,2.2l0-0.1c-0.6,1-0.5,2.2-1.1,3.2l0,0c-0.9,2.7-2.4,5.2-3.7,7.8l0,0c-0.8,1-1.4,2.1-2.1,3.1l0,0
			c-0.3,0.4-0.7,0.7-1,1l0,0c-0.6,1.3-1.6,2.2-2.6,3.1l0,0c-0.2,0.2-0.3,0.4-0.5,0.5l0,0c-0.2,0.2-0.3,0.4-0.5,0.5l0,0
			c-9.3,9.3-20.5,13.3-33.6,12.5c-9.8-0.6-18.1-4.4-25.5-10.5l0,0c-0.2-0.1-0.4-0.3-0.5-0.5l0,0c-0.9-0.8-1.8-1.7-2.6-2.6l0,0
			c-0.2-0.2-0.4-0.3-0.5-0.5l0,0c-0.2-0.2-0.4-0.3-0.5-0.5l0,0c-0.2-0.2-0.4-0.3-0.5-0.5l0,0c-0.3-0.3-0.2-0.8-0.5-1.1l0,0
			C390.9,208.3,390.7,208,390.7,207.7z"/>
		<path style="fill:#FECA9A;" d="M582.7,116.6c-2.7,2.9-5.5,5.9-8.2,8.8c-4.6,0-9.3,0.2-13.8-0.2c-5.7-0.5-11.4-1.6-17.2-2.4
			c-0.7-0.8,0-1.3,0.6-1.5c2.1-0.7,2.9-2.1,2.8-4.2l0,0c0.3,0,0.4-0.2,0.6-0.4c4-2.1,5.8-5.3,5.2-9.9c-0.3-2,0-4.1,0-6.1
			c4.6-3.1,9.7-5.6,14.2-8.8c3.1-2.2,6-4.6,9.1-6.8c1-0.7,1.7-2.1,3.3-1.6c0.4,0.2,0.9,0.4,1.3,0.5c-0.4,0.6-0.8,1.2-1.4,1.6
			c-4.8,3.4-6.2,7.3-4,12.7c1.1,2.6,3.1,4.9,4.5,7.4c1.2,2,2.1,4.2,3.2,6.3c0.3,0.5,0.3,1.1,0,1.6
			C582.9,114.6,582.8,115.6,582.7,116.6z"/>
		<path style="fill:#FECA9A;" d="M501,130.2c-3.7,2.6-7.4,5.3-11.1,7.9c-6.5,4.6-11.7,10.4-15.6,17.3c-0.2,0.4-0.4,0.7-0.7,1.1
			c-0.2,0.2-0.4,0.3-0.2,0.1c-3.7-4.4-6.9-9.2-11-13c-3.9-3.7-8.7-6.4-13.1-9.6c-2.6-1.8-5.2-3.7-7.8-5.5c0.3-1.4,1.5-0.9,2.3-0.9
			c5.2,0.4,10.5,1.2,15.7,1.3c9.7,0.3,19.4,1.5,29.2,0.4c3.3-0.3,6.6-0.1,9.8-0.1C499.5,129.4,500.4,129.4,501,130.2z"/>
		<path style="fill:#ECE2AC;" d="M514.2,224.4c22,0.7,40.1-11.8,45.3-32c4.5-17.6-0.5-32.5-14.2-44.6c-0.6-0.5-1-1.1-1.5-1.7
			c4.3,0.8,6.9,4.1,9.5,7.1c7,7.7,10.7,17,11,27.3c0.3,13.4-4.5,24.8-14.7,33.8c-9.6,8.6-21,11.6-33.6,10.6
			C515.5,224.9,514.9,224.6,514.2,224.4z"/>
		<path style="fill:#CDA681;" d="M501,130.2c-5.1,0.2-10.2,0.5-15.2,0.4c-8.2,0-16.4-0.1-24.6-0.6c-6.3-0.3-12.5-1.3-18.7-1.9
			c-0.3,0-0.6,0.3-0.9,0.4c-8.3-5.8-17.7-7.4-27.6-7.3c0.2-1.2,0.4-2.4,0.5-3.6c13.9,5.5,28.5,7.4,43.3,8.3
			c8.8,0.5,17.6,0.9,26.4,0.9c7.9,0,15.9-0.6,23.8-1C505.7,127.3,503.4,128.7,501,130.2z"/>
		<path style="fill:#CDA681;" d="M396.4,214.1c0.7,0.4,1.5,0.6,2.2,1.1c17,12.9,39.5,12,55.5-2.2c0.4-0.4,1-0.6,1.5-0.9
			c-0.7,1-1.3,2.2-2.2,3c-8.3,6.8-17.8,10.5-28.5,10.4c-9.7-0.1-18.6-3.1-26.4-9.1C397.6,215.8,397.1,214.9,396.4,214.1z"/>
		<path style="fill:#CDA681;" d="M546.8,117c1.1,2.2,0.8,3.7-1.8,4.3c-0.6,0.1-1.1,0.9-1.6,1.3c-2.8-0.5-5.6-0.9-8.4-1.4
			C539,119.9,542.9,118.5,546.8,117z"/>
		<path style="fill:#CDA681;" d="M462.3,203.8c1.2-2.6,2.4-5.2,3.7-7.8C464.7,198.6,463.5,201.2,462.3,203.8z"/>
		<path style="fill:#CDA681;" d="M456.6,211c0.9-1,1.7-2.1,2.6-3.1C458.3,209,457.5,210,456.6,211z"/>
		<path style="fill:#CDA681;" d="M393.3,211c0.9,0.9,1.7,1.7,2.6,2.6C395,212.8,394.1,211.9,393.3,211z"/>
		<path style="fill:#CDA681;" d="M460.2,206.9c0.7-1,1.4-2.1,2.1-3.1C461.6,204.8,460.9,205.9,460.2,206.9z"/>
		<path style="fill:#CDA681;" d="M465.9,196c0.4-1.1,0.7-2.1,1.1-3.2C466.6,193.9,466.3,195,465.9,196z"/>
		<path style="fill:#CDA681;" d="M467,192.9c0.2-0.7,0.4-1.5,0.5-2.2C467.3,191.4,467.1,192.2,467,192.9z"/>
		<path style="fill:#CDA681;" d="M459.2,207.9c0.3-0.3,0.7-0.7,1-1C459.9,207.2,459.5,207.6,459.2,207.9z"/>
		<path style="fill:#CDA681;" d="M391.2,208.4c0.2,0.4,0.4,0.7,0.5,1.1C391.5,209.1,391.4,208.8,391.2,208.4z"/>
		<path style="fill:#CDA681;" d="M391.7,209.5c0.2,0.2,0.4,0.4,0.5,0.5C392.1,209.8,391.9,209.7,391.7,209.5z"/>
		<path style="fill:#CDA681;" d="M390.7,207.7c0.2,0.3,0.4,0.5,0.5,0.8C391,208.2,390.8,207.9,390.7,207.7z"/>
		<path style="fill:#CDA681;" d="M392.2,210c0.2,0.2,0.4,0.4,0.5,0.5C392.6,210.3,392.4,210.2,392.2,210z"/>
		<path style="fill:#CDA681;" d="M392.7,210.5c0.2,0.2,0.4,0.4,0.5,0.5C393.1,210.9,392.9,210.7,392.7,210.5z"/>
		<path style="fill:#CDA681;" d="M456.1,211.6c0.2-0.2,0.4-0.3,0.5-0.5C456.4,211.2,456.3,211.4,456.1,211.6z"/>
		<path style="fill:#CDA681;" d="M455.6,212.1c0.2-0.2,0.3-0.3,0.5-0.5C455.9,211.7,455.7,211.9,455.6,212.1z"/>
		<path style="fill:#CDA681;" d="M395.9,213.6c0.2,0.2,0.4,0.4,0.5,0.5C396.2,214,396,213.8,395.9,213.6z"/>
		<path style="fill:#CDA681;" d="M547.5,116.6c-0.2,0.1-0.4,0.3-0.6,0.4C547.1,116.9,547.3,116.8,547.5,116.6z"/>
		<path style="fill:#FEFEFE;" d="M668.3,199.7c0.2-0.4,0.4-0.7,0.7-1.1C668.8,198.9,668.6,199.3,668.3,199.7z"/>
		<path style="fill:#ECB450;" d="M583,113.6c0-0.5,0-1.1,0-1.6C584.2,112.5,584.2,113,583,113.6z"/>
		<path style="fill:#424143;" d="M572.7,53.7c-0.6-0.1-1.2-0.2-1.8-0.3C571.5,53.5,572.1,53.6,572.7,53.7z"/>
		<path style="fill:#ECE2AC;" d="M532,214.2c-2.8,0.9-5.6,2.2-8.5,2.7c-19.1,3.3-38-10.1-41.3-29.1c-3.5-19.7,9.5-38.8,28.9-42.1
			c14.1-2.4,25.9,2.1,35.1,13c0,0.4,0.1,0.8-0.2,1.1c-2.8-1.8-5.5-3.9-7.9-6.1c-7.5-4.7-15.5-5.5-23.9-3.3c-1.3,0.3-2.4,0.9-3.8,1
			c-2.5,0-4.5,1.4-6.4,2.6c-9.7,6.3-15.2,15-15.6,26.8c-0.3,7.5,1.4,14.5,6,20.4c8.3,10.8,19.2,15.3,32.8,13.1
			C528.8,214,530.4,213,532,214.2z"/>
		<path style="fill:#ECE2AC;" d="M424.9,217.4c-19.9,0-36.1-16.2-36.1-36.2c0-20,16.3-36.2,36.5-36.1c20.1,0.1,36.2,16.3,36.1,36.5
			C461.3,201.3,444.9,217.4,424.9,217.4z"/>
		<path style="fill:#F8C23F;" d="M532,214.2c-3.3,0.5-6.6,1.4-9.9,1.4c-15.3,0.3-29.9-9.9-33.4-25.5c-2.7-12.3,0.1-23.2,9-32
			c3.2-3.1,7.5-5,11.4-7.4c0.3-0.2,0.8,0.1,1.2,0.1c0.1,1.3-1,1.5-1.8,1.9c-10,5.7-15.5,14.5-15.6,25.8
			c-0.2,15.3,10.4,27.1,25.2,29.8c12.5,2.3,27.6-5.8,32.1-17.4c0.1-0.3,0.3-0.6,0.5-0.9c0.5-0.6,0.8-1.3,1.3-1.9
			c0.9-1.1,1.2-0.3,1.4,0.6c-0.1,0.5-0.2,1-0.3,1.5c-0.5,1.5-1,3-1.6,4.5c0.1,0.1,0,0.2-0.1,0.2c-0.4,0.2-0.3,0.8-0.6,1
			c-0.3,0.7-0.7,1.4-1,2.1c-0.6,0.9-1,1.9-1.5,2.8c0,0.1,0,0.3-0.2,0.3c-0.3,0.4-0.6,0.7-0.9,1.1l0,0c-0.3,0.1-0.5,0.3-0.5,0.6l0,0
			c-0.7,0.1-0.2,0.9-0.7,1.1c-0.1,0.1-0.2,0.3-0.4,0.4c-0.3,0.1-0.5,0.3-0.6,0.7c-0.1,0.1-0.2,0.3-0.4,0.4c-0.3,0-0.6,0.2-0.7,0.6
			l0,0c-0.3,0.1-0.5,0.2-0.6,0.6l0,0c-0.3,0.1-0.5,0.2-0.6,0.5l0,0c-0.3,0.1-0.5,0.3-0.6,0.6l0,0c-0.3,0.1-0.5,0.3-0.6,0.6
			c-0.2,0.1-0.3,0.3-0.5,0.4c-0.5,0.2-0.8,0.6-1.2,1l0,0c-0.8,0.6-1.9,0.8-2.5,1.7l0,0c-1.6,0.7-3.1,1.5-4.6,2.5
			C532.8,214,532.2,213.8,532,214.2L532,214.2z"/>
		<path style="fill:#B57B50;" d="M545.9,159.6c0.1-0.3,0.2-0.6,0.3-0.9c4.8,5.5,7.3,11.9,7.8,19.1c-0.8-0.1-1-1-1.5-1.5
			c-1.3-3.5-1.4-7.4-3.5-10.7c-0.5-0.9-0.9-1.9-1.8-2.4C546.3,162.2,545.6,161.1,545.9,159.6z"/>
		<path style="fill:#E4AA40;" d="M553,176.3c0.3,0.5,0.7,1,1,1.5c-0.3,3.6-0.5,7.3-0.8,10.9c-0.4,0-0.9-0.2-1.1,0
			c-0.5,0.4-0.8,1-1.2,1.5c-0.3-0.4-0.4-0.8-0.3-1.2C551.7,184.8,552.3,180.6,553,176.3z"/>
		<path style="fill:#ECB450;" d="M533,213.4c1.6-0.7,3.2-1.5,4.8-2.2c-1.6,0.9-3.2,1.9-4.7,2.8C532.7,213.9,532.7,213.7,533,213.4z"
			/>
		<path style="fill:#E4AA40;" d="M551.3,194.7c0.5-1.5,1.1-3,1.6-4.5C552.3,191.8,551.8,193.3,551.3,194.7z"/>
		<path style="fill:#ECB450;" d="M548.1,200.9c0.5-0.9,1-1.9,1.5-2.8C549.1,199,548.6,199.9,548.1,200.9z"/>
		<path style="fill:#ECB450;" d="M537.8,211.2c0.8-0.6,1.6-1.1,2.5-1.7C539.4,210.1,538.6,210.6,537.8,211.2z"/>
		<path style="fill:#ECB450;" d="M547.1,202.3c0.3-0.4,0.6-0.8,0.9-1.1C547.7,201.6,547.4,202,547.1,202.3z"/>
		<path style="fill:#ECB450;" d="M540.2,209.5c0.4-0.3,0.8-0.6,1.2-1C541,208.8,540.6,209.2,540.2,209.5z"/>
		<path style="fill:#ECB450;" d="M545.9,204c0.2-0.4,0.5-0.7,0.7-1.1C546.4,203.2,546.2,203.6,545.9,204z"/>
		<path style="fill:#E4AA40;" d="M550.6,196c0.2-0.3,0.4-0.7,0.6-1C551,195.3,550.8,195.7,550.6,196z"/>
		<path style="fill:#ECE2AC;" d="M533,213.4c0,0.2,0,0.4,0,0.6c-0.4,0.1-0.7,0.1-1.1,0.2C532.3,214,532.6,213.7,533,213.4z"/>
		<path style="fill:#ECB450;" d="M546.6,202.9c0.2-0.2,0.3-0.4,0.5-0.6C546.9,202.5,546.7,202.7,546.6,202.9z"/>
		<path style="fill:#ECB450;" d="M545,205c0.2-0.2,0.4-0.4,0.6-0.7C545.4,204.6,545.2,204.8,545,205z"/>
		<path style="fill:#ECB450;" d="M543.4,206.5c0.2-0.2,0.4-0.4,0.6-0.6C543.8,206.1,543.6,206.3,543.4,206.5z"/>
		<path style="fill:#ECB450;" d="M542.9,207c0.2-0.2,0.4-0.4,0.6-0.5C543.3,206.7,543.1,206.8,542.9,207z"/>
		<path style="fill:#ECB450;" d="M542.4,207.5c0.2-0.2,0.4-0.4,0.6-0.6C542.8,207.2,542.6,207.4,542.4,207.5z"/>
		<path style="fill:#ECB450;" d="M541.9,208.1c0.2-0.2,0.4-0.4,0.6-0.6C542.2,207.7,542,207.9,541.9,208.1z"/>
		<path style="fill:#ECB450;" d="M544,206c0.2-0.2,0.4-0.4,0.7-0.6C544.4,205.6,544.2,205.8,544,206z"/>
		<path style="fill:#382A1B;" d="M553,176.3c-0.7,4.6-1.4,9.3-2.1,13.9c-7.1,19.1-34.5,27-50.8,9.3c-13.9-15.1-9.6-38.3,8.7-47.9
			c0.4-0.2,0.9-0.5,1.3-0.8c8.8-3.4,17.6-3.3,26.1,0.9c0.9,0.4,1.7,1.2,2.5,1.8c-0.5,1.5-1.6,0.8-2.6,0.7c-7.6-1.3-14.4,3.5-15.8,11
			c-1.4,7.1,3.6,14.4,10.8,15.9c9.6,2,18.1-6.4,16.3-15.9c-0.2-0.8-0.6-1.7,0.1-2.4c0.6,0.6,1.5,1.2,1.8,1.9
			C550.6,168.6,551.8,172.5,553,176.3z"/>
		<path style="fill:#FBFBFA;" d="M547.5,162.8c2.1,7.5-0.6,14.3-6.9,17.7c-6,3.1-13.4,1.6-17.8-3.6c-4-4.8-4.4-11.6-1-16.9
			c3.4-5.3,9.5-7.7,15.5-6.1c0.5,0.1,1-0.2,1.5-0.3c2.4,2,4.8,4.1,7.2,6.1C546.5,160.7,547,161.7,547.5,162.8z"/>
		<path style="fill:#382A1B;" d="M453.1,162.8c0.8,0.8,1.8,1.5,2.3,2.4c3.9,7.7,4.2,15.7,1.8,23.9c-1,5.5-4.3,9.5-8.3,13.1
			c-5.6,5-12.4,7.8-19.8,7.9c-18.1,0.4-31.7-14.3-31.9-29.6c-0.1-6.9,1.2-13.2,5.1-18.9c0.3-0.4,0.6-0.7,0.8-1.1
			c0.1-0.2,0.3-0.3,0.4-0.5c0.2-0.2,0.4-0.4,0.6-0.6c0.1-0.1,0.2-0.3,0.3-0.4c0.1-0.2,0.3-0.4,0.4-0.7c0.1-0.2,0.2-0.3,0.3-0.4
			c0.1-0.1,0.2-0.3,0.3-0.4c0,0,0.2-0.2,0.2-0.2c0.1-0.1,0.2-0.2,0.4-0.4c0,0,0.2-0.2,0.2-0.2c0.1-0.1,0.2-0.2,0.4-0.4
			c0,0,0.2-0.2,0.2-0.2c0.1-0.1,0.2-0.2,0.4-0.3c0.1-0.1,0.3-0.2,0.4-0.3c0.2-0.1,0.4-0.3,0.6-0.4c0.2-0.2,0.4-0.3,0.6-0.5
			c0.1-0.1,0.3-0.2,0.4-0.4c0.1-0.1,0.3-0.2,0.5-0.3c0.2-0.1,0.5-0.3,0.7-0.5c0.2-0.2,0.4-0.4,0.7-0.6c0.2-0.1,0.3-0.3,0.5-0.4
			c0.2-0.1,0.4-0.2,0.6-0.3c2.7-1.2,5.2-2.8,8.3-3.1c0.3-0.1,0.6-0.1,1-0.2c0.3,0.1,0.5-0.2,0.7-0.2c7.1-1,13.9-0.4,20.3,3.1
			c0.8,0.4,1.3,1.4,1.9,2.1c-2.2,0.8-4.4-0.3-6.6,0c-6.4,0.9-11.3,6-11.9,12.8c-0.6,6.1,3.7,12.1,10.1,14c5.9,1.8,12.6-1,15.5-6.4
			c1.5-2.7,2.3-5.6,1.6-8.7C452.7,164.8,452.2,163.7,453.1,162.8z"/>
		<path style="fill:#FBFBFA;" d="M453.1,162.8c1.9,8.6-1.1,15.3-8.1,18.2c-5.9,2.4-12.7,0.7-16.7-4.2c-4-4.9-4.3-11.9-0.8-17.2
			c3.6-5.3,9.9-7.5,16.2-5.6c0.2,0,0.3,0,0.5,0c1.2,0.6,2.4,1.1,3.5,1.7C450.5,157.3,451.9,160,453.1,162.8z"/>
		<path style="fill:#F8C23F;" d="M403.1,161.2c-5.4,8.5-7.1,17.6-3.9,27.3c3.9,12,14.6,20,27.4,20.9c12,0.8,23.7-6.2,29.1-17.3
			c0.5-1,1-2,1.5-3c-0.4,2.1-0.4,4.4-1.3,6.3c-5.6,11.7-14.7,18.5-27.8,20c-16.6,1.9-33.5-10.7-36-27.5c-2-13.9,2.3-24.9,13.9-32.9
			c1.7-1.2,3.6-2.1,5.5-3.1c0.4,0.4,0.4,0.9,0.2,1.4l0-0.1c-0.3,0-0.5,0.2-0.6,0.5c-0.2,0.1-0.4,0.3-0.6,0.4
			c-0.2,0.3-0.8,0.2-0.9,0.6l0-0.1c-0.3,0.1-0.5,0.3-0.6,0.5c-0.2,0.2-0.4,0.3-0.5,0.5c-0.2,0.3-0.9,0.1-0.9,0.7l0,0
			c-0.4,0-0.6,0.2-0.5,0.5l0,0c-0.4,0-0.6,0.2-0.5,0.5l0,0c-0.4,0-0.6,0.2-0.5,0.6l0,0c-0.4,0-0.6,0.2-0.5,0.6l0,0
			c-0.6,0-0.4,0.7-0.7,0.9l0,0c-0.4,0.3-0.8,0.7-1,1.1l0-0.1C403.3,160.4,403.4,161,403.1,161.2z"/>
		<path style="fill:#ECB450;" d="M411.6,153.1c-0.1-0.5-0.1-0.9-0.2-1.4c2.6-2,5.6-2.9,8.9-2.5C417.4,150.6,414.5,151.8,411.6,153.1
			z"/>
		<path style="fill:#ECB450;" d="M422,148.9c-0.2,0.1-0.5,0.1-0.7,0.2C421.5,149,421.7,148.9,422,148.9z"/>
		<path style="fill:#ECB450;" d="M403.7,160.3c0.3-0.4,0.6-0.8,1-1.1C404.4,159.6,404.1,160,403.7,160.3z"/>
		<path style="fill:#ECB450;" d="M404.7,159.2c0.2-0.3,0.5-0.6,0.7-0.9C405.2,158.6,404.9,158.9,404.7,159.2z"/>
		<path style="fill:#ECB450;" d="M403.1,161.2c0.2-0.3,0.4-0.6,0.6-1C403.6,160.6,403.3,160.9,403.1,161.2z"/>
		<path style="fill:#ECB450;" d="M407.4,156.3c0.3-0.2,0.6-0.5,0.9-0.7C408,155.8,407.7,156,407.4,156.3z"/>
		<path style="fill:#ECB450;" d="M409.4,154.6c0.3-0.2,0.6-0.4,0.9-0.6C410,154.2,409.7,154.4,409.4,154.6z"/>
		<path style="fill:#ECB450;" d="M405.4,158.3c0.2-0.2,0.4-0.4,0.5-0.6C405.7,158,405.5,158.1,405.4,158.3z"/>
		<path style="fill:#ECB450;" d="M406.9,156.8c0.2-0.2,0.4-0.4,0.5-0.5C407.3,156.4,407.1,156.6,406.9,156.8z"/>
		<path style="fill:#ECB450;" d="M405.9,157.8c0.2-0.2,0.4-0.4,0.5-0.6C406.2,157.4,406,157.6,405.9,157.8z"/>
		<path style="fill:#ECB450;" d="M410.9,153.6c0.2-0.2,0.4-0.3,0.6-0.5C411.4,153.2,411.2,153.4,410.9,153.6z"/>
		<path style="fill:#ECB450;" d="M408.9,155.1c0.2-0.2,0.4-0.4,0.6-0.5C409.3,154.8,409.1,154.9,408.9,155.1z"/>
		<path style="fill:#ECB450;" d="M406.4,157.3c0.2-0.2,0.4-0.4,0.5-0.5C406.7,156.9,406.6,157.1,406.4,157.3z"/>
	</g>
</g>
</svg>
