<?xml version="1.0" encoding="UTF-8"?><svg id="a" xmlns="http://www.w3.org/2000/svg" width="100%" height="100%" preserveAspectRatio="xMidYMid meet" viewBox="-350 0 2596.6 790.13"><g id="b"><g opacity=".5"><path d="M1657.52,36.58c-93.69-3.21-183.94,67.58-210.67,90.54-26.73-22.96-116.97-93.75-210.67-90.54-111.69,3.84-218.85,90.11-205.22,249.25s128.03,317.3,415.9,465.89h0c287.85-148.57,402.27-295.31,415.9-454.45,13.62-159.14-93.53-256.85-205.22-260.69Z" fill="#ff9fd6" stroke-width="0"/></g><g opacity=".5"><path d="M660.45,36.58c-93.69-3.21-183.93,67.58-210.67,90.54-26.73-22.96-116.97-93.75-210.67-90.54-111.69,3.84-218.85,90.11-205.22,249.25s128.03,317.3,415.89,465.89h0s0,0,0,0c287.85-148.58,402.27-306.75,415.9-465.89,13.63-159.13-93.52-245.41-205.21-249.25Z" fill="#ff9fd6" stroke-width="0"/></g><polygon points="1863.76 179.93 1325.41 706.84 1236.06 617.49 1774.41 90.58 1863.76 179.93" fill="#fff" isolation="isolate" opacity=".5" stroke-width="0"/><polygon points="1724.49 66.29 1186.15 593.21 1147.59 554.65 1685.93 16.29 1724.49 66.29" fill="#fff" isolation="isolate" opacity=".5" stroke-width="0"/><rect x="164.93" y="332.68" width="761.33" height="126.36" transform="translate(-120.12 501.74) rotate(-45)" fill="#fff" isolation="isolate" opacity=".5" stroke-width="0"/><rect x="51.05" y="280.35" width="761.33" height="54.54" transform="translate(-91.07 395.37) rotate(-45)" fill="#fff" isolation="isolate" opacity=".5" stroke-width="0"/><path d="M1838.53,99.36c-43.67-52.13-109.26-94.85-179.94-97.26-86.7-3.12-167.23,47.31-211.74,81.49-44.5-34.17-125.34-84.69-211.73-81.49-70.7,2.4-136.27,33.7-179.95,85.83-12.18,14.55-22.31,30.53-30.71,47.54-25.29-3.95-59.44-8.78-75.46-8.78s-50.59,4.88-75.92,8.85c-8.57-17.77-18.97-34.46-31.63-49.57C797.77,33.85,732.18,2.56,661.5.14c-86.75-3.12-167.22,47.31-211.74,81.49C405.26,47.46,324.36-3.06,238.04.14,167.34,2.54,101.76,33.85,58.09,85.97,14.17,138.4-5.46,207.88,1.3,286.97c16.26,189.87,158.25,351.39,434.1,493.79l14.37,7.42,14.37-7.42c272.56-140.71,414.19-300.14,433.22-487.09,14.32-6.13,31.27-10.55,51.62-10.55s35.9,4.17,49.93,10.02c18.01,188.03,159.77,348.23,433.55,489.57l14.37,7.42,14.37-7.42c275.84-142.4,417.82-292.49,434.08-482.37,6.8-79.07-12.83-148.57-56.75-200.99ZM833.11,280.77c-13.75,160.69-139.18,301.61-383.33,430.48C205.64,582.37,80.21,441.46,66.46,280.77c-5.12-59.69,8.94-111.23,40.64-149.07,31.79-37.97,80.3-60.75,133.09-62.57,1.75-.05,3.49-.09,5.22-.09,80.86,0,160.79,63.18,183.75,82.88l20.64,17.73,20.63-17.73c23.44-20.1,106.5-84.83,188.97-82.79h.01c52.78,1.82,101.28,24.61,133.07,62.57,31.69,37.84,45.75,89.38,40.63,149.07ZM1830.19,294.16c-13.75,160.69-139.18,290.18-383.33,419.05-244.15-128.88-369.59-269.79-383.34-430.48-5.12-59.69,8.94-111.23,40.64-149.07,31.79-37.97,80.3-60.75,133.09-62.57,1.75-.05,3.49-.09,5.22-.09,80.86,0,160.8,63.18,183.75,82.88l20.64,17.73,20.63-17.73c23.44-20.1,106.57-84.83,188.97-82.79h.01c52.77,1.82,101.28,36.03,133.07,74,31.7,37.84,45.76,89.38,40.64,149.07Z" fill="#ff629a" stroke-width="0"/></g></svg>