<?xml version="1.0" encoding="UTF-8"?><svg id="a" xmlns="http://www.w3.org/2000/svg" width="100%" height="100%" preserveAspectRatio="xMidYMid meet" viewBox="-30 0 259.43 100.91"><path d="M47.66,75.11c-12.88,0-23.67-10.07-24.57-22.93v-.22c-.05-.5-.08-1-.08-1.51,0-13.59,11.06-24.65,24.65-24.65s24.65,11.06,24.65,24.65c0,.5-.03.99-.07,1.49l-.02.24c-.89,12.86-11.68,22.93-24.57,22.93Z" fill="#000" isolation="isolate" opacity=".84" stroke-width="0"/><path d="M151.76,75.11c-12.88,0-23.67-10.07-24.57-22.93v-.22c-.05-.5-.09-1-.09-1.51,0-13.59,11.06-24.65,24.65-24.65s24.65,11.06,24.65,24.65c0,.5-.03.99-.07,1.49l-.02.24c-.89,12.86-11.68,22.93-24.57,22.93Z" fill="#000" isolation="isolate" opacity=".84" stroke-width="0"/><path d="M198.97,37.06c.89-1.35.45-3.93-.91-4.45-6.34-2.34-16.01-4.63-26.68-6.6-.92-.17-1.74-.77-2.19-1.6-5.22-9.68-10.66-18.25-15.14-23.57-.98-1.12-3.59-1.12-4.57,0-4.49,5.32-9.92,13.89-15.14,23.57-.45.83-1.27,1.43-2.19,1.6-10.66,1.96-20.33,4.26-26.68,6.6-.96.37-1.44,1.74-1.35,3-.06,4.48-2.21,6.78-4.4,6.82-2.21-.04-4.37-2.37-4.41-6.91.06-1.23-.43-2.55-1.36-2.91-6.34-2.34-16.01-4.63-26.68-6.6-.92-.17-1.74-.77-2.19-1.6-5.22-9.68-10.66-18.25-15.15-23.57-.98-1.12-3.59-1.12-4.57,0-4.49,5.32-9.92,13.89-15.14,23.57-.45.83-1.27,1.43-2.19,1.6-10.67,1.97-20.33,4.26-26.68,6.6-1.36.52-1.8,3.1-.92,4.45,4.14,6.24,10.03,13.92,17.4,21.83.63.68.95,1.62.85,2.51-1.19,10.43-1.77,19.73-1.9,27.23-.03,1.65,2.39,2.77,4.07,2.07,7.69-3.14,16.01-6.04,25.49-10.11.81-.35,1.78-.35,2.59,0,9.47,4.07,17.8,6.97,25.49,10.11,1.68.7,4.11-.42,4.07-2.07-.13-7.49-.71-16.79-1.9-27.22-.1-.89.22-1.84.85-2.51,6.4-6.86,11.68-13.56,15.67-19.29.14,1.06.35,1.95.61,2.69,1.21,3.62,3.57,3.63,5.91,3.63h.12c2.34,0,4.69-.01,5.91-3.63.26-.74.47-1.62.61-2.68,3.99,5.72,9.27,12.42,15.66,19.28.63.68.95,1.62.85,2.51-1.18,10.43-1.77,19.73-1.9,27.23-.04,1.65,2.39,2.77,4.07,2.07,7.69-3.14,16.01-6.04,25.49-10.11.81-.35,1.78-.35,2.59,0,9.47,4.07,17.8,6.97,25.49,10.11,1.68.7,4.11-.42,4.07-2.07-.13-7.49-.71-16.79-1.9-27.22-.1-.89.22-1.84.85-2.51,7.37-7.91,13.26-15.59,17.4-21.83ZM73.24,52.01l-.02.24c-.93,13.38-12.16,23.86-25.57,23.86s-24.63-10.48-25.57-23.86v-.22c-.05-.52-.09-1.04-.09-1.57,0-14.15,11.51-25.65,25.65-25.65s25.65,11.51,25.65,25.65c0,.53-.03,1.04-.07,1.56ZM177.34,52.01l-.02.24c-.93,13.38-12.16,23.86-25.57,23.86s-24.63-10.48-25.57-23.86v-.22c-.05-.52-.09-1.04-.09-1.57,0-14.15,11.51-25.65,25.65-25.65s25.65,11.51,25.65,25.65c0,.53-.03,1.04-.07,1.56Z" fill="#fe9700" stroke-width="0"/><path d="M47.66,24.8c-14.15,0-25.65,11.51-25.65,25.65,0,.53.03,1.06.07,1.57v.22c.95,13.38,12.18,23.86,25.58,23.86s24.64-10.48,25.57-23.86l.02-.24c.04-.52.07-1.03.07-1.56,0-14.14-11.51-25.65-25.65-25.65ZM71.23,52.11c-.85,12.29-11.07,22-23.57,22s-22.72-9.71-23.57-22c-.04-.55-.08-1.1-.08-1.66,0-13.06,10.59-23.65,23.65-23.65s23.65,10.59,23.65,23.65c0,.56-.05,1.11-.08,1.66Z" fill="#feb64d" stroke-width="0"/><path d="M151.76,24.8c-14.15,0-25.65,11.51-25.65,25.65,0,.53.04,1.06.07,1.57v.22c.95,13.38,12.18,23.86,25.58,23.86s24.63-10.48,25.57-23.86l.02-.24c.04-.52.07-1.03.07-1.56,0-14.15-11.51-25.65-25.65-25.65ZM175.33,52.11c-.85,12.29-11.07,22-23.57,22s-22.72-9.71-23.57-22c-.04-.55-.08-1.1-.08-1.66,0-13.06,10.59-23.65,23.65-23.65s23.65,10.59,23.65,23.65c0,.56-.05,1.11-.08,1.66Z" fill="#feb64d" stroke-width="0"/><path d="M184.84,43.77c-2.39,0-4.33,1.94-4.33,4.33s1.94,4.33,4.33,4.33h12.33v-8.65h-12.33Z" fill="#f47c00" stroke-width="0"/><path d="M185.98,48.1c0,.87-.71,1.58-1.58,1.58s-1.58-.71-1.58-1.58.71-1.58,1.58-1.58c.87,0,1.58.71,1.58,1.58Z" fill="#feea3c" stroke-width="0"/><path d="M190.81,48.1c0,.87-.71,1.58-1.58,1.58s-1.58-.71-1.58-1.58.71-1.58,1.58-1.58c.87,0,1.58.71,1.58,1.58Z" fill="#feea3c" stroke-width="0"/><path d="M195.63,48.1c0,.87-.71,1.58-1.58,1.58s-1.58-.71-1.58-1.58.71-1.58,1.58-1.58c.87,0,1.58.71,1.58,1.58Z" fill="#feea3c" stroke-width="0"/><path d="M14.33,43.77H2v8.65h12.33c2.39,0,4.33-1.94,4.33-4.33s-1.94-4.33-4.33-4.33Z" fill="#f47c00" stroke-width="0"/><path d="M13.2,48.1c0,.87.71,1.58,1.58,1.58s1.58-.71,1.58-1.58-.71-1.58-1.58-1.58c-.87,0-1.58.71-1.58,1.58Z" fill="#feea3c" stroke-width="0"/><path d="M8.37,48.1c0,.87.71,1.58,1.58,1.58s1.58-.71,1.58-1.58-.71-1.58-1.58-1.58c-.87,0-1.58.71-1.58,1.58Z" fill="#feea3c" stroke-width="0"/><path d="M3.54,48.1c0,.87.71,1.58,1.58,1.58s1.58-.71,1.58-1.58-.71-1.58-1.58-1.58c-.87,0-1.58.71-1.58,1.58Z" fill="#feea3c" stroke-width="0"/></svg>