<?xml version="1.0" encoding="UTF-8"?><svg id="a" xmlns="http://www.w3.org/2000/svg" width="100%" height="100%" preserveAspectRatio="xMidYMid meet" viewBox="-370 0 2629.65 768.75"><g id="b"><path d="M1469.18,29.87c128.96-.41,421.7-14.54,430.36,298,8.65,312.55-249.8,442.16-398.21,430.04-148.4-12.11-441.24-210.57-441.49-491.83-.23-247.12,292.99-235.84,409.34-236.22Z" fill="#46435a" isolation="isolate" opacity=".8" stroke-width="0"/><path d="M1520.13,768.75c-6.85,0-13.39-.27-19.59-.78-154.57-12.62-450.35-217.9-450.6-501.87-.06-64.62,19.56-117.36,58.29-156.74,88.27-89.79,255.3-89.54,345.16-89.54l30.83-.08c135.12-1.11,416.6-2.84,425.21,307.86,4.61,166.67-65.43,270.23-125.03,327.77-87.34,84.34-192.49,113.35-264.27,113.37ZM1444.57,39.93c-88.65,0-242.57,2.51-322.35,83.64-34.88,35.47-52.54,83.43-52.49,142.52.24,272.63,284.05,469.7,432.39,481.83,72.38,5.67,183.54-24.96,268.67-107.14,56.65-54.71,123.27-153.34,118.86-312.63-8.06-291.02-266.55-289.16-405.29-288.3l-30.98.08c-2.86,0-5.81,0-8.82,0Z" fill="#002c51" stroke-width="0"/><path d="M440.48,19.85C311.5,19.44,18.78,5.31,10.11,317.85c-8.65,312.55,249.81,442.16,398.21,430.04s441.24-210.57,441.49-491.83c.22-247.12-293-235.85-409.34-236.22Z" fill="#46435a" isolation="isolate" opacity=".8" stroke-width="0"/><path d="M125.24,645.35C65.66,587.8-4.39,484.24.22,317.57,8.82,6.85,290.3,8.58,425.42,9.71l30.83.08c89.86,0,256.89-.26,345.17,89.53,38.73,39.38,58.35,92.12,58.29,156.74-.25,283.97-296.02,489.26-450.6,501.87-6.2.51-12.74.78-19.59.78-71.79-.01-176.94-29.01-264.28-113.36ZM456.28,29.9l-30.98-.08c-138.74-.87-397.23-2.73-405.29,288.3-4.42,159.28,62.2,257.91,118.85,312.63,85.13,82.18,196.28,112.81,268.67,107.14,148.34-12.12,432.15-209.2,432.39-481.83.05-59.09-17.61-107.05-52.49-142.52-79.77-81.13-233.69-83.64-322.35-83.64h-8.81Z" fill="#002c51" stroke-width="0"/><path d="M964.35,42.82c-110.58-.64-442.94-22.53-446.29-22.74l1.29-20.08c3.33.21,335.11,22.06,445.11,22.7s442-17.33,445.33-17.51l1.07,20.09c-3.35.18-335.94,18.18-446.51,17.54Z" fill="#002c51" stroke-width="0"/><path d="M1055.45,219.8c-.38-.2-38.83-19.08-106.28-19.08s-97.86,18.49-98.17,18.69l-10.24-17.21c1.42-.89,35.73-21.59,108.41-21.59s113.39,20.33,115.09,21.19l-8.82,18Z" fill="#002c51" stroke-width="0"/><path d="M1382.15,485.31c0-164.04,77.17-309.7,196.55-401.64-49.49-7.16-97.54-5.93-131.45-5.81-93.26.3-328.31-8.75-328.13,189.36.17,189.08,165.29,331.43,288.73,378.19-16.58-50.32-25.71-104.12-25.71-160.11Z" fill="#fff" isolation="isolate" opacity=".2" stroke-width="0"/><path d="M275.94,490.04c0-182.26,99.25-339.21,242.12-410.73-33.2-1.78-63.4-1.36-85.76-1.43-107.99-.34-353.13-12.17-360.37,249.54-5.65,203.91,124.49,314.82,241.03,349.07-23.72-56.87-37.03-119.95-37.03-186.45Z" fill="#fff" isolation="isolate" opacity=".2" stroke-width="0"/></g></svg>