<?xml version="1.0" encoding="UTF-8"?><svg id="a" xmlns="http://www.w3.org/2000/svg" width="100%" height="100%" preserveAspectRatio="xMidYMid meet" viewBox="-30 10 252.53 120.33"><path d="M19.92,0c-9.76,8.06-2.81,21.13-.07,24.98.29-.16.56-.35.83-.55,1.03-10.97-1.59-21.64-.76-24.42Z" fill="#66ba6a" stroke-width="0"/><path d="M19.92,0c-.83,2.78,1.79,13.46.76,24.42,6.45-4.74,9.38-18.96-.76-24.42Z" fill="#4caf50" stroke-width="0"/><path d="M43.29,17.04c-8.95-3.97-20.99.19-22.77,6.99.04.35.24.69.51,1.01,9.37-6.54,17.4-6.72,22.26-8Z" fill="#4caf50" stroke-width="0"/><path d="M21.04,25.04c.89,1.04,2.61,1.87,2.61,1.87,17.53.39,19.64-9.86,19.64-9.86-4.85,1.28-12.89,1.45-22.25,8Z" fill="#66ba6a" stroke-width="0"/><path d="M176.05,34.29c-.29-1.29-.51-4.36-.61-7.17-.07-1.8-1.55-3.23-3.36-3.23s-3.29,1.42-3.36,3.23c-.1,2.81-.32,5.88-.61,7.17-1.33,3.8-3.62,4.11-4.32,6.61h16.58c-.7-2.5-2.99-2.8-4.32-6.61Z" fill="#4e342e" stroke-width="0"/><path d="M180.37,40.9h-16.58c-.13.47-.21,1.01-.21,1.67h0s0,.09,0,.14l8.5-.07,8.5.07c0-.05,0-.1,0-.14h0c0-.66-.08-1.2-.21-1.67Z" fill="#3e2723" stroke-width="0"/><path d="M24.43,34.29c-.29-1.29-.51-4.36-.61-7.17-.07-1.8-1.55-3.23-3.36-3.23s-3.29,1.42-3.36,3.23c-.1,2.81-.32,5.88-.61,7.17-1.15,3.3-3.04,3.96-3.97,5.71h15.88c-.93-1.75-2.82-2.41-3.97-5.71Z" fill="#4e342e" stroke-width="0"/><path d="M28.4,40.01h-15.88c-.35.65-.56,1.43-.56,2.56h0s0,.09,0,.14l8.5-.07,8.5.07c0-.05,0-.1,0-.14h0c0-1.13-.22-1.92-.56-2.56Z" fill="#3e2723" stroke-width="0"/><path d="M.01,12.03c6.09,3.29,16.47,8.76,20.32,12.86C19.03,19.37,12.44,10.79.01,12.03Z" fill="#4caf50" stroke-width="0"/><path d="M.01,12.03c-.5,8.7,13.48,16.65,20.32,12.86C16.48,20.8,6.1,15.33.01,12.03Z" fill="#66ba6a" stroke-width="0"/><path d="M21.11,25.49c0,1.92-1.55,3.47-3.47,3.47s-3.47-1.56-3.47-3.47,1.55-3.47,3.47-3.47c1.92,0,3.47,1.56,3.47,3.47Z" fill="#6d4c41" stroke-width="0"/><circle cx="23.28" cy="25.49" r="3.47" fill="#6d4c41" stroke-width="0"/><rect x="75.46" y="42.44" width="45.31" height="1.15" fill="#bfc933" stroke-width="0"/><rect x="75.46" y="45" width="45.31" height="1.15" fill="#bfc933" stroke-width="0"/><rect x="82.73" y="47.56" width="27.88" height="1.15" fill="#bfc933" stroke-width="0"/><rect x="85.2" y="50.12" width="23.24" height="1.15" fill="#bfc933" stroke-width="0"/><rect x="85.56" y="52.68" width="21.11" height="1.15" fill="#bfc933" stroke-width="0"/><rect x="86.94" y="55.24" width="18.66" height="1.15" fill="#bfc933" stroke-width="0"/><path d="M186.69,49.68c.05-4.26-.05-7.24-.05-7.24h-71.06c-9.42,0-14.74,7.17-14.74,15.56h-9.13c0-8.4-5.32-15.56-14.74-15.56H5.9s-.1,2.97-.05,7.24h-3.83v8.65h4.12c.32,5.48.97,11.28,2.22,15.44,3.71,12.3,7.45,23.55,40.93,23.55s40.73-14.75,42.19-26.98c.29-2.46,2.33-4.3,4.79-4.38,2.45.08,4.49,1.93,4.79,4.38,1.46,12.23,9.76,26.98,42.19,26.98s37.22-11.25,40.93-23.55c1.26-4.16,1.9-9.96,2.22-15.44h4.12v-8.65h-3.83ZM45.55,91.2c-36.27-.97-32.64-29.29-33.38-43.12h63.56c5.31,0,10.12,6.29,10.12,15.06s-4.66,29.01-40.31,28.06ZM146.98,91.2c-35.64.95-40.3-19.29-40.3-28.06s4.81-15.06,10.12-15.06h63.56c-.74,13.82,2.89,42.15-33.38,43.11Z" fill="#d3df56" stroke-width="0"/><path d="M172.62,0c9.75,8.06,2.81,21.13.07,24.98-.28-.16-.56-.35-.83-.55-1.03-10.97,1.59-21.64.76-24.42Z" fill="#66ba6a" stroke-width="0"/><path d="M172.62,0c.83,2.78-1.79,13.46-.76,24.42-6.45-4.74-9.38-18.96.76-24.42Z" fill="#4caf50" stroke-width="0"/><path d="M149.24,17.04c8.95-3.97,20.99.19,22.76,6.99-.04.35-.24.69-.51,1.01-9.37-6.54-17.4-6.72-22.25-8Z" fill="#4caf50" stroke-width="0"/><path d="M171.5,25.04c-.89,1.04-2.61,1.87-2.61,1.87-17.53.39-19.64-9.86-19.64-9.86,4.85,1.28,12.89,1.45,22.25,8Z" fill="#66ba6a" stroke-width="0"/><path d="M192.52,12.03c-6.09,3.29-16.47,8.76-20.32,12.86,1.31-5.53,7.89-14.11,20.32-12.86Z" fill="#4caf50" stroke-width="0"/><path d="M192.52,12.03c.5,8.7-13.48,16.65-20.32,12.86,3.85-4.1,14.23-9.57,20.32-12.86Z" fill="#66ba6a" stroke-width="0"/><path d="M171.43,25.49c0,1.92,1.55,3.47,3.47,3.47s3.47-1.56,3.47-3.47-1.56-3.47-3.47-3.47c-1.92,0-3.47,1.56-3.47,3.47Z" fill="#6d4c41" stroke-width="0"/><path d="M165.78,25.49c0,1.92,1.55,3.47,3.47,3.47s3.47-1.56,3.47-3.47-1.55-3.47-3.47-3.47c-1.92,0-3.47,1.56-3.47,3.47Z" fill="#6d4c41" stroke-width="0"/><path d="M75.74,48.09H12.18c.74,13.82-2.89,42.14,33.38,43.11,35.64.95,40.3-19.29,40.3-28.06,0-8.76-4.81-15.06-10.12-15.06Z" fill="#000" isolation="isolate" opacity=".84" stroke-width="0"/><path d="M106.67,63.15c0,8.76,4.66,29.01,40.3,28.06,36.27-.97,32.64-29.29,33.38-43.12h-63.56c-5.31,0-10.12,6.3-10.12,15.06Z" fill="#000" isolation="isolate" opacity=".84" stroke-width="0"/><path d="M188,57.18h0c-.68,0-1.24-.56-1.24-1.24v-3.93c0-.68.56-1.24,1.24-1.24h0c.68,0,1.24.56,1.24,1.24v3.93c0,.69-.56,1.24-1.24,1.24Z" fill="#bfc933" stroke-width="0"/><path d="M4.51,57.18h0c-.68,0-1.24-.56-1.24-1.24v-3.93c0-.68.56-1.24,1.24-1.24h0c.68,0,1.24.56,1.24,1.24v3.93c0,.69-.56,1.24-1.24,1.24Z" fill="#bfc933" stroke-width="0"/></svg>