<?xml version="1.0" encoding="UTF-8"?><svg id="a" xmlns="http://www.w3.org/2000/svg" width="100%" height="100%" preserveAspectRatio="xMidYMid meet" viewBox="-20 0 228.12 64.81"><path d="M178.22,7.92c-.24,0-.28,0-.66,0-9.36,0-45.15,4.52-61.32,8.55-2.93.73-4.86,1.9-5.71,3.48-.69,1.3-.9,3.15-.65,5.4.2,1.81.69,3.88,1.5,6.16,3.99,11.32,18.29,21.96,23.5,24.02,2.49.98,4.09,1.39,5.33,1.39,1.15,0,2.9-.34,6.41-2.92,6.57-4.86,25.59-27.22,31.83-42.71.46-1.13.85-2.23,1.16-3.28-.4-.03-.87-.05-1.39-.07Z" fill="#000" isolation="isolate" opacity=".65" stroke-width="0"/><path d="M78.35,19.94c-.85-1.58-2.77-2.75-5.7-3.48C56.48,12.43,20.69,7.91,11.33,7.91c-.39,0-.43,0-.67,0-.52.02-.98.04-1.38.07.31,1.05.7,2.15,1.16,3.28,6.23,15.49,25.26,37.86,31.83,42.71,3.5,2.59,5.26,2.92,6.4,2.92,1.25,0,2.84-.42,5.33-1.39,5.22-2.05,19.51-12.7,23.51-24.02.8-2.28,1.29-4.35,1.49-6.16.25-2.25.05-4.1-.65-5.4Z" fill="#000" isolation="isolate" opacity=".65" stroke-width="0"/><polygon points="77.2 9.7 81.43 13.38 85.62 13.38 81.94 9.7 77.2 9.7" fill="#fbbf2c" stroke-width="0"/><polygon points="111.79 9.7 108.12 9.7 102.93 13.38 108.08 13.38 111.79 9.7" fill="#fbbf2c" stroke-width="0"/><polygon points="81.94 9.7 85.62 13.38 102.93 13.38 108.12 9.7 81.94 9.7" fill="#feea3c" stroke-width="0"/><path d="M101.9,24.82c-.42-7.93,3.3-13.77,12.42-16.04C130.58,4.75,167.17,0,177.56,0c0,0,.49-.02.98,0,9.23.37,10.85,2.5,8.73,9.91-5.04,17.65-28.1,44.61-35.96,50.41-4.35,3.21-7.73,4.46-11.1,4.46-2.62,0-5.2-.76-8.23-1.95-6.48-2.55-23.02-14.45-28.05-28.74l-2.03-9.3ZM84.96,34.13c-5.05,14.29-21.59,26.19-28.07,28.74-3.01,1.18-5.61,1.95-8.23,1.95-3.36,0-6.74-1.25-11.1-4.46C29.73,54.54,6.66,27.58,1.61,9.93-.5,2.51,1.12.38,10.35.02c.48-.03.98,0,.98,0C21.71,0,58.3,4.75,74.56,8.79c9.08,2.26,12.82,8.06,12.42,15.94l-2.02,9.4ZM179.61,7.99c-.4-.03-.87-.05-1.39-.07-.24,0-.28,0-.66,0-9.36,0-45.15,4.52-61.32,8.55-2.93.73-4.86,1.9-5.71,3.48-1.25,2.34-.96,6.45.85,11.56,3.99,11.32,18.29,21.96,23.5,24.02,2.49.98,4.09,1.39,5.33,1.39,1.15,0,2.9-.34,6.41-2.92,7.05-5.21,28.45-30.59,32.99-46ZM77.51,31.5c1.8-5.12,2.1-9.22.84-11.56-.85-1.58-2.77-2.74-5.7-3.48C56.48,12.43,20.69,7.91,11.33,7.91c-.39,0-.43,0-.67,0-.52.02-.98.04-1.38.07,4.53,15.4,25.93,40.78,32.99,46,3.5,2.59,5.26,2.92,6.4,2.92,1.25,0,2.84-.42,5.33-1.39,5.23-2.05,19.52-12.7,23.51-24.02Z" fill="#25c5d9" stroke-width="0"/><path d="M4.6,10.35H0v10.19h10.02c1.36,0,2.26-1.4,1.7-2.64l-1.91-4.2c-.93-2.04-2.96-3.35-5.21-3.35Z" fill="#feea3c" stroke-width="0"/><path d="M7.24,13.53c0,1.02-.83,1.85-1.85,1.85s-1.85-.83-1.85-1.85.83-1.85,1.85-1.85,1.85.83,1.85,1.85Z" fill="#fdd735" stroke-width="0"/><path d="M6.45,13.52c0,.59-.48,1.07-1.07,1.07s-1.07-.48-1.07-1.07.48-1.07,1.07-1.07c.59,0,1.07.48,1.07,1.07Z" fill="#006064" stroke-width="0"/><path d="M9.14,17.7c0,1.02-.83,1.85-1.85,1.85s-1.85-.83-1.85-1.85.83-1.85,1.85-1.85,1.85.83,1.85,1.85Z" fill="#fdd735" stroke-width="0"/><circle cx="7.28" cy="17.69" r="1.07" fill="#006064" stroke-width="0"/><path d="M183.52,10.35h4.6v10.19h-10.02c-1.36,0-2.26-1.4-1.7-2.64l1.91-4.2c.93-2.04,2.96-3.35,5.21-3.35Z" fill="#feea3c" stroke-width="0"/><path d="M180.88,13.53c0,1.02.83,1.85,1.85,1.85s1.85-.83,1.85-1.85-.83-1.85-1.85-1.85-1.85.83-1.85,1.85Z" fill="#fdd735" stroke-width="0"/><circle cx="182.74" cy="13.52" r="1.07" fill="#006064" stroke-width="0"/><path d="M178.98,17.7c0,1.02.83,1.85,1.85,1.85s1.85-.83,1.85-1.85-.83-1.85-1.85-1.85-1.85.83-1.85,1.85Z" fill="#fdd735" stroke-width="0"/><circle cx="180.84" cy="17.69" r="1.07" fill="#006064" stroke-width="0"/></svg>